<?xml version="1.0" encoding="utf-8" standalone="yes"?>
<!DOCTYPE svg PUBLIC "-//W3C//DTD SVG 1.1//EN" "http://www.w3.org/Graphics/SVG/1.1/DTD/svg11.dtd">
<svg width="978" height="370" viewBox="0 0 978 370" style="fill:none;stroke:none;fill-rule:evenodd;clip-rule:evenodd;stroke-linecap:round;stroke-linejoin:round;stroke-miterlimit:1.5;" version="1.1" xmlns="http://www.w3.org/2000/svg" xmlns:xlink="http://www.w3.org/1999/xlink"><style class="text-font-style fontImports" data-font-family="Roboto">@import url(https://fonts.googleapis.com/css2?family=Roboto:wght@400;700&amp;amp;display=block);</style><g id="items" style="isolation: isolate"><g id="blend" style="mix-blend-mode: normal"><g id="g-root-tx_executeb_144w2ui10eearo-fill" data-item-order="0" transform="translate(306, 122)"><g id="tx_executeb_144w2ui10eearo-fill" stroke="none" fill="#f4f4f4"><g><text style="font: 20px Roboto, sans-serif; white-space: pre;" font-size="20px" font-family="Roboto, sans-serif"><tspan x="12" y="34" dominant-baseline="ideographic">Execute </tspan><tspan x="12" y="58" dominant-baseline="ideographic">Block 1</tspan></text></g></g></g><g id="g-root-tx_controlf_v64p6210efpce-fill" data-item-order="0" transform="translate(347, 38)"><g id="tx_controlf_v64p6210efpce-fill" stroke="none" fill="#f4f4f4"><g><text style="font: bold 25px Roboto, sans-serif; white-space: pre;" font-weight="bold" font-size="25px" font-family="Roboto, sans-serif"><tspan x="15" y="43" dominant-baseline="ideographic">Control Flow in Python</tspan></text></g></g></g><g id="g-root-tx_anotherc_hyf1be10ee9zh-fill" data-item-order="0" transform="translate(306, 224)"><g id="tx_anotherc_hyf1be10ee9zh-fill" stroke="none" fill="#f4f4f4"><g><text style="font: 20px Roboto, sans-serif; white-space: pre;" font-size="20px" font-family="Roboto, sans-serif"><tspan x="12" y="34" dominant-baseline="ideographic">Another </tspan><tspan x="12" y="58" dominant-baseline="ideographic">Condition?</tspan></text></g></g></g><g id="g-root-tx_repeatlo_qvazqi10eebcx-fill" data-item-order="0" transform="translate(790, 168)"><g id="tx_repeatlo_qvazqi10eebcx-fill" stroke="none" fill="#f4f4f4"><g><text style="font: 20px Roboto, sans-serif; white-space: pre;" font-size="20px" font-family="Roboto, sans-serif"><tspan x="12" y="34" dominant-baseline="ideographic">Repeat Loop</tspan></text></g></g></g><g id="g-root-tx_executeb_7rhwq10ee96u-fill" data-item-order="0" transform="translate(482, 184)"><g id="tx_executeb_7rhwq10ee96u-fill" stroke="none" fill="#f4f4f4"><g><text style="font: 20px Roboto, sans-serif; white-space: pre;" font-size="20px" font-family="Roboto, sans-serif"><tspan x="12" y="34" dominant-baseline="ideographic">Execute </tspan><tspan x="12" y="58" dominant-baseline="ideographic">Block 2</tspan></text></g></g></g><g id="g-root-tx_start_dhcl0q10ee8lm-fill" data-item-order="0" transform="translate(14, 185)"><g id="tx_start_dhcl0q10ee8lm-fill" stroke="none" fill="#f4f4f4"><g><text style="font: 20px Roboto, sans-serif; white-space: pre;" font-size="20px" font-family="Roboto, sans-serif"><tspan x="12" y="34" dominant-baseline="ideographic">Start</tspan></text></g></g></g><g id="g-root-tx_conditio_1lw63ca10ee8ej-fill" data-item-order="0" transform="translate(130, 185)"><g id="tx_conditio_1lw63ca10ee8ej-fill" stroke="none" fill="#f4f4f4"><g><text style="font: 20px Roboto, sans-serif; white-space: pre;" font-size="20px" font-family="Roboto, sans-serif"><tspan x="12" y="34" dominant-baseline="ideographic">Condition?</tspan></text></g></g></g><g id="g-root-tx_end_4oty7e10eeakq-fill" data-item-order="0" transform="translate(790, 224)"><g id="tx_end_4oty7e10eeakq-fill" stroke="none" fill="#f4f4f4"><g><text style="font: 20px Roboto, sans-serif; white-space: pre;" font-size="20px" font-family="Roboto, sans-serif"><tspan x="12" y="34" dominant-baseline="ideographic">End</tspan></text></g></g></g><g id="g-root-tx_executeb_1lxf1ii10eeakn-fill" data-item-order="0" transform="translate(482, 264)"><g id="tx_executeb_1lxf1ii10eeakn-fill" stroke="none" fill="#f4f4f4"><g><text style="font: 20px Roboto, sans-serif; white-space: pre;" font-size="20px" font-family="Roboto, sans-serif"><tspan x="12" y="34" dominant-baseline="ideographic">Execute </tspan><tspan x="12" y="58" dominant-baseline="ideographic">Block 3</tspan></text></g></g></g><g id="g-root-tx_loop_146ri3u10ee9s0-fill" data-item-order="0" transform="translate(662, 196)"><g id="tx_loop_146ri3u10ee9s0-fill" stroke="none" fill="#f4f4f4"><g><text style="font: 20px Roboto, sans-serif; white-space: pre;" font-size="20px" font-family="Roboto, sans-serif"><tspan x="12" y="34" dominant-baseline="ideographic">Loop?</tspan></text></g></g></g><g id="g-root-cu_8xs8dm10efpj7-fill" data-item-order="2" transform="translate(600, 130)"></g><g id="g-root-cu_18hl7je10efnrd-fill" data-item-order="2" transform="translate(244, 146)"></g><g id="g-root-cu_1q88qy210efojr-fill" data-item-order="2" transform="translate(420, 146)"></g><g id="g-root-cu_1uo292i10efnrd-fill" data-item-order="2" transform="translate(728, 180)"></g><g id="g-root-cu_141rpey10efojn-fill" data-item-order="2" transform="translate(68, 197)"></g><g id="g-root-cu_1cxepnu10efmz2-fill" data-item-order="2" transform="translate(244, 197)"></g><g id="g-root-cu_1cxepnu10efmz0-fill" data-item-order="2" transform="translate(420, 208)"></g><g id="g-root-cu_1uo292i10efnrf-fill" data-item-order="2" transform="translate(572, 208)"></g><g id="g-root-cu_1q88qy210efojp-fill" data-item-order="2" transform="translate(572, 208)"></g><g id="g-root-cu_2rp7u10efn66-fill" data-item-order="2" transform="translate(728, 208)"></g><g id="g-root-cu_1lsf8tm10efpc1-fill" data-item-order="2" transform="translate(420, 248)"></g><g id="g-root-tx_executeb_144w2ui10eearo-stroke" data-item-order="0" transform="translate(306, 122)"></g><g id="g-root-tx_controlf_v64p6210efpce-stroke" data-item-order="0" transform="translate(347, 38)"></g><g id="g-root-tx_anotherc_hyf1be10ee9zh-stroke" data-item-order="0" transform="translate(306, 224)"></g><g id="g-root-tx_repeatlo_qvazqi10eebcx-stroke" data-item-order="0" transform="translate(790, 168)"></g><g id="g-root-tx_executeb_7rhwq10ee96u-stroke" data-item-order="0" transform="translate(482, 184)"></g><g id="g-root-tx_start_dhcl0q10ee8lm-stroke" data-item-order="0" transform="translate(14, 185)"></g><g id="g-root-tx_conditio_1lw63ca10ee8ej-stroke" data-item-order="0" transform="translate(130, 185)"></g><g id="g-root-tx_end_4oty7e10eeakq-stroke" data-item-order="0" transform="translate(790, 224)"></g><g id="g-root-tx_executeb_1lxf1ii10eeakn-stroke" data-item-order="0" transform="translate(482, 264)"></g><g id="g-root-tx_loop_146ri3u10ee9s0-stroke" data-item-order="0" transform="translate(662, 196)"></g><g id="g-root-cu_8xs8dm10efpj7-stroke" data-item-order="2" transform="translate(600, 130)"><g id="cu_8xs8dm10efpj7-stroke" fill="none" stroke-linecap="round" stroke-linejoin="round" stroke-miterlimit="4" stroke="#f4f4f4" stroke-width="2"><g><path d="M 326 60L 340 60L 354 60L 354 35L 354 10L 182 10L 10 10L 10 49L 10 88L 38 88L 64 88"></path><path d="M 58 94.5L 64.5 88L 58 81.5" stroke-dasharray="none"></path></g></g></g><g id="g-root-cu_18hl7je10efnrd-stroke" data-item-order="2" transform="translate(244, 146)"><g id="cu_18hl7je10efnrd-stroke" fill="none" stroke-linecap="round" stroke-linejoin="round" stroke-miterlimit="4" stroke="#f4f4f4" stroke-width="2"><g><path d="M 10 61L 24 61L 38 61L 38 35.5L 38 10L 52 10L 64 10"></path><path d="M 58 16.5L 64.5 10L 58 3.5" stroke-dasharray="none"></path></g></g></g><g id="g-root-cu_1q88qy210efojr-stroke" data-item-order="2" transform="translate(420, 146)"><g id="cu_1q88qy210efojr-stroke" fill="none" stroke-linecap="round" stroke-linejoin="round" stroke-miterlimit="4" stroke="#f4f4f4" stroke-width="2"><g><path d="M 10 10L 114 10L 218 10L 218 41L 218 72L 232 72L 244 72"></path><path d="M 238 78.5L 244.5 72L 238 65.5" stroke-dasharray="none"></path></g></g></g><g id="g-root-cu_1uo292i10efnrd-stroke" data-item-order="2" transform="translate(728, 180)"><g id="cu_1uo292i10efnrd-stroke" fill="none" stroke-linecap="round" stroke-linejoin="round" stroke-miterlimit="4" stroke="#f4f4f4" stroke-width="2"><g><path d="M 10 38L 24 38L 38 38L 38 24L 38 10L 52 10L 64 10"></path><path d="M 58 16.5L 64.5 10L 58 3.5" stroke-dasharray="none"></path></g></g></g><g id="g-root-cu_141rpey10efojn-stroke" data-item-order="2" transform="translate(68, 197)"><g id="cu_141rpey10efojn-stroke" fill="none" stroke-linecap="round" stroke-linejoin="round" stroke-miterlimit="4" stroke="#f4f4f4" stroke-width="2"><g><path d="M 10 10L 38 10L 64 10"></path><path d="M 58 16.5L 64.5 10L 58 3.5" stroke-dasharray="none"></path></g></g></g><g id="g-root-cu_1cxepnu10efmz2-stroke" data-item-order="2" transform="translate(244, 197)"><g id="cu_1cxepnu10efmz2-stroke" fill="none" stroke-linecap="round" stroke-linejoin="round" stroke-miterlimit="4" stroke="#f4f4f4" stroke-width="2"><g><path d="M 10 10L 24 10L 38 10L 38 35.5L 38 61L 52 61L 64 61"></path><path d="M 58 67.5L 64.5 61L 58 54.5" stroke-dasharray="none"></path></g></g></g><g id="g-root-cu_1cxepnu10efmz0-stroke" data-item-order="2" transform="translate(420, 208)"><g id="cu_1cxepnu10efmz0-stroke" fill="none" stroke-linecap="round" stroke-linejoin="round" stroke-miterlimit="4" stroke="#f4f4f4" stroke-width="2"><g><path d="M 10 50L 24 50L 38 50L 38 30L 38 10L 52 10L 64 10"></path><path d="M 58 16.5L 64.5 10L 58 3.5" stroke-dasharray="none"></path></g></g></g><g id="g-root-cu_1uo292i10efnrf-stroke" data-item-order="2" transform="translate(572, 208)"><g id="cu_1uo292i10efnrf-stroke" fill="none" stroke-linecap="round" stroke-linejoin="round" stroke-miterlimit="4" stroke="#f4f4f4" stroke-width="2"><g><path d="M 10 90L 38 90L 66 90L 66 50L 66 10L 80 10L 92 10"></path><path d="M 86 16.5L 92.5 10L 86 3.5" stroke-dasharray="none"></path></g></g></g><g id="g-root-cu_1q88qy210efojp-stroke" data-item-order="2" transform="translate(572, 208)"><g id="cu_1q88qy210efojp-stroke" fill="none" stroke-linecap="round" stroke-linejoin="round" stroke-miterlimit="4" stroke="#f4f4f4" stroke-width="2"><g><path d="M 10 10L 52 10L 92 10"></path><path d="M 86 16.5L 92.5 10L 86 3.5" stroke-dasharray="none"></path></g></g></g><g id="g-root-cu_2rp7u10efn66-stroke" data-item-order="2" transform="translate(728, 208)"><g id="cu_2rp7u10efn66-stroke" fill="none" stroke-linecap="round" stroke-linejoin="round" stroke-miterlimit="4" stroke="#f4f4f4" stroke-width="2"><g><path d="M 10 10L 24 10L 38 10L 38 24L 38 38L 52 38L 64 38"></path><path d="M 58 44.5L 64.5 38L 58 31.5" stroke-dasharray="none"></path></g></g></g><g id="g-root-cu_1lsf8tm10efpc1-stroke" data-item-order="2" transform="translate(420, 248)"><g id="cu_1lsf8tm10efpc1-stroke" fill="none" stroke-linecap="round" stroke-linejoin="round" stroke-miterlimit="4" stroke="#f4f4f4" stroke-width="2"><g><path d="M 10 10L 24 10L 38 10L 38 30L 38 50L 52 50L 64 50"></path><path d="M 58 56.5L 64.5 50L 58 43.5" stroke-dasharray="none"></path></g></g></g></g></g><path id="w8z0azu10oi2gw" d="M65.283 12.757a.35.35 0 0 0 .584.157l5.203-5.141-6.183 3.523.396 1.461zm-2.216-11.7a.35.35 0 0 0-.522.305v3.111l3.276-1.868-2.754-1.548zm3.728 2.105l-4.25 2.421v2.445l6.391-3.644-2.141-1.222zm4.708 3.303a.35.35 0 0 0 0-.609l-1.592-.9-7.365 4.199v1.782a.35.35 0 0 0 .523.305l8.435-4.777z M44.542 2.513c0-.433.355-.783.792-.783s.792.35.792.783-.355.783-.792.783-.792-.35-.792-.783zm59.171 0c0-.433.355-.783.792-.783s.792.35.792.783-.355.783-.792.783-.792-.35-.792-.783zm-85.951 7.636h-1.27v-.487c-.276.201-.864.609-1.881.609-1.202 0-2.274-.794-2.137-2.078.118-1.106 1.153-1.584 1.848-1.727l2.17-.345c0-.539-.29-.956-1.064-1.006s-1.21.305-1.571 1.017l-1.124-.605c1.218-2.631 5.029-1.764 5.029.414v4.207zm-1.27-2.86c.006.396-.062 1.112-.819 1.59-.587.37-1.841.299-1.903-.395-.049-.555.461-.791.906-.898l1.816-.297zm72.662 2.86h-1.27v-.487c-.276.201-.864.609-1.881.609-1.202 0-2.274-.794-2.137-2.078.118-1.106 1.153-1.584 1.848-1.727l2.17-.345c0-.539-.29-.956-1.064-1.006s-1.21.305-1.571 1.017l-1.124-.605c1.218-2.631 5.029-1.764 5.029.414v4.207zm-1.27-2.86c.006.396-.062 1.112-.82 1.59-.587.37-1.841.299-1.903-.395-.049-.555.461-.791.906-.898l1.816-.297zM99.096 10.149H97.85v-8.45h1.246v4.895l2.68-2.559h1.738l-2.633 2.535 2.715 3.578h-1.556l-2.077-2.707-.867.844v1.863zm6.053-6.114h-1.255v6.113h1.255V4.035zm-59.2 0h-1.255v6.113h1.255V4.035zm5.584 6.113V1.697h1.255v2.695c.361-.346 1-.485 1.47-.485 1.452 0 2.477 1.082 2.457 2.448v3.792h-1.27v-3.68c0-.408-.214-1.339-1.315-1.339-.968 0-1.342.756-1.342 1.339v3.681h-1.255zm-4.76-4.894V4.039h.621a.45.45 0 0 0 .45-.45v-.855h1.251v1.305h1.309v1.215h-1.309v3.109c0 .293.105.664.648.664.365 0 .531-.035.736-.07v1.137s-.361.113-.857.113c-1.398 0-1.777-1.051-1.777-1.788V5.254h-1.071zM36.528 4.039h-1.394l2.191 6.106h1.125l1.234-3.918 1.238 3.918h1.129l2.188-6.106h-1.383l-1.359 3.93-1.256-3.93h-1.124l-1.242 3.957-1.348-3.957zM26.212 7.141c-.02 1.566 1.187 3.129 3.223 3.129 1.566 0 2.383-.918 2.734-1.719L31.172 8c-.315.399-.801 1.094-1.738 1.094-1.145 0-1.825-.781-1.891-1.52h4.625c.074-.284.148-.995-.03-1.559-.336-1.064-1.221-2.102-2.839-2.102s-3.088 1.152-3.088 3.227zm1.363-.75h3.348c-.055-.43-.566-1.301-1.623-1.301a1.79 1.79 0 0 0-1.725 1.301zm-8.758.75c.038 1.758 1.277 3.133 3.145 3.133 1.074 0 1.723-.477 1.961-.672v.547h1.242V1.703h-1.258v2.888c-.414-.36-1.062-.68-1.93-.68-1.91 0-3.198 1.473-3.16 3.23zm1.309-.08c0 1.119.723 1.978 1.836 1.978a1.88 1.88 0 0 0 1.94-1.904c0-1.371-1.011-1.99-1.972-1.99s-1.805.798-1.805 1.916zm76.683-.028C96.771 5.275 95.532 3.9 93.664 3.9c-1.074 0-1.723.477-1.961.672v-.547h-1.242v8.22h1.258V9.583c.414.36 1.063.68 1.93.68 1.91 0 3.198-1.473 3.16-3.23zm-1.309.08c0-1.119-.723-1.978-1.836-1.978a1.88 1.88 0 0 0-1.94 1.904c0 1.371 1.011 1.99 1.972 1.99S95.5 8.231 95.5 7.113zM106.441 10.173V4.036h1.254v.382c.361-.346 1-.485 1.47-.485 1.452 0 2.477 1.082 2.457 2.448v3.792h-1.27V6.492c0-.408-.214-1.339-1.315-1.339-.969 0-1.342.756-1.342 1.339v3.681h-1.254zm-30.383-.021V1.824h1.084l4.215 5.777V1.824h1.32v8.328h-1.094l-4.207-5.796v5.796h-1.319zM5.24 10.149H4V2.377h1.014l2.664 3.597 2.654-3.592h1.03v7.766h-1.256V4.762L7.678 8.068 5.24 4.742v5.407z" transform="translate(842, 336)" fill="#ababab88" stroke="none"></path></svg>