<?xml version="1.0" encoding="utf-8" standalone="yes"?>
<!DOCTYPE svg PUBLIC "-//W3C//DTD SVG 1.1//EN" "http://www.w3.org/Graphics/SVG/1.1/DTD/svg11.dtd">
<svg width="732" height="790" viewBox="0 0 732 790" style="fill:none;stroke:none;fill-rule:evenodd;clip-rule:evenodd;stroke-linecap:round;stroke-linejoin:round;stroke-miterlimit:1.5;" version="1.1" xmlns="http://www.w3.org/2000/svg" xmlns:xlink="http://www.w3.org/1999/xlink"><style class="text-font-style fontImports" data-font-family="Roboto">@import url(https://fonts.googleapis.com/css2?family=Roboto:wght@400;700&amp;amp;display=block);</style><g id="items" style="isolation: isolate"><g id="blend" style="mix-blend-mode: normal"><g id="g-root-ro_1qbc2hm13qkmpv-fill" data-item-order="0" transform="translate(402, 122)"></g><g id="g-root-ro_zof4wq13qm1hg-fill" data-item-order="0" transform="translate(130, 140)"></g><g id="g-root-tx_memoryvi_1hap9ju13qm29s-fill" data-item-order="0" transform="translate(530, 584)"><g id="tx_memoryvi_1hap9ju13qm29s-fill" stroke="none" fill="#f4f4f4"><g><text style="font: 20px Roboto, sans-serif; white-space: pre;" font-size="20px" font-family="Roboto, sans-serif"><tspan x="12" y="34" dominant-baseline="ideographic">memoryview</tspan></text></g></g></g><g id="g-root-cu_vah21m13qm1ai-fill" data-item-order="0" transform="translate(378, 149)"></g><g id="g-root-ro_144v44a13qc8oz-fill" data-item-order="0" transform="translate(142, 614)"></g><g id="g-root-cu_1uljdzu13qng97-fill" data-item-order="0" transform="translate(426, 686)"></g><g id="g-root-cu_zqak6213qm0i7-fill" data-item-order="0" transform="translate(298, 167)"></g><g id="g-root-cu_dcyaoq13qnh1c-fill" data-item-order="0" transform="translate(426, 176)"></g><g id="g-root-tx_none_v4880q13qm1hl-fill" data-item-order="0" transform="translate(190, 206)"><g id="tx_none_v4880q13qm1hl-fill" stroke="none" fill="#f4f4f4"><g><text style="font: 20px Roboto, sans-serif; white-space: pre;" font-size="20px" font-family="Roboto, sans-serif"><tspan x="20.67" y="34" dominant-baseline="ideographic">None</tspan></text></g></g></g><g id="g-root-cu_m8laxm13qnfgt-fill" data-item-order="0" transform="translate(256, 194)"></g><g id="g-root-tx_class_hsrpne13qm32i-fill" data-item-order="0" transform="translate(450, 188)"><g id="tx_class_hsrpne13qm32i-fill" stroke="none" fill="#f4f4f4"><g><text style="font: 20px Roboto, sans-serif; white-space: pre;" font-size="20px" font-family="Roboto, sans-serif"><tspan x="12" y="34" dominant-baseline="ideographic">class</tspan></text></g></g></g><g id="g-root-ro_18hk2hm13qottt-fill" data-item-order="0" transform="translate(482, 236)"></g><g id="g-root-ro_mbpl7e13qrncy-fill" data-item-order="0" transform="translate(14, 254)"></g><g id="g-root-ro_8qze13q9edf-fill" data-item-order="0" transform="translate(402, 632)"></g><g id="g-root-tx_pythonda_249ei13qnfgj-fill" data-item-order="0" transform="translate(194, 38)"><g id="tx_pythonda_249ei13qnfgj-fill" stroke="none" fill="#f4f4f4"><g><text style="font: bold 25px Roboto, sans-serif; white-space: pre;" font-weight="bold" font-size="25px" font-family="Roboto, sans-serif"><tspan x="11.91" y="46" dominant-baseline="ideographic">Python Data Types Overview</tspan></text></g></g></g><g id="g-root-cu_1qcl3tm13qm0hv-fill" data-item-order="0" transform="translate(434, 263)"></g><g id="g-root-cu_6hl0a13qm2a5-fill" data-item-order="0" transform="translate(218, 281)"></g><g id="g-root-cu_1hitiu213qm13b-fill" data-item-order="0" transform="translate(506, 290)"></g><g id="g-root-cu_147d0gq13qm2oa-fill" data-item-order="0" transform="translate(506, 290)"></g><g id="g-root-cu_qwiz6i13qm13g-fill" data-item-order="0" transform="translate(506, 290)"></g><g id="g-root-tx_int_1czvk4a13qkoas-fill" data-item-order="0" transform="translate(134, 320)"><g id="tx_int_1czvk4a13qkoas-fill" stroke="none" fill="#f4f4f4"><g><text style="font: 20px Roboto, sans-serif; white-space: pre;" font-size="20px" font-family="Roboto, sans-serif"><tspan x="21.55" y="34" dominant-baseline="ideographic">int</tspan></text></g></g></g><g id="g-root-cu_hz0joa13qm2vh-fill" data-item-order="0" transform="translate(176, 308)"></g><g id="g-root-cu_djtimy13qm0i0-fill" data-item-order="0" transform="translate(176, 308)"></g><g id="g-root-cu_8d09m13qm22y-fill" data-item-order="0" transform="translate(176, 308)"></g><g id="g-root-tx_list_1d1qzdm13qknb4-fill" data-item-order="0" transform="translate(530, 302)"><g id="tx_list_1d1qzdm13qknb4-fill" stroke="none" fill="#f4f4f4"><g><text style="font: 20px Roboto, sans-serif; white-space: pre;" font-size="20px" font-family="Roboto, sans-serif"><tspan x="12" y="34" dominant-baseline="ideographic">list</tspan></text></g></g></g><g id="g-root-ro_18lxe3e13qc7i8-fill" data-item-order="0" transform="translate(266, 347)"></g><g id="g-root-tx_tuple_qv9xui13qkmix-fill" data-item-order="0" transform="translate(530, 338)"><g id="tx_tuple_qv9xui13qkmix-fill" stroke="none" fill="#f4f4f4"><g><text style="font: 20px Roboto, sans-serif; white-space: pre;" font-size="20px" font-family="Roboto, sans-serif"><tspan x="12" y="34" dominant-baseline="ideographic">tuple</tspan></text></g></g></g><g id="g-root-tx_float_qteil613qknil-fill" data-item-order="0" transform="translate(122, 356)"><g id="tx_float_qteil613qknil-fill" stroke="none" fill="#f4f4f4"><g><text style="font: 20px Roboto, sans-serif; white-space: pre;" font-size="20px" font-family="Roboto, sans-serif"><tspan x="15.81" y="34" dominant-baseline="ideographic">float</tspan></text></g></g></g><g id="g-root-tx_range_djtfh613qko3u-fill" data-item-order="0" transform="translate(530, 374)"><g id="tx_range_djtfh613qko3u-fill" stroke="none" fill="#f4f4f4"><g><text style="font: 20px Roboto, sans-serif; white-space: pre;" font-size="20px" font-family="Roboto, sans-serif"><tspan x="12" y="34" dominant-baseline="ideographic">range</tspan></text></g></g></g><g id="g-root-tx_complex_92qz6i13qkmpy-fill" data-item-order="0" transform="translate(86, 392)"><g id="tx_complex_92qz6i13qkmpy-fill" stroke="none" fill="#f4f4f4"><g><text style="font: 20px Roboto, sans-serif; white-space: pre;" font-size="20px" font-family="Roboto, sans-serif"><tspan x="15.95" y="34" dominant-baseline="ideographic">complex</tspan></text></g></g></g><g id="g-root-tx_str_1useisa13qko3r-fill" data-item-order="0" transform="translate(214, 680)"><g id="tx_str_1useisa13qko3r-fill" stroke="none" fill="#f4f4f4"><g><text style="font: 20px Roboto, sans-serif; white-space: pre;" font-size="20px" font-family="Roboto, sans-serif"><tspan x="20.34" y="34" dominant-baseline="ideographic">str</tspan></text></g></g></g><g id="g-root-cu_1hgy3kq13qm1am-fill" data-item-order="0" transform="translate(218, 447)"></g><g id="g-root-cu_18lb3bu13qm2v8-fill" data-item-order="0" transform="translate(434, 447)"></g><g id="g-root-ro_143m2sa13qc93b-fill" data-item-order="0" transform="translate(482, 446)"></g><g id="g-root-ro_1uljdzu13qkn4c-fill" data-item-order="0" transform="translate(62, 464)"></g><g id="g-root-cu_1utnk4a13qm2o4-fill" data-item-order="0" transform="translate(256, 668)"></g><g id="g-root-tx_dict_vcce5613qknwt-fill" data-item-order="0" transform="translate(450, 698)"><g id="tx_dict_vcce5613qknwt-fill" stroke="none" fill="#f4f4f4"><g><text style="font: 20px Roboto, sans-serif; white-space: pre;" font-size="20px" font-family="Roboto, sans-serif"><tspan x="12" y="34" dominant-baseline="ideographic">dict</tspan></text></g></g></g><g id="g-root-cu_1urs4uy13qm2vc-fill" data-item-order="0" transform="translate(298, 497)"></g><g id="g-root-cu_1d14lga13qm22x-fill" data-item-order="0" transform="translate(378, 497)"></g><g id="g-root-cu_1hapcpm13qneoe-fill" data-item-order="0" transform="translate(506, 500)"></g><g id="g-root-cu_1cuvul613qnfgp-fill" data-item-order="0" transform="translate(506, 500)"></g><g id="g-root-cu_zjfc7u13qnh1n-fill" data-item-order="0" transform="translate(506, 500)"></g><g id="g-root-tx_set_1uu9y1m13qkn43-fill" data-item-order="0" transform="translate(134, 530)"><g id="tx_set_1uu9y1m13qkn43-fill" stroke="none" fill="#f4f4f4"><g><text style="font: 20px Roboto, sans-serif; white-space: pre;" font-size="20px" font-family="Roboto, sans-serif"><tspan x="16.52" y="34" dominant-baseline="ideographic">set</tspan></text></g></g></g><g id="g-root-cu_mgph2213qm1vq-fill" data-item-order="0" transform="translate(176, 518)"></g><g id="g-root-cu_8vvue213qnevd-fill" data-item-order="0" transform="translate(176, 518)"></g><g id="g-root-tx_bytes_dbp9cq13qm1om-fill" data-item-order="0" transform="translate(530, 512)"><g id="tx_bytes_dbp9cq13qm1om-fill" stroke="none" fill="#f4f4f4"><g><text style="font: 20px Roboto, sans-serif; white-space: pre;" font-size="20px" font-family="Roboto, sans-serif"><tspan x="12" y="34" dominant-baseline="ideographic">bytes</tspan></text></g></g></g><g id="g-root-tx_bytearra_v82i13qm03r-fill" data-item-order="0" transform="translate(530, 548)"><g id="tx_bytearra_v82i13qm03r-fill" stroke="none" fill="#f4f4f4"><g><text style="font: 20px Roboto, sans-serif; white-space: pre;" font-size="20px" font-family="Roboto, sans-serif"><tspan x="12" y="34" dominant-baseline="ideographic">bytearray</tspan></text></g></g></g><g id="g-root-tx_frozense_1hjfwre13qklj8-fill" data-item-order="0" transform="translate(74, 566)"><g id="tx_frozense_1hjfwre13qklj8-fill" stroke="none" fill="#f4f4f4"><g><text style="font: 20px Roboto, sans-serif; white-space: pre;" font-size="20px" font-family="Roboto, sans-serif"><tspan x="20.33" y="34" dominant-baseline="ideographic">frozenset</tspan></text></g></g></g><g id="g-root-ic_boar_4l21sq13qkohu-fill" data-item-order="1000000000" transform="translate(414, 134)"></g><g id="g-root-tx_userdefi_mcc2ai13qkm4p-fill" data-item-order="1000000000" transform="translate(450, 137)"><g id="tx_userdefi_mcc2ai13qkm4p-fill" stroke="none" fill="#1ac3fb"><g><text style="font: 20px Roboto, sans-serif; white-space: pre;" font-size="20px" font-family="Roboto, sans-serif"><tspan x="12" y="34" dominant-baseline="ideographic">User-Defined Types</tspan></text></g></g></g><g id="g-root-tx_nonetype_1uqj6oq13qm0p6-fill" data-item-order="1000000000" transform="translate(142, 155)"><g id="tx_nonetype_1uqj6oq13qm0p6-fill" stroke="none" fill="#f366bb"><g><text style="font: 20px Roboto, sans-serif; white-space: pre;" font-size="20px" font-family="Roboto, sans-serif"><tspan x="21.56" y="34" dominant-baseline="ideographic">None Type</tspan></text></g></g></g><g id="g-root-ic_nobe_1cz966y13qm32b-fill" data-item-order="1000000000" transform="translate(256, 152)"></g><g id="g-root-ic_word_1lse3ru13qoveo-fill" data-item-order="1000000000" transform="translate(494, 248)"></g><g id="g-root-tx_numerict_1hdtmze13qrmko-fill" data-item-order="1000000000" transform="translate(26, 269)"><g id="tx_numerict_1hdtmze13qrmko-fill" stroke="none" fill="#43dd93"><g><text style="font: 20px Roboto, sans-serif; white-space: pre;" font-size="20px" font-family="Roboto, sans-serif"><tspan x="19.03" y="34" dominant-baseline="ideographic">Numeric Types</tspan></text></g></g></g><g id="g-root-ic_scri_zmjmhm13qroxt-fill" data-item-order="1000000000" transform="translate(176, 266)"></g><g id="g-root-tx_sequence_8xr3bu13qovm7-fill" data-item-order="1000000000" transform="translate(530, 251)"><g id="tx_sequence_8xr3bu13qovm7-fill" stroke="none" fill="#ffe711"><g><text style="font: 20px Roboto, sans-serif; white-space: pre;" font-size="20px" font-family="Roboto, sans-serif"><tspan x="12" y="34" dominant-baseline="ideographic">Sequence Types</tspan></text></g></g></g><g id="g-root-ic_byte_1hgxx9613qc93j-fill" data-item-order="1000000000" transform="translate(326, 371)"></g><g id="g-root-tx_pythonda_92qw0q13qc64u-fill" data-item-order="1000000000" transform="translate(290, 425)"><g id="tx_pythonda_92qw0q13qc64u-fill" stroke="none" fill="#f4f4f4"><g><text style="font: 20px Roboto, sans-serif; white-space: pre;" font-size="20px" font-family="Roboto, sans-serif"><tspan x="13.84" y="34" dominant-baseline="ideographic">Python Data </tspan><tspan x="41.72" y="58" dominant-baseline="ideographic">Types</tspan></text></g></g></g><g id="g-root-ic_refr_1hf2l5m13qc7ie-fill" data-item-order="1000000000" transform="translate(494, 458)"></g><g id="g-root-tx_settypes_vcchay13qj7ya-fill" data-item-order="1000000000" transform="translate(74, 479)"><g id="tx_settypes_vcchay13qj7ya-fill" stroke="none" fill="#4f91fc"><g><text style="font: 20px Roboto, sans-serif; white-space: pre;" font-size="20px" font-family="Roboto, sans-serif"><tspan x="17.55" y="34" dominant-baseline="ideographic">Set Types</tspan></text></g></g></g><g id="g-root-ic_unit_8vvue213qklqj-fill" data-item-order="1000000000" transform="translate(176, 476)"></g><g id="g-root-tx_binaryty_4m2l613qc8i5-fill" data-item-order="1000000000" transform="translate(530, 461)"><g id="tx_binaryty_4m2l613qc8i5-fill" stroke="none" fill="#a6da37"><g><text style="font: 20px Roboto, sans-serif; white-space: pre;" font-size="20px" font-family="Roboto, sans-serif"><tspan x="12" y="34" dominant-baseline="ideographic">Binary Types</tspan></text></g></g></g><g id="g-root-tx_texttype_5v3x613qc83t-fill" data-item-order="1000000000" transform="translate(154, 629)"><g id="tx_texttype_5v3x613qc83t-fill" stroke="none" fill="#cb68f9"><g><text style="font: 20px Roboto, sans-serif; white-space: pre;" font-size="20px" font-family="Roboto, sans-serif"><tspan x="18.86" y="34" dominant-baseline="ideographic">Text Type</tspan></text></g></g></g><g id="g-root-ic_1_1hgbmhm13qc742-fill" data-item-order="1000000000" transform="translate(256, 626)"></g><g id="g-root-ic_1_dl2ahm13quigy-fill" data-item-order="1000000000" transform="translate(414, 644)"></g><g id="g-root-tx_mappingt_vccaze13qug3t-fill" data-item-order="1000000000" transform="translate(450, 647)"><g id="tx_mappingt_vccaze13qug3t-fill" stroke="none" fill="#fb6762"><g><text style="font: 20px Roboto, sans-serif; white-space: pre;" font-size="20px" font-family="Roboto, sans-serif"><tspan x="12" y="34" dominant-baseline="ideographic">Mapping Type</tspan></text></g></g></g><g id="g-root-ro_1qbc2hm13qkmpv-stroke" data-item-order="0" transform="translate(402, 122)"><g id="ro_1qbc2hm13qkmpv-stroke" fill="none" stroke-linecap="round" stroke-linejoin="round" stroke-miterlimit="4" stroke="#1ac3fb" stroke-width="2"><g><path d="M 22 10L 238 10C 238 10 250 10 250 22L 250 52C 250 52 250 64 238 64L 22 64C 22 64 10 64 10 52L 10 22C 10 22 10 10 22 10"></path></g></g></g><g id="g-root-ro_zof4wq13qm1hg-stroke" data-item-order="0" transform="translate(130, 140)"><g id="ro_zof4wq13qm1hg-stroke" fill="none" stroke-linecap="round" stroke-linejoin="round" stroke-miterlimit="4" stroke="#f366bb" stroke-width="2"><g><path d="M 22 10L 166 10C 166 10 178 10 178 22L 178 52C 178 52 178 64 166 64L 22 64C 22 64 10 64 10 52L 10 22C 10 22 10 10 22 10"></path></g></g></g><g id="g-root-tx_memoryvi_1hap9ju13qm29s-stroke" data-item-order="0" transform="translate(530, 584)"></g><g id="g-root-cu_vah21m13qm1ai-stroke" data-item-order="0" transform="translate(378, 149)"><g id="cu_vah21m13qm1ai-stroke" fill="none" stroke-linecap="round" stroke-linejoin="round" stroke-miterlimit="4" stroke="#f4f4f4" stroke-width="2" stroke-dasharray="5.0, 7.0"><g><path d="M 10 208L 10 183.3L 10 30.9C 10 19.357248 19.357248 10 30.899998 10L 31 10L 34 10"></path></g></g></g><g id="g-root-ro_144v44a13qc8oz-stroke" data-item-order="0" transform="translate(142, 614)"><g id="ro_144v44a13qc8oz-stroke" fill="none" stroke-linecap="round" stroke-linejoin="round" stroke-miterlimit="4" stroke="#cb68f9" stroke-width="2"><g><path d="M 22 10L 154 10C 154 10 166 10 166 22L 166 52C 166 52 166 64 154 64L 22 64C 22 64 10 64 10 52L 10 22C 10 22 10 10 22 10"></path></g></g></g><g id="g-root-cu_1uljdzu13qng97-stroke" data-item-order="0" transform="translate(426, 686)"><g id="cu_1uljdzu13qng97-stroke" fill="none" stroke-linecap="round" stroke-linejoin="round" stroke-miterlimit="4" stroke="#f4f4f4" stroke-width="2" stroke-dasharray="5.0, 7.0"><g><path d="M 10 10L 10 13L 10 22C 10 28.627416 15.372583 33.999999 22 33.999999L 22.1 34L 28 34"></path></g></g></g><g id="g-root-cu_zqak6213qm0i7-stroke" data-item-order="0" transform="translate(298, 167)"><g id="cu_zqak6213qm0i7-stroke" fill="none" stroke-linecap="round" stroke-linejoin="round" stroke-miterlimit="4" stroke="#f4f4f4" stroke-width="2" stroke-dasharray="5.0, 7.0"><g><path d="M 34 190L 34 167.5L 34 30.9C 33.999998 19.357248 24.64275 10 13.1 10L 13 10L 10 10"></path></g></g></g><g id="g-root-cu_dcyaoq13qnh1c-stroke" data-item-order="0" transform="translate(426, 176)"><g id="cu_dcyaoq13qnh1c-stroke" fill="none" stroke-linecap="round" stroke-linejoin="round" stroke-miterlimit="4" stroke="#f4f4f4" stroke-width="2" stroke-dasharray="5.0, 7.0"><g><path d="M 10 10L 10 13L 10 22C 10 28.627416 15.372583 33.999999 22 33.999999L 22.1 34L 28 34"></path></g></g></g><g id="g-root-tx_none_v4880q13qm1hl-stroke" data-item-order="0" transform="translate(190, 206)"></g><g id="g-root-cu_m8laxm13qnfgt-stroke" data-item-order="0" transform="translate(256, 194)"><g id="cu_m8laxm13qnfgt-stroke" fill="none" stroke-linecap="round" stroke-linejoin="round" stroke-miterlimit="4" stroke="#f4f4f4" stroke-width="2" stroke-dasharray="5.0, 7.0"><g><path d="M 28 10L 28 13L 28 22C 27.999999 28.627417 22.627416 34 15.999999 34L 15.9 34L 10 34"></path></g></g></g><g id="g-root-tx_class_hsrpne13qm32i-stroke" data-item-order="0" transform="translate(450, 188)"></g><g id="g-root-ro_18hk2hm13qottt-stroke" data-item-order="0" transform="translate(482, 236)"><g id="ro_18hk2hm13qottt-stroke" fill="none" stroke-linecap="round" stroke-linejoin="round" stroke-miterlimit="4" stroke="#ffe711" stroke-width="2"><g><path d="M 22 10L 214 10C 214 10 226 10 226 22L 226 52C 226 52 226 64 214 64L 22 64C 22 64 10 64 10 52L 10 22C 10 22 10 10 22 10"></path></g></g></g><g id="g-root-ro_mbpl7e13qrncy-stroke" data-item-order="0" transform="translate(14, 254)"><g id="ro_mbpl7e13qrncy-stroke" fill="none" stroke-linecap="round" stroke-linejoin="round" stroke-miterlimit="4" stroke="#43dd93" stroke-width="2"><g><path d="M 22 10L 202 10C 202 10 214 10 214 22L 214 52C 214 52 214 64 202 64L 22 64C 22 64 10 64 10 52L 10 22C 10 22 10 10 22 10"></path></g></g></g><g id="g-root-ro_8qze13q9edf-stroke" data-item-order="0" transform="translate(402, 632)"><g id="ro_8qze13q9edf-stroke" fill="none" stroke-linecap="round" stroke-linejoin="round" stroke-miterlimit="4" stroke="#fb6762" stroke-width="2"><g><path d="M 22 10L 190 10C 190 10 202 10 202 22L 202 52C 202 52 202 64 190 64L 22 64C 22 64 10 64 10 52L 10 22C 10 22 10 10 22 10"></path></g></g></g><g id="g-root-tx_pythonda_249ei13qnfgj-stroke" data-item-order="0" transform="translate(194, 38)"></g><g id="g-root-cu_1qcl3tm13qm0hv-stroke" data-item-order="0" transform="translate(434, 263)"><g id="cu_1qcl3tm13qm0hv-stroke" fill="none" stroke-linecap="round" stroke-linejoin="round" stroke-miterlimit="4" stroke="#f4f4f4" stroke-width="2" stroke-dasharray="5.0, 7.0"><g><path d="M 10 144L 13 144L 13.1 144C 24.642746 144.000005 33.999995 134.642756 33.999996 123.100005L 34 123L 34 30.9C 33.999999 19.357249 43.357248 10.000001 54.899999 10.000002L 55 10L 58 10"></path></g></g></g><g id="g-root-cu_6hl0a13qm2a5-stroke" data-item-order="0" transform="translate(218, 281)"><g id="cu_6hl0a13qm2a5-stroke" fill="none" stroke-linecap="round" stroke-linejoin="round" stroke-miterlimit="4" stroke="#f4f4f4" stroke-width="2" stroke-dasharray="5.0, 7.0"><g><path d="M 58 126L 55 126L 54.9 126C 43.357245 125.999994 33.999996 116.642746 33.999997 105.099995L 34 105L 34 30.9C 33.999998 19.357248 24.64275 10 13.1 10L 13 10L 10 10"></path></g></g></g><g id="g-root-cu_1hitiu213qm13b-stroke" data-item-order="0" transform="translate(506, 290)"><g id="cu_1hitiu213qm13b-stroke" fill="none" stroke-linecap="round" stroke-linejoin="round" stroke-miterlimit="4" stroke="#f4f4f4" stroke-width="2" stroke-dasharray="5.0, 7.0"><g><path d="M 10 10L 10 22L 10 34L 19 34L 28 34"></path></g></g></g><g id="g-root-cu_147d0gq13qm2oa-stroke" data-item-order="0" transform="translate(506, 290)"><g id="cu_147d0gq13qm2oa-stroke" fill="none" stroke-linecap="round" stroke-linejoin="round" stroke-miterlimit="4" stroke="#f4f4f4" stroke-width="2" stroke-dasharray="5.0, 7.0"><g><path d="M 10 10L 10 40L 10 70L 19 70L 28 70"></path></g></g></g><g id="g-root-cu_qwiz6i13qm13g-stroke" data-item-order="0" transform="translate(506, 290)"><g id="cu_qwiz6i13qm13g-stroke" fill="none" stroke-linecap="round" stroke-linejoin="round" stroke-miterlimit="4" stroke="#f4f4f4" stroke-width="2" stroke-dasharray="5.0, 7.0"><g><path d="M 10 10L 10 22L 10 94C 10.000004 100.627423 15.372587 106.000006 22.000005 106.000005L 22.1 106L 28 106"></path></g></g></g><g id="g-root-tx_int_1czvk4a13qkoas-stroke" data-item-order="0" transform="translate(134, 320)"></g><g id="g-root-cu_hz0joa13qm2vh-stroke" data-item-order="0" transform="translate(176, 308)"><g id="cu_hz0joa13qm2vh-stroke" fill="none" stroke-linecap="round" stroke-linejoin="round" stroke-miterlimit="4" stroke="#f4f4f4" stroke-width="2" stroke-dasharray="5.0, 7.0"><g><path d="M 28 10L 28 22L 28 34L 19 34L 10 34"></path></g></g></g><g id="g-root-cu_djtimy13qm0i0-stroke" data-item-order="0" transform="translate(176, 308)"><g id="cu_djtimy13qm0i0-stroke" fill="none" stroke-linecap="round" stroke-linejoin="round" stroke-miterlimit="4" stroke="#f4f4f4" stroke-width="2" stroke-dasharray="5.0, 7.0"><g><path d="M 28 10L 28 40L 28 70L 19 70L 10 70"></path></g></g></g><g id="g-root-cu_8d09m13qm22y-stroke" data-item-order="0" transform="translate(176, 308)"><g id="cu_8d09m13qm22y-stroke" fill="none" stroke-linecap="round" stroke-linejoin="round" stroke-miterlimit="4" stroke="#f4f4f4" stroke-width="2" stroke-dasharray="5.0, 7.0"><g><path d="M 28 10L 28 22L 28 94C 28.000002 100.627415 22.627419 105.999998 16.000002 105.999998L 15.9 106L 10 106"></path></g></g></g><g id="g-root-tx_list_1d1qzdm13qknb4-stroke" data-item-order="0" transform="translate(530, 302)"></g><g id="g-root-ro_18lxe3e13qc7i8-stroke" data-item-order="0" transform="translate(266, 347)"><g id="ro_18lxe3e13qc7i8-stroke" fill="none" stroke-linecap="round" stroke-linejoin="round" stroke-miterlimit="4" stroke="#f4f4f4" stroke-width="2"><g><path d="M 34 10L 154 10C 154 10 178 10 178 34L 178 136C 178 136 178 160 154 160L 34 160C 34 160 10 160 10 136L 10 34C 10 34 10 10 34 10"></path></g></g></g><g id="g-root-tx_tuple_qv9xui13qkmix-stroke" data-item-order="0" transform="translate(530, 338)"></g><g id="g-root-tx_float_qteil613qknil-stroke" data-item-order="0" transform="translate(122, 356)"></g><g id="g-root-tx_range_djtfh613qko3u-stroke" data-item-order="0" transform="translate(530, 374)"></g><g id="g-root-tx_complex_92qz6i13qkmpy-stroke" data-item-order="0" transform="translate(86, 392)"></g><g id="g-root-tx_str_1useisa13qko3r-stroke" data-item-order="0" transform="translate(214, 680)"></g><g id="g-root-cu_1hgy3kq13qm1am-stroke" data-item-order="0" transform="translate(218, 447)"><g id="cu_1hgy3kq13qm1am-stroke" fill="none" stroke-linecap="round" stroke-linejoin="round" stroke-miterlimit="4" stroke="#f4f4f4" stroke-width="2" stroke-dasharray="5.0, 7.0"><g><path d="M 58 10L 55 10L 54.9 10C 43.357248 10.000001 33.999999 19.357249 33.999999 30.9L 34 31L 34 33.1C 34.000002 44.642753 24.642753 54.000003 13.100001 54.000003L 13 54L 10 54"></path></g></g></g><g id="g-root-cu_18lb3bu13qm2v8-stroke" data-item-order="0" transform="translate(434, 447)"><g id="cu_18lb3bu13qm2v8-stroke" fill="none" stroke-linecap="round" stroke-linejoin="round" stroke-miterlimit="4" stroke="#f4f4f4" stroke-width="2" stroke-dasharray="5.0, 7.0"><g><path d="M 10 10L 13 10L 13.1 10C 17.015943 9.997798 21.265956 11.207151 25.400001 13.5C 27.874528 14.874798 30.964908 18.288591 33.999998 23C 37.035089 27.711409 40.125469 31.125202 42.599998 32.5C 46.734045 34.79285 50.984058 36.002203 54.900002 36.000001L 55 36L 58 36"></path></g></g></g><g id="g-root-ro_143m2sa13qc93b-stroke" data-item-order="0" transform="translate(482, 446)"><g id="ro_143m2sa13qc93b-stroke" fill="none" stroke-linecap="round" stroke-linejoin="round" stroke-miterlimit="4" stroke="#a6da37" stroke-width="2"><g><path d="M 22 10L 178 10C 178 10 190 10 190 22L 190 52C 190 52 190 64 178 64L 22 64C 22 64 10 64 10 52L 10 22C 10 22 10 10 22 10"></path></g></g></g><g id="g-root-ro_1uljdzu13qkn4c-stroke" data-item-order="0" transform="translate(62, 464)"><g id="ro_1uljdzu13qkn4c-stroke" fill="none" stroke-linecap="round" stroke-linejoin="round" stroke-miterlimit="4" stroke="#4f91fc" stroke-width="2"><g><path d="M 22 10L 154 10C 154 10 166 10 166 22L 166 52C 166 52 166 64 154 64L 22 64C 22 64 10 64 10 52L 10 22C 10 22 10 10 22 10"></path></g></g></g><g id="g-root-cu_1utnk4a13qm2o4-stroke" data-item-order="0" transform="translate(256, 668)"><g id="cu_1utnk4a13qm2o4-stroke" fill="none" stroke-linecap="round" stroke-linejoin="round" stroke-miterlimit="4" stroke="#f4f4f4" stroke-width="2" stroke-dasharray="5.0, 7.0"><g><path d="M 28 10L 28 13L 28 22C 27.999999 28.627417 22.627416 34 15.999999 34L 15.9 34L 10 34"></path></g></g></g><g id="g-root-tx_dict_vcce5613qknwt-stroke" data-item-order="0" transform="translate(450, 698)"></g><g id="g-root-cu_1urs4uy13qm2vc-stroke" data-item-order="0" transform="translate(298, 497)"><g id="cu_1urs4uy13qm2vc-stroke" fill="none" stroke-linecap="round" stroke-linejoin="round" stroke-miterlimit="4" stroke="#f4f4f4" stroke-width="2" stroke-dasharray="5.0, 7.0"><g><path d="M 34 10L 34 28L 34 133.1C 33.999997 144.642756 24.642747 154.000005 13.099996 154.000004L 13 154L 10 154"></path></g></g></g><g id="g-root-cu_1d14lga13qm22x-stroke" data-item-order="0" transform="translate(378, 497)"><g id="cu_1d14lga13qm22x-stroke" fill="none" stroke-linecap="round" stroke-linejoin="round" stroke-miterlimit="4" stroke="#f4f4f4" stroke-width="2" stroke-dasharray="5.0, 7.0"><g><path d="M 10 10L 10 30.3L 10 151.1C 10 162.642752 19.357249 172.000001 30.9 172.000001L 31 172L 34 172"></path></g></g></g><g id="g-root-cu_1hapcpm13qneoe-stroke" data-item-order="0" transform="translate(506, 500)"><g id="cu_1hapcpm13qneoe-stroke" fill="none" stroke-linecap="round" stroke-linejoin="round" stroke-miterlimit="4" stroke="#f4f4f4" stroke-width="2" stroke-dasharray="5.0, 7.0"><g><path d="M 10 10L 10 22L 10 34L 19 34L 28 34"></path></g></g></g><g id="g-root-cu_1cuvul613qnfgp-stroke" data-item-order="0" transform="translate(506, 500)"><g id="cu_1cuvul613qnfgp-stroke" fill="none" stroke-linecap="round" stroke-linejoin="round" stroke-miterlimit="4" stroke="#f4f4f4" stroke-width="2" stroke-dasharray="5.0, 7.0"><g><path d="M 10 10L 10 40L 10 70L 19 70L 28 70"></path></g></g></g><g id="g-root-cu_zjfc7u13qnh1n-stroke" data-item-order="0" transform="translate(506, 500)"><g id="cu_zjfc7u13qnh1n-stroke" fill="none" stroke-linecap="round" stroke-linejoin="round" stroke-miterlimit="4" stroke="#f4f4f4" stroke-width="2" stroke-dasharray="5.0, 7.0"><g><path d="M 10 10L 10 22L 10 94C 10.000004 100.627423 15.372587 106.000006 22.000005 106.000005L 22.1 106L 28 106"></path></g></g></g><g id="g-root-tx_set_1uu9y1m13qkn43-stroke" data-item-order="0" transform="translate(134, 530)"></g><g id="g-root-cu_mgph2213qm1vq-stroke" data-item-order="0" transform="translate(176, 518)"><g id="cu_mgph2213qm1vq-stroke" fill="none" stroke-linecap="round" stroke-linejoin="round" stroke-miterlimit="4" stroke="#f4f4f4" stroke-width="2" stroke-dasharray="5.0, 7.0"><g><path d="M 28 10L 28 22L 28 34L 19 34L 10 34"></path></g></g></g><g id="g-root-cu_8vvue213qnevd-stroke" data-item-order="0" transform="translate(176, 518)"><g id="cu_8vvue213qnevd-stroke" fill="none" stroke-linecap="round" stroke-linejoin="round" stroke-miterlimit="4" stroke="#f4f4f4" stroke-width="2" stroke-dasharray="5.0, 7.0"><g><path d="M 28 10L 28 17.5L 28 58C 27.999999 64.627415 22.627416 69.999998 16 69.999998L 15.9 70L 10 70"></path></g></g></g><g id="g-root-tx_bytes_dbp9cq13qm1om-stroke" data-item-order="0" transform="translate(530, 512)"></g><g id="g-root-tx_bytearra_v82i13qm03r-stroke" data-item-order="0" transform="translate(530, 548)"></g><g id="g-root-tx_frozense_1hjfwre13qklj8-stroke" data-item-order="0" transform="translate(74, 566)"></g><g id="g-root-ic_boar_4l21sq13qkohu-stroke" data-item-order="1000000000" transform="translate(414, 134)"><g id="ic_boar_4l21sq13qkohu-stroke" fill="none" stroke-linecap="round" stroke-linejoin="round" stroke-miterlimit="4" stroke="#1ac3fb" stroke-width="2"><g><path d="M 11.93125 10.95125L 22.549999 10.95125C 23.271421 10.95125 23.856249 11.536078 23.856249 12.2575L 23.856251 17.48625L 23.856251 17.48625L 10.625 17.48625L 10.625 17.48625L 10.625 12.25875C 10.62431 11.536839 11.209339 10.95125 11.93125 10.95125ZM 10.625 21.4925L 23.856251 21.4925L 23.856251 33.25375L 10.625 33.25375ZM 19.446251 14.3825C 19.446213 14.653146 19.665604 14.872567 19.936251 14.872567C 20.206896 14.872567 20.426287 14.653146 20.42625 14.3825C 20.426287 14.111854 20.206896 13.892432 19.936251 13.892432C 19.665604 13.892432 19.446213 14.111854 19.446249 14.3825M 14.055 25.4125L 20.59 25.4125M 17.97625 29.3325L 20.59 29.3325M 29.57375 10.95125L 38.07375 10.95125C 38.793705 10.954005 39.375694 11.538789 39.374996 12.25875L 39.375 17.48625L 39.375 17.48625L 28.2675 17.48625L 28.2675 17.48625L 28.2675 12.25875C 28.266808 11.536839 28.851837 10.95125 29.57375 10.95125ZM 28.2675 21.4925L 39.375 21.4925L 39.375 29.33375L 28.2675 29.33375ZM 34.965 14.3825C 34.964962 14.653146 35.184353 14.872567 35.454998 14.872567C 35.725647 14.872567 35.945038 14.653146 35.945 14.3825C 35.945038 14.111854 35.725647 13.892432 35.454998 13.892432C 35.184353 13.892432 34.964962 14.111854 34.965 14.3825M 31.533749 25.4125L 36.107498 25.4125M 28.2675 33.25375L 39.375 33.25375L 39.375 39.048752L 28.2675 39.048752ZM 14.01875 28.6875C 14.01875 28.946384 14.228617 29.15625 14.4875 29.15625C 14.746384 29.15625 14.95625 28.946384 14.95625 28.6875C 14.95625 28.428616 14.746384 28.21875 14.4875 28.21875C 14.228617 28.21875 14.01875 28.428616 14.01875 28.6875"></path></g></g></g><g id="g-root-tx_userdefi_mcc2ai13qkm4p-stroke" data-item-order="1000000000" transform="translate(450, 137)"></g><g id="g-root-tx_nonetype_1uqj6oq13qm0p6-stroke" data-item-order="1000000000" transform="translate(142, 155)"></g><g id="g-root-ic_nobe_1cz966y13qm32b-stroke" data-item-order="1000000000" transform="translate(256, 152)"><g id="ic_nobe_1cz966y13qm32b-stroke" fill="none" stroke-linecap="round" stroke-linejoin="round" stroke-miterlimit="4" stroke="#f366bb" stroke-width="2"><g><path d="M 11.875 10.625L 38.125 10.625C 38.125 10.625 39.375 10.625 39.375 11.875L 39.375 38.125C 39.375 38.125 39.375 39.375 38.125 39.375L 11.875 39.375C 11.875 39.375 10.625 39.375 10.625 38.125L 10.625 11.875C 10.625 11.875 10.625 10.625 11.875 10.625M 18.75 33.75L 31.25 33.75M 18.4375 30.625L 18.4375 19.375L 24.0625 30.625L 24.0625 19.375M 27.200001 26.45875L 27.200001 28.54125C 27.181471 29.297646 27.574409 30.00465 28.226553 30.388296C 28.878696 30.771942 29.687555 30.771942 30.339699 30.388296C 30.99184 30.00465 31.384781 29.297646 31.366251 28.541252L 31.366251 26.45875C 31.384781 25.702358 30.99184 24.995354 30.339699 24.611706C 29.687555 24.22806 28.878696 24.22806 28.226553 24.611706C 27.574409 24.995354 27.181471 25.702358 27.200001 26.458752Z"></path></g></g></g><g id="g-root-ic_word_1lse3ru13qoveo-stroke" data-item-order="1000000000" transform="translate(494, 248)"><g id="ic_word_1lse3ru13qoveo-stroke" fill="none" stroke-linecap="round" stroke-linejoin="round" stroke-miterlimit="4" stroke="#ffe711" stroke-width="2"><g><path d="M 18.125 32.5L 18.125 36.25C 18.125 36.940353 18.684645 37.5 19.375 37.5L 38.125 37.5C 38.815353 37.5 39.375 36.940353 39.375 36.25L 39.375 13.75C 39.375 13.059644 38.815353 12.5 38.125 12.5L 19.375 12.5C 18.684645 12.5 18.125 13.059644 18.125 13.75L 18.125 17.5M 25.625 25L 39.375 25M 25.625 18.75L 39.375 18.75M 25.625 31.25L 39.375 31.25M 11.875 17.5L 24.375 17.5C 24.375 17.5 25.625 17.5 25.625 18.75L 25.625 31.25C 25.625 31.25 25.625 32.5 24.375 32.5L 11.875 32.5C 11.875 32.5 10.625 32.5 10.625 31.25L 10.625 18.75C 10.625 18.75 10.625 17.5 11.875 17.5M 13.75 21.25L 15.625 28.75L 18.125 21.25L 20.625 28.75L 22.5 21.25"></path></g></g></g><g id="g-root-tx_numerict_1hdtmze13qrmko-stroke" data-item-order="1000000000" transform="translate(26, 269)"></g><g id="g-root-ic_scri_zmjmhm13qroxt-stroke" data-item-order="1000000000" transform="translate(176, 266)"><g id="ic_scri_zmjmhm13qroxt-stroke" fill="none" stroke-linecap="round" stroke-linejoin="round" stroke-miterlimit="4" stroke="#43dd93" stroke-width="2"><g><path d="M 11.875 10.625L 38.125 10.625C 38.125 10.625 39.375 10.625 39.375 11.875L 39.375 38.125C 39.375 38.125 39.375 39.375 38.125 39.375L 11.875 39.375C 11.875 39.375 10.625 39.375 10.625 38.125L 10.625 11.875C 10.625 11.875 10.625 10.625 11.875 10.625M 29.375 32.5C 29.375 34.225891 30.774109 35.625 32.5 35.625C 34.225891 35.625 35.625 34.225891 35.625 32.5C 35.625 30.775002 34.375 30 32.5 29.375C 30.625 28.75 29.375 27.975 29.375 26.25C 29.375 24.524111 30.774109 23.125 32.5 23.125C 34.225891 23.125 35.625 24.524111 35.625 26.25M 18.75 23.125L 26.25 23.125M 22.5 23.125L 22.5 35.625"></path></g></g></g><g id="g-root-tx_sequence_8xr3bu13qovm7-stroke" data-item-order="1000000000" transform="translate(530, 251)"></g><g id="g-root-ic_byte_1hgxx9613qc93j-stroke" data-item-order="1000000000" transform="translate(326, 371)"><g id="ic_byte_1hgxx9613qc93j-stroke" fill="none" stroke-linecap="round" stroke-linejoin="round" stroke-miterlimit="4" stroke="#f4f4f4" stroke-width="2"><g><path d="M 13 11L 38 11C 38 11 40 11 40 13L 40 38C 40 38 40 40 38 40L 13 40C 13 40 11 40 11 38L 11 13C 11 13 11 11 13 11M 23 40C 23 49.38884 30.61116 57 40 57C 49.38884 57 57 49.38884 57 40C 57 30.61116 49.38884 23 40 23C 30.61116 23 23 30.61116 23 40"></path></g></g></g><g id="g-root-tx_pythonda_92qw0q13qc64u-stroke" data-item-order="1000000000" transform="translate(290, 425)"></g><g id="g-root-ic_refr_1hf2l5m13qc7ie-stroke" data-item-order="1000000000" transform="translate(494, 458)"><g id="ic_refr_1hf2l5m13qc7ie-stroke" fill="none" stroke-linecap="round" stroke-linejoin="round" stroke-miterlimit="4" stroke="#a6da37" stroke-width="2"><g><path d="M 35.02 31.872499L 39.395 31.872499L 39.395 27.497499M 31.891251 39.375C 28.17499 39.377178 25.129671 36.425785 25.015467 32.711281C 24.90126 28.996773 27.759516 25.863869 31.468889 25.637741C 35.178265 25.411613 38.395908 28.174129 38.733753 31.875M 39.395 27.497499L 39.395 31.872499L 35.02 31.872499M 23.145 39.375L 11.895 39.375C 11.204644 39.375 10.645 38.815353 10.645 38.125L 10.645 11.875C 10.645 11.184644 11.204644 10.625 11.895 10.625L 28.51125 10.625C 28.844006 10.627385 29.162075 10.762351 29.395 11L 34.028748 15.625C 34.263187 15.859366 34.394928 16.177258 34.395 16.508749L 34.395 21.875M 14.395 16.880001L 14.395 21.879999M 25.645 16.880001L 25.645 21.879999M 21.895 25.629999L 21.895 30.629999M 29.395 16.880001L 29.395 21.879999M 20.02 16.875C 21.055534 16.875 21.895 17.714466 21.895 18.75L 21.895 20C 21.895 21.035534 21.055534 21.875 20.02 21.875C 18.984467 21.875 18.145 21.035534 18.145 20L 18.145 18.75C 18.145 17.714466 18.984467 16.875 20.02 16.875ZM 16.27 25.625C 17.305534 25.625 18.145 26.464466 18.145 27.5L 18.145 28.75C 18.145 29.785534 17.305534 30.625 16.27 30.625C 15.234467 30.625 14.395 29.785534 14.395 28.75L 14.395 27.5C 14.395 26.464466 15.234467 25.625 16.27 25.625Z"></path></g></g></g><g id="g-root-tx_settypes_vcchay13qj7ya-stroke" data-item-order="1000000000" transform="translate(74, 479)"></g><g id="g-root-ic_unit_8vvue213qklqj-stroke" data-item-order="1000000000" transform="translate(176, 476)"><g id="ic_unit_8vvue213qklqj-stroke" fill="none" stroke-linecap="round" stroke-linejoin="round" stroke-miterlimit="4" stroke="#4f91fc" stroke-width="2"><g><path d="M 28.504999 25L 10.625 25M 19.442499 32.5L 10.625 25L 19.442499 17.5M 28.504999 25L 36.942501 39.375M 39.375 28.598749L 36.942501 39.375L 26.385 36.098751M 28.504999 25L 36.942501 10.625M 26.385 13.90125L 36.942501 10.625L 39.375 21.401251"></path></g></g></g><g id="g-root-tx_binaryty_4m2l613qc8i5-stroke" data-item-order="1000000000" transform="translate(530, 461)"></g><g id="g-root-tx_texttype_5v3x613qc83t-stroke" data-item-order="1000000000" transform="translate(154, 629)"></g><g id="g-root-ic_1_1hgbmhm13qc742-stroke" data-item-order="1000000000" transform="translate(256, 626)"><g id="ic_1_1hgbmhm13qc742-stroke" fill="none" stroke-linecap="round" stroke-linejoin="round" stroke-miterlimit="4" stroke="#cb68f9" stroke-width="2"><g><path d="M 34.388748 25.625L 34.388748 18.091249C 34.387367 13.96735 31.0439 10.625 26.919998 10.625L 11.88875 10.625C 11.198394 10.625 10.63875 11.184644 10.63875 11.875L 10.63875 38.125C 10.63875 38.815353 11.198394 39.375 11.88875 39.375L 16.86125 39.375M 28.13875 10.72375L 28.13875 15.625C 28.13875 16.315355 28.698395 16.875 29.38875 16.875L 34.28875 16.875M 19.36125 29.373749L 24.36125 29.373749M 21.86125 29.373749L 21.86125 39.373749M 34.361252 29.373749L 39.361252 29.373749M 36.861252 29.373749L 36.861252 39.373749M 26.86125 39.373749L 31.86125 29.373749M 31.86125 39.373749L 26.86125 29.373749"></path></g></g></g><g id="g-root-ic_1_dl2ahm13quigy-stroke" data-item-order="1000000000" transform="translate(414, 644)"><g id="ic_1_dl2ahm13quigy-stroke" fill="none" stroke-linecap="round" stroke-linejoin="round" stroke-miterlimit="4" stroke="#fb6762" stroke-width="2"><g><path d="M 34.375 25.625L 34.375 18.091249C 34.373619 13.96735 31.030149 10.625 26.90625 10.625L 11.875 10.625C 11.184644 10.625 10.625 11.184644 10.625 11.875L 10.625 38.125C 10.625 38.815353 11.184644 39.375 11.875 39.375L 15.625 39.375M 28.125 10.72375L 28.125 15.625C 28.125 16.315355 28.684643 16.875 29.375 16.875L 34.275002 16.875M 24.375 29.373749L 19.375 34.373749L 24.375 39.373749M 19.375 39.373749L 19.375 29.373749M 31.875 39.375L 28.75 39.375C 27.714466 39.375 26.875 38.535534 26.875 37.5L 26.875 31.25C 26.875 30.214466 27.714466 29.375 28.75 29.375L 31.875 29.375M 26.875 34.373749L 30 34.373749M 39.375 29.375L 39.375 31.875C 39.375 33.255714 38.255714 34.375 36.875 34.375C 35.494286 34.375 34.375 33.255714 34.375 31.875L 34.375 29.375M 36.875 34.373749L 36.875 39.373749"></path></g></g></g><g id="g-root-tx_mappingt_vccaze13qug3t-stroke" data-item-order="1000000000" transform="translate(450, 647)"></g></g></g><path id="w143ms2yzkuxhe" d="M65.283 12.757a.35.35 0 0 0 .584.157l5.203-5.141-6.183 3.523.396 1.461zm-2.216-11.7a.35.35 0 0 0-.522.305v3.111l3.276-1.868-2.754-1.548zm3.728 2.105l-4.25 2.421v2.445l6.391-3.644-2.141-1.222zm4.708 3.303a.35.35 0 0 0 0-.609l-1.592-.9-7.365 4.199v1.782a.35.35 0 0 0 .523.305l8.435-4.777z M44.542 2.513c0-.433.355-.783.792-.783s.792.35.792.783-.355.783-.792.783-.792-.35-.792-.783zm59.171 0c0-.433.355-.783.792-.783s.792.35.792.783-.355.783-.792.783-.792-.35-.792-.783zm-85.951 7.636h-1.27v-.487c-.276.201-.864.609-1.881.609-1.202 0-2.274-.794-2.137-2.078.118-1.106 1.153-1.584 1.848-1.727l2.17-.345c0-.539-.29-.956-1.064-1.006s-1.21.305-1.571 1.017l-1.124-.605c1.218-2.631 5.029-1.764 5.029.414v4.207zm-1.27-2.86c.006.396-.062 1.112-.819 1.59-.587.37-1.841.299-1.903-.395-.049-.555.461-.791.906-.898l1.816-.297zm72.662 2.86h-1.27v-.487c-.276.201-.864.609-1.881.609-1.202 0-2.274-.794-2.137-2.078.118-1.106 1.153-1.584 1.848-1.727l2.17-.345c0-.539-.29-.956-1.064-1.006s-1.21.305-1.571 1.017l-1.124-.605c1.218-2.631 5.029-1.764 5.029.414v4.207zm-1.27-2.86c.006.396-.062 1.112-.82 1.59-.587.37-1.841.299-1.903-.395-.049-.555.461-.791.906-.898l1.816-.297zM99.096 10.149H97.85v-8.45h1.246v4.895l2.68-2.559h1.738l-2.633 2.535 2.715 3.578h-1.556l-2.077-2.707-.867.844v1.863zm6.053-6.114h-1.255v6.113h1.255V4.035zm-59.2 0h-1.255v6.113h1.255V4.035zm5.584 6.113V1.697h1.255v2.695c.361-.346 1-.485 1.47-.485 1.452 0 2.477 1.082 2.457 2.448v3.792h-1.27v-3.68c0-.408-.214-1.339-1.315-1.339-.968 0-1.342.756-1.342 1.339v3.681h-1.255zm-4.76-4.894V4.039h.621a.45.45 0 0 0 .45-.45v-.855h1.251v1.305h1.309v1.215h-1.309v3.109c0 .293.105.664.648.664.365 0 .531-.035.736-.07v1.137s-.361.113-.857.113c-1.398 0-1.777-1.051-1.777-1.788V5.254h-1.071zM36.528 4.039h-1.394l2.191 6.106h1.125l1.234-3.918 1.238 3.918h1.129l2.188-6.106h-1.383l-1.359 3.93-1.256-3.93h-1.124l-1.242 3.957-1.348-3.957zM26.212 7.141c-.02 1.566 1.187 3.129 3.223 3.129 1.566 0 2.383-.918 2.734-1.719L31.172 8c-.315.399-.801 1.094-1.738 1.094-1.145 0-1.825-.781-1.891-1.52h4.625c.074-.284.148-.995-.03-1.559-.336-1.064-1.221-2.102-2.839-2.102s-3.088 1.152-3.088 3.227zm1.363-.75h3.348c-.055-.43-.566-1.301-1.623-1.301a1.79 1.79 0 0 0-1.725 1.301zm-8.758.75c.038 1.758 1.277 3.133 3.145 3.133 1.074 0 1.723-.477 1.961-.672v.547h1.242V1.703h-1.258v2.888c-.414-.36-1.062-.68-1.93-.68-1.91 0-3.198 1.473-3.16 3.23zm1.309-.08c0 1.119.723 1.978 1.836 1.978a1.88 1.88 0 0 0 1.94-1.904c0-1.371-1.011-1.99-1.972-1.99s-1.805.798-1.805 1.916zm76.683-.028C96.771 5.275 95.532 3.9 93.664 3.9c-1.074 0-1.723.477-1.961.672v-.547h-1.242v8.22h1.258V9.583c.414.36 1.063.68 1.93.68 1.91 0 3.198-1.473 3.16-3.23zm-1.309.08c0-1.119-.723-1.978-1.836-1.978a1.88 1.88 0 0 0-1.94 1.904c0 1.371 1.011 1.99 1.972 1.99S95.5 8.231 95.5 7.113zM106.441 10.173V4.036h1.254v.382c.361-.346 1-.485 1.47-.485 1.452 0 2.477 1.082 2.457 2.448v3.792h-1.27V6.492c0-.408-.214-1.339-1.315-1.339-.969 0-1.342.756-1.342 1.339v3.681h-1.254zm-30.383-.021V1.824h1.084l4.215 5.777V1.824h1.32v8.328h-1.094l-4.207-5.796v5.796h-1.319zM5.24 10.149H4V2.377h1.014l2.664 3.597 2.654-3.592h1.03v7.766h-1.256V4.762L7.678 8.068 5.24 4.742v5.407z" transform="translate(596, 756)" fill="#ababab88" stroke="none"></path></svg>