<?xml version="1.0" encoding="utf-8" standalone="yes"?>
<!DOCTYPE svg PUBLIC "-//W3C//DTD SVG 1.1//EN" "http://www.w3.org/Graphics/SVG/1.1/DTD/svg11.dtd">
<svg width="912" height="684" viewBox="0 0 912 684" style="fill:none;stroke:none;fill-rule:evenodd;clip-rule:evenodd;stroke-linecap:round;stroke-linejoin:round;stroke-miterlimit:1.5;" version="1.1" xmlns="http://www.w3.org/2000/svg" xmlns:xlink="http://www.w3.org/1999/xlink"><style class="text-font-style fontImports" data-font-family="Roboto">@import url(https://fonts.googleapis.com/css2?family=Roboto:wght@400;700&amp;amp;display=block);</style><g id="items" style="isolation: isolate"><g id="blend" style="mix-blend-mode: normal"><g id="g-root-cp_0d_g-0d_1utnn8q10yop3c-fill" data-item-order="-508022" transform="translate(493.8740234375, 342.31005859375)"><g id="cp_0d_g-0d_1utnn8q10yop3c-fill" stroke="none" fill="#545454"><g><path d="M 117.1857 97.7104C 115.2356 95.0313 111.4828 94.4403 108.8037 96.3904L 15.0174 164.6556L 36.7907 168.0846C 37.8818 168.2565 38.9057 167.5112 39.0775 166.4201L 40.7464 155.8228L 47.1528 156.8317C 48.2439 157.0036 49.2677 156.2583 49.4396 155.1672L 50.4485 148.7609L 55.2995 145.2299L 65.6571 146.8611C 66.1811 146.9436 66.7164 146.8146 67.1452 146.5025L 72.2737 142.7696C 72.7025 142.4574 72.9898 141.9877 73.0723 141.4637L 74.7035 131.1061L 82.2672 132.2973C 82.7911 132.3798 83.3264 132.2508 83.7553 131.9386L 87.2667 129.3827C 87.6956 129.0706 87.9829 128.6008 88.0654 128.0768L 88.5965 124.7042L 91.9692 125.2353C 92.4932 125.3179 93.0285 125.1888 93.4573 124.8767L 96.9688 122.3208C 97.3976 122.0086 97.6849 121.5389 97.7674 121.0149L 98.9586 113.4513L 105.3649 114.4602C 106.456 114.632 107.4799 113.8868 107.6517 112.7957L 108.6606 106.3894L 116.2243 107.5805C 116.7482 107.6631 117.2835 107.534 117.7124 107.2219L 121.8936 104.1785L 117.1857 97.7104ZM 102.9895 83.3066C 101.0394 80.6275 97.2866 80.0365 94.6075 81.9866L 12.9488 141.4244L 10.3087 158.1884L 101.6694 91.6886C 104.3485 89.7385 104.9396 85.9858 102.9895 83.3066ZM 134.4521 101.0471L 106.8539 63.1313C 104.8639 60.4942 101.1447 59.9114 98.4944 61.8405C 95.8343 63.7767 95.2513 67.5155 97.1746 70.2222L 16.7165 128.7861C 15.4299 129.7226 14.5681 131.1318 14.3205 132.7037L 10.0493 159.8253C 9.7056 162.0075 11.1961 164.0551 13.3783 164.3988L 15.0174 164.6556L 108.8037 96.3904C 111.4828 94.4403 115.2356 95.0313 117.1857 97.7104L 121.8936 104.1785L 125.9685 109.7814C 127.9418 112.4923 131.7133 113.1092 134.3924 111.1591C 138.1586 108.4178 136.7041 104.141 134.4521 101.0471ZM 101.6694 91.6886L 10.3087 158.1884L 12.9488 141.4244L 94.6075 81.9866C 97.2866 80.0365 101.0394 80.6275 102.9895 83.3066C 104.9396 85.9858 104.3485 89.7385 101.6694 91.6886ZM 149.4462 11.149C 151.1847 9.8836 153.4675 9.6452 155.4299 10.5243L 192.2466 27.0161C 194.1906 27.8869 195.5271 29.7232 195.7583 31.8407L 200.1362 71.9441C 200.3696 74.0817 199.4411 76.1807 197.7026 77.4462L 165.3248 101.0134C 163.5863 102.2788 161.3035 102.5172 159.341 101.6381L 144.8536 95.1485C 144.7545 95.1042 144.7404 94.9693 144.8282 94.9054C 147.5074 92.9553 148.0984 89.2025 146.1483 86.5234L 124.9625 57.4173C 123.0124 54.7382 119.2597 54.1472 116.5805 56.0973C 116.493 56.161 116.3692 56.1063 116.3574 55.9986L 114.6348 40.2184C 114.4014 38.0807 115.3298 35.9817 117.0684 34.7162L 149.4462 11.149ZM 185.2591 39.4513L 186.3903 49.362C 186.6612 51.7358 185.6348 54.072 183.7031 55.478C 180.7409 57.6342 176.5915 56.9808 174.4353 54.0185L 164.5887 40.4908C 162.4326 37.5285 163.086 33.3791 166.0483 31.2229C 167.98 29.8169 170.5185 29.5582 172.6942 30.5456L 181.7775 34.6681C 183.6981 35.5398 185.0199 37.3558 185.2591 39.4513Z"></path></g></g></g><g id="g-root-cp_0c_g-0c_1hi74ve10yoqoa-fill" data-item-order="-508018" transform="translate(448.757568359375, 253.75146484375)"><g id="cp_0c_g-0c_1hi74ve10yoqoa-fill" stroke="none" fill="#545454"><g><path d="M 73.4265 114.036197C 70.2756 113.010597 66.8897 114.733497 65.8641 117.884497L 29.9603 228.186697L 29.9598 228.188097L 49.6044 218.191797C 50.5888 217.690797 50.9808 216.486697 50.4798 215.502197L 45.6145 205.940997L 52.4386 202.468497C 52.9114 202.227897 53.2692 201.809397 53.4334 201.304997L 54.7777 197.175097C 54.9418 196.670797 54.8989 196.121797 54.6584 195.649097L 51.1858 188.824897L 60.5308 184.069597C 61.0035 183.829097 61.3614 183.410597 61.5256 182.906197L 63.4889 176.874497C 63.653 176.370197 63.6101 175.821197 63.3696 175.348497L 58.6143 166.003497L 64.3943 163.062297C 65.3787 162.561297 65.7707 161.357197 65.2697 160.372797L 62.3285 154.592797L 69.1527 151.120197C 69.6254 150.879697 69.9832 150.461197 70.1474 149.956797L 71.4917 145.826897C 71.6559 145.322497 71.613 144.773597 71.3724 144.300797L 67.8999 137.476697L 73.6799 134.535497C 74.6643 134.034497 75.0563 132.830397 74.5553 131.845897L 71.6141 126.065997L 78.4382 122.593397C 78.911 122.352897 79.2688 121.934397 79.433 121.429997L 81.0337 116.512397L 73.4265 114.036197ZM 53.4802 110.699097C 50.3293 109.673497 46.9434 111.396397 45.9178 114.547397L 14.6567 210.586397L 14.6563 210.587597L 22.3532 225.711297L 57.3285 118.261597C 58.3541 115.110597 56.6312 111.724797 53.4802 110.699097ZM 65.8641 117.884497C 66.8897 114.733497 70.2756 113.010597 73.4265 114.036197L 81.0337 116.512397L 87.6223 118.655797C 90.8107 119.693597 94.2269 117.980597 95.2526 114.829597C 96.2782 111.678597 94.5249 108.282897 91.3365 107.245097L 44.1539 91.934297C 41.1881 91.351697 38.1964 93.035697 37.2482 95.948997C 36.2298 99.077597 37.951 102.447397 41.0965 103.510997L 10.2946 198.139197C 9.8021 199.652397 9.9308 201.299197 10.6525 202.717497L 14.6567 210.586397L 45.9178 114.547397C 46.9434 111.396397 50.3293 109.673497 53.4802 110.699097C 56.6312 111.724797 58.3541 115.110597 57.3285 118.261597L 22.3532 225.711297L 23.1043 227.187297C 24.1062 229.156197 26.5145 229.940097 28.4834 228.938197L 29.9603 228.186697L 65.8641 117.884497ZM 50.3821 74.985297C 49.4863 77.737197 45.9454 78.342297 44.4984 75.835897C 38.494 65.435297 36.7589 52.625597 40.7687 40.306797C 48.2688 17.265197 73.0277 4.666397 96.0693 12.166497C 119.1108 19.666597 131.7097 44.425497 124.2095 67.467097C 120.1997 79.785897 111.2568 89.119797 100.2806 93.993197C 97.6355 95.167597 95.1292 92.594097 96.025 89.842197C 97.0506 86.691197 95.3277 83.305397 92.1767 82.279697L 57.9446 71.136997C 54.7936 70.111397 51.4078 71.834297 50.3821 74.985297ZM 86.8221 40.575597C 92.0738 42.284997 97.7168 39.413497 99.4263 34.161797C 101.1357 28.910197 98.2642 23.267097 93.0125 21.557697C 87.7609 19.848297 82.1178 22.719797 80.4084 27.971397C 78.699 33.223097 81.5705 38.866097 86.8221 40.575597Z"></path></g></g></g><g id="g-root-cp_0b_g-0b_147d3l610yop3g-fill" data-item-order="-508014" transform="translate(326.86199951171875, 258.64501953125)"><g id="cp_0b_g-0b_147d3l610yop3g-fill" stroke="none" fill="#545454"><g><path d="M 81.0685 103.2952C 77.9185 104.324 76.199 107.7116 77.2278 110.8615L 113.2422 221.1292L 121.2985 205.2579C 121.7985 204.2729 121.4053 203.0692 120.4204 202.5692L 114.6375 199.6338L 118.1032 192.8062C 118.3433 192.3332 118.3856 191.7842 118.2209 191.28L 116.8725 187.1515C 116.7079 186.6473 116.3496 186.2291 115.8766 185.989L 109.049 182.5233L 107.1862 176.8198L 110.6519 169.9922C 110.892 169.5192 110.9344 168.9702 110.7697 168.466L 109.4213 164.3375C 109.2566 163.8332 108.8983 163.4151 108.4254 163.175L 101.5978 159.7093L 106.4535 150.1432C 106.9535 149.1583 106.5603 147.9545 105.5754 147.4545L 96.0093 142.5988L 98.9447 136.8159C 99.4447 135.8309 99.0516 134.6272 98.0666 134.1272L 96.0668 133.1121L 98.8924 127.5456C 99.1325 127.0726 99.1749 126.5236 99.0102 126.0194L 97.0409 119.9897C 96.8762 119.4855 96.5179 119.0673 96.045 118.8272L 86.6952 114.0813L 90.161 107.2537C 90.401 106.7807 90.4434 106.2317 90.2787 105.7275L 88.6731 100.8115L 81.0685 103.2952ZM 62.9887 112.3568C 59.8387 113.3856 58.1192 116.7731 59.148 119.9231L 90.5053 215.932L 105.638 223.6134L 70.555 116.1975C 69.5262 113.0475 66.1386 111.328 62.9887 112.3568ZM 91.5337 87.2534L 91.5064 87.2623L 44.1676 102.7235L 44.2535 102.7647C 41.6066 104.0823 40.2476 107.1486 41.1823 110.0105C 42.2038 113.1381 45.5806 114.8457 48.7484 113.8508L 79.6448 208.4482C 80.1388 209.9609 81.2135 211.2153 82.6325 211.9356L 90.5053 215.932L 59.148 119.9231C 58.1192 116.7731 59.8387 113.3856 62.9887 112.3568C 66.1386 111.328 69.5262 113.0475 70.555 116.1975L 105.638 223.6134L 107.1148 224.3628C 109.0847 225.3627 111.4922 224.5764 112.4921 222.6066L 113.2422 221.1292L 77.2278 110.8615C 76.199 107.7116 77.9185 104.324 81.0685 103.2952L 88.6731 100.8115L 95.2593 98.6604C 98.4467 97.6193 100.1966 94.2219 99.1678 91.0719C 98.139 87.922 94.7211 86.2123 91.5337 87.2534ZM 10.9937 81.9988C 7.5644 71.499 13.2962 60.2071 23.796 56.7778C 25.371 56.2634 26.2308 54.5696 25.7164 52.9946L 23.2326 45.39C 18.603 31.2152 26.3409 15.9712 40.5157 11.3415C 54.6905 6.7119 69.9345 14.4498 74.5641 28.6246L 77.0479 36.2293C 77.5623 37.8043 79.2561 38.6641 80.831 38.1496C 91.3309 34.7203 102.6227 40.4521 106.0521 50.9519C 109.4814 61.4518 103.7497 72.7436 93.2498 76.173L 36.2148 94.8011C 25.7149 98.2305 14.4231 92.4987 10.9937 81.9988ZM 57.1628 30.1007C 58.8775 35.3506 56.0116 40.9966 50.7617 42.7112C 45.5117 44.4259 39.8658 41.56 38.1511 36.3101C 36.4365 31.0602 39.3024 25.4142 44.5523 23.6996C 49.8022 21.9849 55.4481 24.8508 57.1628 30.1007Z"></path></g></g></g><g id="g-root-cp_0a_g-0a_qvwl7u10yoqoe-fill" data-item-order="-508010" transform="translate(212.28997802734375, 349.93408203125)"><g id="cp_0a_g-0a_qvwl7u10yoqoe-fill" stroke="none" fill="#545454"><g><path d="M 99.856531 73.7708C 97.919031 76.459 98.527631 80.209 101.215931 82.1465L 195.321431 149.9709L 191.829131 128.4535C 191.744231 127.9299 191.454731 127.4615 191.024431 127.1514L 185.878431 123.4426C 185.448131 123.1325 184.912231 123.006 184.388731 123.091L 174.038831 124.7707L 172.812131 117.2128C 172.727231 116.6892 172.437731 116.2208 172.007431 115.9107L 168.484031 113.3712C 168.053731 113.0611 167.517831 112.9346 166.994231 113.0196L 159.436231 114.2462L 158.397331 107.8447C 158.220331 106.7544 157.193031 106.014 156.102731 106.1909L 149.701231 107.2299L 147.982531 96.6405C 147.805631 95.5502 146.778331 94.8098 145.688031 94.9868L 135.098631 96.7054L 134.059631 90.3039C 133.882731 89.2136 132.855431 88.4732 131.765131 88.6501L 125.363631 89.6891L 124.136931 82.1311C 124.051931 81.6075 123.762431 81.1392 123.332131 80.829L 119.808731 78.2896C 119.378431 77.9795 118.842531 77.853 118.318931 77.938L 110.761031 79.1646L 109.534331 71.6066C 109.449431 71.083 109.159931 70.6147 108.729631 70.3045L 104.534131 67.2807L 99.856531 73.7708ZM 90.595931 91.7491C 88.658431 94.4374 89.267031 98.1873 91.955331 100.1248L 173.890731 159.178L 173.891931 159.1789L 190.643331 156.4602L 190.642031 156.4593L 98.971631 90.3898C 96.283331 88.4523 92.533431 89.0609 90.595931 91.7491ZM 98.850231 54.6416L 70.239931 94.3386C 68.332031 97.054 68.933231 100.7878 71.601331 102.7108C 74.270431 104.6345 78.004631 104.0227 79.976631 101.3513L 160.708631 159.5371C 161.999531 160.4676 163.607231 160.847 165.178031 160.5921L 173.890731 159.178L 91.955331 100.1248C 89.267031 98.1873 88.658431 94.4374 90.595931 91.7491C 92.533431 89.0609 96.283331 88.4523 98.971631 90.3898L 190.642031 156.4593L 192.279131 156.1936C 194.459731 155.8397 195.940631 153.785 195.586731 151.6044L 195.321431 149.9709L 101.215931 82.1465C 98.527631 80.209 97.919031 76.459 99.856531 73.7708L 101.026931 72.1471L 101.026631 72.1453L 108.585231 61.6579C 110.545831 58.9377 109.955831 55.1619 107.267631 53.2244C 104.579331 51.2869 100.810731 51.9214 98.850231 54.6416ZM 28.366131 90.9478C 24.004931 91.6557 19.895731 88.694 19.187831 84.3328L 10.104531 28.3661C 9.396731 24.0049 12.358431 19.8956 16.719631 19.1878L 72.686331 10.1045C 77.047531 9.3967 81.156731 12.3584 81.864531 16.7196L 86.780931 47.0117C 87.290831 50.1531 86.534431 53.3648 84.673631 55.9467C 79.322031 63.372 72.066931 73.4383 66.469031 81.2053C 64.608131 83.7872 61.799731 85.5216 58.658231 86.0315L 28.366131 90.9478ZM 44.146031 34.0901C 48.626531 37.3193 49.640831 43.5691 46.411631 48.0496C 43.182531 52.53 36.932631 53.5443 32.452231 50.3152C 27.971731 47.086 26.957431 40.8361 30.186631 36.3557C 33.415731 31.8753 39.665631 30.8609 44.146031 34.0901Z"></path></g></g></g><g id="g-root-cp_4_g-4_i0w22210yop34-fill" data-item-order="-508006" transform="translate(587.9814453125, 331.3330078125)"><g id="cp_4_g-4_i0w22210yop34-fill" stroke="none" fill="#54502f"><g><path d="M 111.0225 39.0694C 110.561 34.8319 107.8863 31.1572 103.9957 29.4156L 62.9602 11.0473C 59.0359 9.2907 54.4717 9.7678 50.9955 12.298L 14.9382 38.5435C 11.4621 41.0737 9.6053 45.2703 10.0707 49.5445L 12.7454 74.107L 40.4501 112.1677L 62.9999 122.2614C 66.9242 124.018 71.4884 123.5409 74.9646 121.0107L 111.0219 94.7653C 114.498 92.235 116.3548 88.0384 115.8894 83.7642L 111.0225 39.0694ZM 61.3214 21.5L 98.138 37.9918C 100.082 38.8626 101.4186 40.6989 101.6497 42.8164L 106.0277 82.9198C 106.261 85.0574 105.3326 87.1565 103.5941 88.4219L 71.2163 111.9891C 69.4777 113.2545 67.1949 113.4929 65.2325 112.6138L 50.7451 106.1243C 50.646 106.0799 50.6319 105.945 50.7197 105.8811C 53.3988 103.931 53.9898 100.1783 52.0397 97.4991L 30.854 68.393C 28.9039 65.7139 25.1511 65.1229 22.472 67.073C 22.3844 67.1367 22.2606 67.082 22.2489 66.9743L 20.5262 51.1941C 20.2928 49.0564 21.2212 46.9574 22.9598 45.6919L 55.3376 22.1247C 57.0761 20.8593 59.3589 20.621 61.3214 21.5Z"></path></g></g></g><g id="g-root-cp_3_g-3_9591t610yopvu-fill" data-item-order="-508002" transform="translate(467.2314453125, 243.6220703125)"><g id="cp_3_g-3_9591t610yopvu-fill" stroke="none" fill="#4b533a"><g><path d="M 72.7048 117.3221C 91.9968 114.1608 108.8946 100.6 115.3628 80.7286C 124.5937 52.3698 109.0875 21.8973 80.7286 12.6664C 52.3698 3.4354 21.8973 18.9417 12.6664 47.3006C 6.1873 67.2052 11.8949 88.1511 25.6795 102.0626L 72.7048 117.3221ZM 31.9077 85.1135C 32.9333 81.9626 36.3192 80.2396 39.4702 81.2653L 73.7023 92.408C 76.8533 93.4337 78.5762 96.8195 77.5506 99.9705C 76.6548 102.7224 79.1611 105.2959 81.8061 104.1215C 92.7824 99.2481 101.7253 89.9142 105.7351 77.5954C 113.2352 54.5538 100.6364 29.7949 77.5948 22.2948C 54.5533 14.7947 29.7944 27.3935 22.2943 50.4351C 18.2844 62.7539 20.0196 75.5635 26.024 85.9642C 27.471 88.4706 31.0119 87.8655 31.9077 85.1135Z"></path></g></g></g><g id="g-root-cp_2_g-2_1uljh4a10yq2oc-fill" data-item-order="-507998" transform="translate(316.859375, 248.6923828125)"><g id="cp_2_g-2_1uljh4a10yq2oc-fill" stroke="none" fill="#3b5649"><g><path d="M 93.6189 37.3045L 92.8116 34.8328C 86.6388 15.9331 66.3135 5.6159 47.4137 11.7887C 28.514 17.9615 18.1968 38.2869 24.3696 57.1866L 25.1769 59.6582C 13.0231 66.5519 6.9845 81.26 11.4906 95.0565C 16.6346 110.8063 33.5724 119.404 49.3222 114.26L 106.3572 95.6318C 122.107 90.4878 130.7046 73.5501 125.5606 57.8003C 121.0546 44.0037 107.4986 35.6953 93.6189 37.3045ZM 20.9964 91.9519C 17.5671 81.452 23.2989 70.1601 33.7987 66.7308C 35.3737 66.2164 36.2335 64.5226 35.7191 62.9476L 33.2353 55.343C 28.6057 41.1682 36.3436 25.9242 50.5184 21.2946C 64.6932 16.6649 79.9372 24.4029 84.5668 38.5777L 87.0506 46.1823C 87.565 47.7573 89.2588 48.6171 90.8337 48.1027C 101.3336 44.6733 112.6254 50.4051 116.0548 60.905C 119.4841 71.4048 113.7524 82.6967 103.2525 86.126L 46.2175 104.7542C 35.7176 108.1835 24.4258 102.4517 20.9964 91.9519Z"></path></g></g></g><g id="g-root-cp_1_g-1_1q5pyzu10yq3gm-fill" data-item-order="-507994" transform="translate(200.7138671875, 338.4658203125)"><g id="cp_1_g-1_1q5pyzu10yq3gm-fill" stroke="none" fill="#344e57"><g><path d="M 20.0794 21.2652C 13.5376 22.327 9.0951 28.4909 10.1568 35.0327L 21.2652 103.4773C 22.327 110.0191 28.4909 114.4616 35.0327 113.3998L 81.8162 105.807L 109.8842 66.8623L 102.2914 20.0794C 101.2297 13.5376 95.0658 9.0951 88.524 10.1568L 20.0794 21.2652ZM 30.7641 95.8011L 21.6808 39.8345C 20.973 35.4733 23.9347 31.364 28.2959 30.6562L 84.2625 21.5729C 88.6238 20.8651 92.733 23.8267 93.4408 28.1879L 98.3572 58.48C 98.867 61.6215 98.1105 64.8335 96.2496 67.4154C 91.0948 74.5677 83.1817 85.547 78.045 92.674C 76.1842 95.2559 73.376 96.99 70.2345 97.4998L 39.9424 102.4162C 35.5812 103.124 31.4719 100.1623 30.7641 95.8011Z"></path></g></g></g><g id="g-root-tx_foundati_18f2fl610yq2o0-fill" data-item-order="0" transform="translate(254, 38)"><g id="tx_foundati_18f2fl610yq2o0-fill" stroke="none" fill="#f4f4f4"><g><text style="font: bold 25px Roboto, sans-serif; white-space: pre;" font-weight="bold" font-size="25px" font-family="Roboto, sans-serif"><tspan x="16.6" y="43" dominant-baseline="ideographic">Foundations of Python Functions</tspan></text></g></g></g><g id="g-root-tx_paramete_8z0ay210yq2h1-fill" data-item-order="0" transform="translate(230, 98)"><g id="tx_paramete_8z0ay210yq2h1-fill" stroke="none" fill="#43dd93"><g><text style="font: 20px Roboto, sans-serif; white-space: pre;" font-size="20px" font-family="Roboto, sans-serif"><tspan x="22.78" y="34" dominant-baseline="ideographic">Parameters and </tspan><tspan x="105.67" y="58" dominant-baseline="ideographic">Return</tspan></text></g></g></g><g id="g-root-tx_defaulta_1cw4vvu10yq41v-fill" data-item-order="0" transform="translate(506.5269775390625, 98)"><g id="tx_defaulta_1cw4vvu10yq41v-fill" stroke="none" fill="#a6da37"><g><text style="font: 20px Roboto, sans-serif; white-space: pre;" font-size="20px" font-family="Roboto, sans-serif"><tspan x="12" y="34" dominant-baseline="ideographic">Default </tspan><tspan x="12" y="58" dominant-baseline="ideographic">Arguments</tspan></text></g></g></g><g id="g-root-tx_theinput_1lt0uay10yq4ni-fill" data-item-order="0" transform="translate(218, 158)"><g id="tx_theinput_1lt0uay10yq4ni-fill" stroke="none" fill="#f4f4f4"><g><text style="font: 15px Roboto, sans-serif; white-space: pre;" font-size="15px" font-family="Roboto, sans-serif"><tspan x="22.42" y="31" dominant-baseline="ideographic">The inputs and outputs </tspan><tspan x="32.25" y="49" dominant-baseline="ideographic">of functions, enabling </tspan><tspan x="111.19" y="67" dominant-baseline="ideographic">data flow.</tspan></text></g></g></g><g id="g-root-tx_predefin_zlaulm10yq2h0-fill" data-item-order="0" transform="translate(506.5269775390625, 158)"><g id="tx_predefin_zlaulm10yq2h0-fill" stroke="none" fill="#f4f4f4"><g><text style="font: 15px Roboto, sans-serif; white-space: pre;" font-size="15px" font-family="Roboto, sans-serif"><tspan x="12" y="31" dominant-baseline="ideographic">Predefined values for </tspan><tspan x="12" y="49" dominant-baseline="ideographic">function parameters, </tspan><tspan x="12" y="67" dominant-baseline="ideographic">enhancing flexibility.</tspan></text></g></g></g><g id="g-root-tx_variable_m7ywyy10yq51l-fill" data-item-order="0" transform="translate(710, 278)"><g id="tx_variable_m7ywyy10yq51l-fill" stroke="none" fill="#ffe711"><g><text style="font: 20px Roboto, sans-serif; white-space: pre;" font-size="20px" font-family="Roboto, sans-serif"><tspan x="12" y="34" dominant-baseline="ideographic">Variable </tspan><tspan x="12" y="58" dominant-baseline="ideographic">Arguments</tspan></text></g></g></g><g id="g-root-tx_function_142dawa10yq3uv-fill" data-item-order="0" transform="translate(26, 302)"><g id="tx_function_142dawa10yq3uv-fill" stroke="none" fill="#1ac3fb"><g><text style="font: 20px Roboto, sans-serif; white-space: pre;" font-size="20px" font-family="Roboto, sans-serif"><tspan x="22.06" y="34" dominant-baseline="ideographic">Function Syntax</tspan></text></g></g></g><g id="g-root-tx_thebasic_mbprhm10yq328-fill" data-item-order="0" transform="translate(14, 338)"><g id="tx_thebasic_mbprhm10yq328-fill" stroke="none" fill="#f4f4f4"><g><text style="font: 15px Roboto, sans-serif; white-space: pre;" font-size="15px" font-family="Roboto, sans-serif"><tspan x="19.02" y="31" dominant-baseline="ideographic">The basic structure and </tspan><tspan x="63.64" y="49" dominant-baseline="ideographic">rules for defining </tspan><tspan x="43.23" y="67" dominant-baseline="ideographic">functions in Python.</tspan></text></g></g></g><g id="g-root-tx_advanced_4hbdka10yq48y-fill" data-item-order="0" transform="translate(710, 338)"><g id="tx_advanced_4hbdka10yq48y-fill" stroke="none" fill="#f4f4f4"><g><text style="font: 15px Roboto, sans-serif; white-space: pre;" font-size="15px" font-family="Roboto, sans-serif"><tspan x="12" y="31" dominant-baseline="ideographic">Advanced techniques </tspan><tspan x="12" y="49" dominant-baseline="ideographic">for handling variable </tspan><tspan x="12" y="67" dominant-baseline="ideographic">numbers of arguments.</tspan></text></g></g></g><g id="g-root-ic_code_58pyi10yq2a1-fill" data-item-order="0" transform="translate(410, 494)"></g><g id="g-root-tx_pythonfu_18i75nu10yj402-fill" data-item-order="0" transform="translate(362, 578)"><g id="tx_pythonfu_18i75nu10yj402-fill" stroke="none" fill="#f4f4f4"><g><text style="font: 20px Roboto, sans-serif; white-space: pre;" font-size="20px" font-family="Roboto, sans-serif"><tspan x="16.62" y="34" dominant-baseline="ideographic">Python Functions</tspan></text></g></g></g><g id="g-root-cp_0d_g-0d_1utnn8q10yop3c-stroke" data-item-order="-508022" transform="translate(493.8740234375, 342.31005859375)"><g id="cp_0d_g-0d_1utnn8q10yop3c-stroke" fill="none" stroke-linecap="round" stroke-linejoin="round" stroke-miterlimit="4" stroke="#ababab" stroke-width="2"><g><path d="M 117.1857 97.7104C 115.2356 95.0313 111.4828 94.4403 108.8037 96.3904L 15.0174 164.6556L 36.7907 168.0846C 37.8818 168.2565 38.9057 167.5112 39.0775 166.4201L 40.7464 155.8228L 47.1528 156.8317C 48.2439 157.0036 49.2677 156.2583 49.4396 155.1672L 50.4485 148.7609L 55.2995 145.2299L 65.6571 146.8611C 66.1811 146.9436 66.7164 146.8146 67.1452 146.5025L 72.2737 142.7696C 72.7025 142.4574 72.9898 141.9877 73.0723 141.4637L 74.7035 131.1061L 82.2672 132.2973C 82.7911 132.3798 83.3264 132.2508 83.7553 131.9386L 87.2667 129.3827C 87.6956 129.0706 87.9829 128.6008 88.0654 128.0768L 88.5965 124.7042L 91.9692 125.2353C 92.4932 125.3179 93.0285 125.1888 93.4573 124.8767L 96.9688 122.3208C 97.3976 122.0086 97.6849 121.5389 97.7674 121.0149L 98.9586 113.4513L 105.3649 114.4602C 106.456 114.632 107.4799 113.8868 107.6517 112.7957L 108.6606 106.3894L 116.2243 107.5805C 116.7482 107.6631 117.2835 107.534 117.7124 107.2219L 121.8936 104.1785L 117.1857 97.7104ZM 102.9895 83.3066C 101.0394 80.6275 97.2866 80.0365 94.6075 81.9866L 12.9488 141.4244L 10.3087 158.1884L 101.6694 91.6886C 104.3485 89.7385 104.9396 85.9858 102.9895 83.3066ZM 134.4521 101.0471L 106.8539 63.1313C 104.8639 60.4942 101.1447 59.9114 98.4944 61.8405C 95.8343 63.7767 95.2513 67.5155 97.1746 70.2222L 16.7165 128.7861C 15.4299 129.7226 14.5681 131.1318 14.3205 132.7037L 10.0493 159.8253C 9.7056 162.0075 11.1961 164.0551 13.3783 164.3988L 15.0174 164.6556L 108.8037 96.3904C 111.4828 94.4403 115.2356 95.0313 117.1857 97.7104L 121.8936 104.1785L 125.9685 109.7814C 127.9418 112.4923 131.7133 113.1092 134.3924 111.1591C 138.1586 108.4178 136.7041 104.141 134.4521 101.0471ZM 101.6694 91.6886L 10.3087 158.1884L 12.9488 141.4244L 94.6075 81.9866C 97.2866 80.0365 101.0394 80.6275 102.9895 83.3066C 104.9396 85.9858 104.3485 89.7385 101.6694 91.6886ZM 149.4462 11.149C 151.1847 9.8836 153.4675 9.6452 155.4299 10.5243L 192.2466 27.0161C 194.1906 27.8869 195.5271 29.7232 195.7583 31.8407L 200.1362 71.9441C 200.3696 74.0817 199.4411 76.1807 197.7026 77.4462L 165.3248 101.0134C 163.5863 102.2788 161.3035 102.5172 159.341 101.6381L 144.8536 95.1485C 144.7545 95.1042 144.7404 94.9693 144.8282 94.9054C 147.5074 92.9553 148.0984 89.2025 146.1483 86.5234L 124.9625 57.4173C 123.0124 54.7382 119.2597 54.1472 116.5805 56.0973C 116.493 56.161 116.3692 56.1063 116.3574 55.9986L 114.6348 40.2184C 114.4014 38.0807 115.3298 35.9817 117.0684 34.7162L 149.4462 11.149ZM 185.2591 39.4513L 186.3903 49.362C 186.6612 51.7358 185.6348 54.072 183.7031 55.478C 180.7409 57.6342 176.5915 56.9808 174.4353 54.0185L 164.5887 40.4908C 162.4326 37.5285 163.086 33.3791 166.0483 31.2229C 167.98 29.8169 170.5185 29.5582 172.6942 30.5456L 181.7775 34.6681C 183.6981 35.5398 185.0199 37.3558 185.2591 39.4513Z"></path></g></g></g><g id="g-root-cp_0c_g-0c_1hi74ve10yoqoa-stroke" data-item-order="-508018" transform="translate(448.757568359375, 253.75146484375)"><g id="cp_0c_g-0c_1hi74ve10yoqoa-stroke" fill="none" stroke-linecap="round" stroke-linejoin="round" stroke-miterlimit="4" stroke="#ababab" stroke-width="2"><g><path d="M 73.4265 114.036197C 70.2756 113.010597 66.8897 114.733497 65.8641 117.884497L 29.9603 228.186697L 29.9598 228.188097L 49.6044 218.191797C 50.5888 217.690797 50.9808 216.486697 50.4798 215.502197L 45.6145 205.940997L 52.4386 202.468497C 52.9114 202.227897 53.2692 201.809397 53.4334 201.304997L 54.7777 197.175097C 54.9418 196.670797 54.8989 196.121797 54.6584 195.649097L 51.1858 188.824897L 60.5308 184.069597C 61.0035 183.829097 61.3614 183.410597 61.5256 182.906197L 63.4889 176.874497C 63.653 176.370197 63.6101 175.821197 63.3696 175.348497L 58.6143 166.003497L 64.3943 163.062297C 65.3787 162.561297 65.7707 161.357197 65.2697 160.372797L 62.3285 154.592797L 69.1527 151.120197C 69.6254 150.879697 69.9832 150.461197 70.1474 149.956797L 71.4917 145.826897C 71.6559 145.322497 71.613 144.773597 71.3724 144.300797L 67.8999 137.476697L 73.6799 134.535497C 74.6643 134.034497 75.0563 132.830397 74.5553 131.845897L 71.6141 126.065997L 78.4382 122.593397C 78.911 122.352897 79.2688 121.934397 79.433 121.429997L 81.0337 116.512397L 73.4265 114.036197ZM 53.4802 110.699097C 50.3293 109.673497 46.9434 111.396397 45.9178 114.547397L 14.6567 210.586397L 14.6563 210.587597L 22.3532 225.711297L 57.3285 118.261597C 58.3541 115.110597 56.6312 111.724797 53.4802 110.699097ZM 65.8641 117.884497C 66.8897 114.733497 70.2756 113.010597 73.4265 114.036197L 81.0337 116.512397L 87.6223 118.655797C 90.8107 119.693597 94.2269 117.980597 95.2526 114.829597C 96.2782 111.678597 94.5249 108.282897 91.3365 107.245097L 44.1539 91.934297C 41.1881 91.351697 38.1964 93.035697 37.2482 95.948997C 36.2298 99.077597 37.951 102.447397 41.0965 103.510997L 10.2946 198.139197C 9.8021 199.652397 9.9308 201.299197 10.6525 202.717497L 14.6567 210.586397L 45.9178 114.547397C 46.9434 111.396397 50.3293 109.673497 53.4802 110.699097C 56.6312 111.724797 58.3541 115.110597 57.3285 118.261597L 22.3532 225.711297L 23.1043 227.187297C 24.1062 229.156197 26.5145 229.940097 28.4834 228.938197L 29.9603 228.186697L 65.8641 117.884497ZM 50.3821 74.985297C 49.4863 77.737197 45.9454 78.342297 44.4984 75.835897C 38.494 65.435297 36.7589 52.625597 40.7687 40.306797C 48.2688 17.265197 73.0277 4.666397 96.0693 12.166497C 119.1108 19.666597 131.7097 44.425497 124.2095 67.467097C 120.1997 79.785897 111.2568 89.119797 100.2806 93.993197C 97.6355 95.167597 95.1292 92.594097 96.025 89.842197C 97.0506 86.691197 95.3277 83.305397 92.1767 82.279697L 57.9446 71.136997C 54.7936 70.111397 51.4078 71.834297 50.3821 74.985297ZM 86.8221 40.575597C 92.0738 42.284997 97.7168 39.413497 99.4263 34.161797C 101.1357 28.910197 98.2642 23.267097 93.0125 21.557697C 87.7609 19.848297 82.1178 22.719797 80.4084 27.971397C 78.699 33.223097 81.5705 38.866097 86.8221 40.575597Z"></path></g></g></g><g id="g-root-cp_0b_g-0b_147d3l610yop3g-stroke" data-item-order="-508014" transform="translate(326.86199951171875, 258.64501953125)"><g id="cp_0b_g-0b_147d3l610yop3g-stroke" fill="none" stroke-linecap="round" stroke-linejoin="round" stroke-miterlimit="4" stroke="#ababab" stroke-width="2"><g><path d="M 81.0685 103.2952C 77.9185 104.324 76.199 107.7116 77.2278 110.8615L 113.2422 221.1292L 121.2985 205.2579C 121.7985 204.2729 121.4053 203.0692 120.4204 202.5692L 114.6375 199.6338L 118.1032 192.8062C 118.3433 192.3332 118.3856 191.7842 118.2209 191.28L 116.8725 187.1515C 116.7079 186.6473 116.3496 186.2291 115.8766 185.989L 109.049 182.5233L 107.1862 176.8198L 110.6519 169.9922C 110.892 169.5192 110.9344 168.9702 110.7697 168.466L 109.4213 164.3375C 109.2566 163.8332 108.8983 163.4151 108.4254 163.175L 101.5978 159.7093L 106.4535 150.1432C 106.9535 149.1583 106.5603 147.9545 105.5754 147.4545L 96.0093 142.5988L 98.9447 136.8159C 99.4447 135.8309 99.0516 134.6272 98.0666 134.1272L 96.0668 133.1121L 98.8924 127.5456C 99.1325 127.0726 99.1749 126.5236 99.0102 126.0194L 97.0409 119.9897C 96.8762 119.4855 96.5179 119.0673 96.045 118.8272L 86.6952 114.0813L 90.161 107.2537C 90.401 106.7807 90.4434 106.2317 90.2787 105.7275L 88.6731 100.8115L 81.0685 103.2952ZM 62.9887 112.3568C 59.8387 113.3856 58.1192 116.7731 59.148 119.9231L 90.5053 215.932L 105.638 223.6134L 70.555 116.1975C 69.5262 113.0475 66.1386 111.328 62.9887 112.3568ZM 91.5337 87.2534L 91.5064 87.2623L 44.1676 102.7235L 44.2535 102.7647C 41.6066 104.0823 40.2476 107.1486 41.1823 110.0105C 42.2038 113.1381 45.5806 114.8457 48.7484 113.8508L 79.6448 208.4482C 80.1388 209.9609 81.2135 211.2153 82.6325 211.9356L 90.5053 215.932L 59.148 119.9231C 58.1192 116.7731 59.8387 113.3856 62.9887 112.3568C 66.1386 111.328 69.5262 113.0475 70.555 116.1975L 105.638 223.6134L 107.1148 224.3628C 109.0847 225.3627 111.4922 224.5764 112.4921 222.6066L 113.2422 221.1292L 77.2278 110.8615C 76.199 107.7116 77.9185 104.324 81.0685 103.2952L 88.6731 100.8115L 95.2593 98.6604C 98.4467 97.6193 100.1966 94.2219 99.1678 91.0719C 98.139 87.922 94.7211 86.2123 91.5337 87.2534ZM 10.9937 81.9988C 7.5644 71.499 13.2962 60.2071 23.796 56.7778C 25.371 56.2634 26.2308 54.5696 25.7164 52.9946L 23.2326 45.39C 18.603 31.2152 26.3409 15.9712 40.5157 11.3415C 54.6905 6.7119 69.9345 14.4498 74.5641 28.6246L 77.0479 36.2293C 77.5623 37.8043 79.2561 38.6641 80.831 38.1496C 91.3309 34.7203 102.6227 40.4521 106.0521 50.9519C 109.4814 61.4518 103.7497 72.7436 93.2498 76.173L 36.2148 94.8011C 25.7149 98.2305 14.4231 92.4987 10.9937 81.9988ZM 57.1628 30.1007C 58.8775 35.3506 56.0116 40.9966 50.7617 42.7112C 45.5117 44.4259 39.8658 41.56 38.1511 36.3101C 36.4365 31.0602 39.3024 25.4142 44.5523 23.6996C 49.8022 21.9849 55.4481 24.8508 57.1628 30.1007Z"></path></g></g></g><g id="g-root-cp_0a_g-0a_qvwl7u10yoqoe-stroke" data-item-order="-508010" transform="translate(212.28997802734375, 349.93408203125)"><g id="cp_0a_g-0a_qvwl7u10yoqoe-stroke" fill="none" stroke-linecap="round" stroke-linejoin="round" stroke-miterlimit="4" stroke="#ababab" stroke-width="2"><g><path d="M 99.856531 73.7708C 97.919031 76.459 98.527631 80.209 101.215931 82.1465L 195.321431 149.9709L 191.829131 128.4535C 191.744231 127.9299 191.454731 127.4615 191.024431 127.1514L 185.878431 123.4426C 185.448131 123.1325 184.912231 123.006 184.388731 123.091L 174.038831 124.7707L 172.812131 117.2128C 172.727231 116.6892 172.437731 116.2208 172.007431 115.9107L 168.484031 113.3712C 168.053731 113.0611 167.517831 112.9346 166.994231 113.0196L 159.436231 114.2462L 158.397331 107.8447C 158.220331 106.7544 157.193031 106.014 156.102731 106.1909L 149.701231 107.2299L 147.982531 96.6405C 147.805631 95.5502 146.778331 94.8098 145.688031 94.9868L 135.098631 96.7054L 134.059631 90.3039C 133.882731 89.2136 132.855431 88.4732 131.765131 88.6501L 125.363631 89.6891L 124.136931 82.1311C 124.051931 81.6075 123.762431 81.1392 123.332131 80.829L 119.808731 78.2896C 119.378431 77.9795 118.842531 77.853 118.318931 77.938L 110.761031 79.1646L 109.534331 71.6066C 109.449431 71.083 109.159931 70.6147 108.729631 70.3045L 104.534131 67.2807L 99.856531 73.7708ZM 90.595931 91.7491C 88.658431 94.4374 89.267031 98.1873 91.955331 100.1248L 173.890731 159.178L 173.891931 159.1789L 190.643331 156.4602L 190.642031 156.4593L 98.971631 90.3898C 96.283331 88.4523 92.533431 89.0609 90.595931 91.7491ZM 98.850231 54.6416L 70.239931 94.3386C 68.332031 97.054 68.933231 100.7878 71.601331 102.7108C 74.270431 104.6345 78.004631 104.0227 79.976631 101.3513L 160.708631 159.5371C 161.999531 160.4676 163.607231 160.847 165.178031 160.5921L 173.890731 159.178L 91.955331 100.1248C 89.267031 98.1873 88.658431 94.4374 90.595931 91.7491C 92.533431 89.0609 96.283331 88.4523 98.971631 90.3898L 190.642031 156.4593L 192.279131 156.1936C 194.459731 155.8397 195.940631 153.785 195.586731 151.6044L 195.321431 149.9709L 101.215931 82.1465C 98.527631 80.209 97.919031 76.459 99.856531 73.7708L 101.026931 72.1471L 101.026631 72.1453L 108.585231 61.6579C 110.545831 58.9377 109.955831 55.1619 107.267631 53.2244C 104.579331 51.2869 100.810731 51.9214 98.850231 54.6416ZM 28.366131 90.9478C 24.004931 91.6557 19.895731 88.694 19.187831 84.3328L 10.104531 28.3661C 9.396731 24.0049 12.358431 19.8956 16.719631 19.1878L 72.686331 10.1045C 77.047531 9.3967 81.156731 12.3584 81.864531 16.7196L 86.780931 47.0117C 87.290831 50.1531 86.534431 53.3648 84.673631 55.9467C 79.322031 63.372 72.066931 73.4383 66.469031 81.2053C 64.608131 83.7872 61.799731 85.5216 58.658231 86.0315L 28.366131 90.9478ZM 44.146031 34.0901C 48.626531 37.3193 49.640831 43.5691 46.411631 48.0496C 43.182531 52.53 36.932631 53.5443 32.452231 50.3152C 27.971731 47.086 26.957431 40.8361 30.186631 36.3557C 33.415731 31.8753 39.665631 30.8609 44.146031 34.0901Z"></path></g></g></g><g id="g-root-cp_4_g-4_i0w22210yop34-stroke" data-item-order="-508006" transform="translate(587.9814453125, 331.3330078125)"><g id="cp_4_g-4_i0w22210yop34-stroke" fill="none" stroke-linecap="round" stroke-linejoin="round" stroke-miterlimit="4" stroke="#ffe711" stroke-width="2"><g><path d="M 111.0225 39.0694C 110.561 34.8319 107.8863 31.1572 103.9957 29.4156L 62.9602 11.0473C 59.0359 9.2907 54.4717 9.7678 50.9955 12.298L 14.9382 38.5435C 11.4621 41.0737 9.6053 45.2703 10.0707 49.5445L 12.7454 74.107L 40.4501 112.1677L 62.9999 122.2614C 66.9242 124.018 71.4884 123.5409 74.9646 121.0107L 111.0219 94.7653C 114.498 92.235 116.3548 88.0384 115.8894 83.7642L 111.0225 39.0694ZM 61.3214 21.5L 98.138 37.9918C 100.082 38.8626 101.4186 40.6989 101.6497 42.8164L 106.0277 82.9198C 106.261 85.0574 105.3326 87.1565 103.5941 88.4219L 71.2163 111.9891C 69.4777 113.2545 67.1949 113.4929 65.2325 112.6138L 50.7451 106.1243C 50.646 106.0799 50.6319 105.945 50.7197 105.8811C 53.3988 103.931 53.9898 100.1783 52.0397 97.4991L 30.854 68.393C 28.9039 65.7139 25.1511 65.1229 22.472 67.073C 22.3844 67.1367 22.2606 67.082 22.2489 66.9743L 20.5262 51.1941C 20.2928 49.0564 21.2212 46.9574 22.9598 45.6919L 55.3376 22.1247C 57.0761 20.8593 59.3589 20.621 61.3214 21.5Z"></path></g></g></g><g id="g-root-cp_3_g-3_9591t610yopvu-stroke" data-item-order="-508002" transform="translate(467.2314453125, 243.6220703125)"><g id="cp_3_g-3_9591t610yopvu-stroke" fill="none" stroke-linecap="round" stroke-linejoin="round" stroke-miterlimit="4" stroke="#a6da37" stroke-width="2"><g><path d="M 72.7048 117.3221C 91.9968 114.1608 108.8946 100.6 115.3628 80.7286C 124.5937 52.3698 109.0875 21.8973 80.7286 12.6664C 52.3698 3.4354 21.8973 18.9417 12.6664 47.3006C 6.1873 67.2052 11.8949 88.1511 25.6795 102.0626L 72.7048 117.3221ZM 31.9077 85.1135C 32.9333 81.9626 36.3192 80.2396 39.4702 81.2653L 73.7023 92.408C 76.8533 93.4337 78.5762 96.8195 77.5506 99.9705C 76.6548 102.7224 79.1611 105.2959 81.8061 104.1215C 92.7824 99.2481 101.7253 89.9142 105.7351 77.5954C 113.2352 54.5538 100.6364 29.7949 77.5948 22.2948C 54.5533 14.7947 29.7944 27.3935 22.2943 50.4351C 18.2844 62.7539 20.0196 75.5635 26.024 85.9642C 27.471 88.4706 31.0119 87.8655 31.9077 85.1135Z"></path></g></g></g><g id="g-root-cp_2_g-2_1uljh4a10yq2oc-stroke" data-item-order="-507998" transform="translate(316.859375, 248.6923828125)"><g id="cp_2_g-2_1uljh4a10yq2oc-stroke" fill="none" stroke-linecap="round" stroke-linejoin="round" stroke-miterlimit="4" stroke="#43dd93" stroke-width="2"><g><path d="M 93.6189 37.3045L 92.8116 34.8328C 86.6388 15.9331 66.3135 5.6159 47.4137 11.7887C 28.514 17.9615 18.1968 38.2869 24.3696 57.1866L 25.1769 59.6582C 13.0231 66.5519 6.9845 81.26 11.4906 95.0565C 16.6346 110.8063 33.5724 119.404 49.3222 114.26L 106.3572 95.6318C 122.107 90.4878 130.7046 73.5501 125.5606 57.8003C 121.0546 44.0037 107.4986 35.6953 93.6189 37.3045ZM 20.9964 91.9519C 17.5671 81.452 23.2989 70.1601 33.7987 66.7308C 35.3737 66.2164 36.2335 64.5226 35.7191 62.9476L 33.2353 55.343C 28.6057 41.1682 36.3436 25.9242 50.5184 21.2946C 64.6932 16.6649 79.9372 24.4029 84.5668 38.5777L 87.0506 46.1823C 87.565 47.7573 89.2588 48.6171 90.8337 48.1027C 101.3336 44.6733 112.6254 50.4051 116.0548 60.905C 119.4841 71.4048 113.7524 82.6967 103.2525 86.126L 46.2175 104.7542C 35.7176 108.1835 24.4258 102.4517 20.9964 91.9519Z"></path></g></g></g><g id="g-root-cp_1_g-1_1q5pyzu10yq3gm-stroke" data-item-order="-507994" transform="translate(200.7138671875, 338.4658203125)"><g id="cp_1_g-1_1q5pyzu10yq3gm-stroke" fill="none" stroke-linecap="round" stroke-linejoin="round" stroke-miterlimit="4" stroke="#1ac3fb" stroke-width="2"><g><path d="M 20.0794 21.2652C 13.5376 22.327 9.0951 28.4909 10.1568 35.0327L 21.2652 103.4773C 22.327 110.0191 28.4909 114.4616 35.0327 113.3998L 81.8162 105.807L 109.8842 66.8623L 102.2914 20.0794C 101.2297 13.5376 95.0658 9.0951 88.524 10.1568L 20.0794 21.2652ZM 30.7641 95.8011L 21.6808 39.8345C 20.973 35.4733 23.9347 31.364 28.2959 30.6562L 84.2625 21.5729C 88.6238 20.8651 92.733 23.8267 93.4408 28.1879L 98.3572 58.48C 98.867 61.6215 98.1105 64.8335 96.2496 67.4154C 91.0948 74.5677 83.1817 85.547 78.045 92.674C 76.1842 95.2559 73.376 96.99 70.2345 97.4998L 39.9424 102.4162C 35.5812 103.124 31.4719 100.1623 30.7641 95.8011Z"></path></g></g></g><g id="g-root-tx_foundati_18f2fl610yq2o0-stroke" data-item-order="0" transform="translate(254, 38)"></g><g id="g-root-tx_paramete_8z0ay210yq2h1-stroke" data-item-order="0" transform="translate(230, 98)"></g><g id="g-root-tx_defaulta_1cw4vvu10yq41v-stroke" data-item-order="0" transform="translate(506.5269775390625, 98)"></g><g id="g-root-tx_theinput_1lt0uay10yq4ni-stroke" data-item-order="0" transform="translate(218, 158)"></g><g id="g-root-tx_predefin_zlaulm10yq2h0-stroke" data-item-order="0" transform="translate(506.5269775390625, 158)"></g><g id="g-root-tx_variable_m7ywyy10yq51l-stroke" data-item-order="0" transform="translate(710, 278)"></g><g id="g-root-tx_function_142dawa10yq3uv-stroke" data-item-order="0" transform="translate(26, 302)"></g><g id="g-root-tx_thebasic_mbprhm10yq328-stroke" data-item-order="0" transform="translate(14, 338)"></g><g id="g-root-tx_advanced_4hbdka10yq48y-stroke" data-item-order="0" transform="translate(710, 338)"></g><g id="g-root-ic_code_58pyi10yq2a1-stroke" data-item-order="0" transform="translate(410, 494)"><g id="ic_code_58pyi10yq2a1-stroke" fill="none" stroke-linecap="round" stroke-linejoin="round" stroke-miterlimit="4" stroke="#f4f4f4" stroke-width="2"><g><path d="M 47.608002 77.287003C 47.606346 79.061974 46.166977 80.5 44.392002 80.5L 15.463 80.5C 13.689195 80.498344 12.251654 79.060806 12.25 77.287003L 12.25 69.25C 12.25 59.48616 20.165159 51.570999 29.929001 51.570999C 39.692844 51.570999 47.608002 59.48616 47.608002 69.25ZM 23.179001 62.5C 23.179001 62.914215 23.514786 63.25 23.929001 63.25C 24.343214 63.25 24.679001 62.914215 24.679001 62.5C 24.679001 62.085785 24.343214 61.75 23.929001 61.75C 23.514786 61.75 23.179001 62.085785 23.179001 62.5M 35.179001 62.481998C 35.179001 62.89621 35.514786 63.231998 35.929001 63.231998C 36.343216 63.231998 36.679001 62.89621 36.679001 62.481998C 36.679001 62.067787 36.343216 61.731998 35.929001 61.731998C 35.514786 61.731998 35.179001 62.067787 35.179001 62.481998M 29.929001 51.570999L 29.929001 45.141998M 25.108 40.320999C 25.108002 42.983566 27.266436 45.142002 29.929001 45.142002C 32.591564 45.142002 34.75 42.983566 34.75 40.320999C 34.75 37.658436 32.591564 35.5 29.929001 35.5C 27.266436 35.5 25.108002 37.658436 25.108002 40.320999M 12.25 72.445L 47.608002 72.445M 67.75 13L 79.75 25L 67.75 37M 43.75 13L 31.75 25L 43.75 37M 58.75 11.5L 52.75 38.5"></path></g></g></g><g id="g-root-tx_pythonfu_18i75nu10yj402-stroke" data-item-order="0" transform="translate(362, 578)"></g></g></g><path id="w7qvu210oyxhg" d="M65.283 12.757a.35.35 0 0 0 .584.157l5.203-5.141-6.183 3.523.396 1.461zm-2.216-11.7a.35.35 0 0 0-.522.305v3.111l3.276-1.868-2.754-1.548zm3.728 2.105l-4.25 2.421v2.445l6.391-3.644-2.141-1.222zm4.708 3.303a.35.35 0 0 0 0-.609l-1.592-.9-7.365 4.199v1.782a.35.35 0 0 0 .523.305l8.435-4.777z M44.542 2.513c0-.433.355-.783.792-.783s.792.35.792.783-.355.783-.792.783-.792-.35-.792-.783zm59.171 0c0-.433.355-.783.792-.783s.792.35.792.783-.355.783-.792.783-.792-.35-.792-.783zm-85.951 7.636h-1.27v-.487c-.276.201-.864.609-1.881.609-1.202 0-2.274-.794-2.137-2.078.118-1.106 1.153-1.584 1.848-1.727l2.17-.345c0-.539-.29-.956-1.064-1.006s-1.21.305-1.571 1.017l-1.124-.605c1.218-2.631 5.029-1.764 5.029.414v4.207zm-1.27-2.86c.006.396-.062 1.112-.819 1.59-.587.37-1.841.299-1.903-.395-.049-.555.461-.791.906-.898l1.816-.297zm72.662 2.86h-1.27v-.487c-.276.201-.864.609-1.881.609-1.202 0-2.274-.794-2.137-2.078.118-1.106 1.153-1.584 1.848-1.727l2.17-.345c0-.539-.29-.956-1.064-1.006s-1.21.305-1.571 1.017l-1.124-.605c1.218-2.631 5.029-1.764 5.029.414v4.207zm-1.27-2.86c.006.396-.062 1.112-.82 1.59-.587.37-1.841.299-1.903-.395-.049-.555.461-.791.906-.898l1.816-.297zM99.096 10.149H97.85v-8.45h1.246v4.895l2.68-2.559h1.738l-2.633 2.535 2.715 3.578h-1.556l-2.077-2.707-.867.844v1.863zm6.053-6.114h-1.255v6.113h1.255V4.035zm-59.2 0h-1.255v6.113h1.255V4.035zm5.584 6.113V1.697h1.255v2.695c.361-.346 1-.485 1.47-.485 1.452 0 2.477 1.082 2.457 2.448v3.792h-1.27v-3.68c0-.408-.214-1.339-1.315-1.339-.968 0-1.342.756-1.342 1.339v3.681h-1.255zm-4.76-4.894V4.039h.621a.45.45 0 0 0 .45-.45v-.855h1.251v1.305h1.309v1.215h-1.309v3.109c0 .293.105.664.648.664.365 0 .531-.035.736-.07v1.137s-.361.113-.857.113c-1.398 0-1.777-1.051-1.777-1.788V5.254h-1.071zM36.528 4.039h-1.394l2.191 6.106h1.125l1.234-3.918 1.238 3.918h1.129l2.188-6.106h-1.383l-1.359 3.93-1.256-3.93h-1.124l-1.242 3.957-1.348-3.957zM26.212 7.141c-.02 1.566 1.187 3.129 3.223 3.129 1.566 0 2.383-.918 2.734-1.719L31.172 8c-.315.399-.801 1.094-1.738 1.094-1.145 0-1.825-.781-1.891-1.52h4.625c.074-.284.148-.995-.03-1.559-.336-1.064-1.221-2.102-2.839-2.102s-3.088 1.152-3.088 3.227zm1.363-.75h3.348c-.055-.43-.566-1.301-1.623-1.301a1.79 1.79 0 0 0-1.725 1.301zm-8.758.75c.038 1.758 1.277 3.133 3.145 3.133 1.074 0 1.723-.477 1.961-.672v.547h1.242V1.703h-1.258v2.888c-.414-.36-1.062-.68-1.93-.68-1.91 0-3.198 1.473-3.16 3.23zm1.309-.08c0 1.119.723 1.978 1.836 1.978a1.88 1.88 0 0 0 1.94-1.904c0-1.371-1.011-1.99-1.972-1.99s-1.805.798-1.805 1.916zm76.683-.028C96.771 5.275 95.532 3.9 93.664 3.9c-1.074 0-1.723.477-1.961.672v-.547h-1.242v8.22h1.258V9.583c.414.36 1.063.68 1.93.68 1.91 0 3.198-1.473 3.16-3.23zm-1.309.08c0-1.119-.723-1.978-1.836-1.978a1.88 1.88 0 0 0-1.94 1.904c0 1.371 1.011 1.99 1.972 1.99S95.5 8.231 95.5 7.113zM106.441 10.173V4.036h1.254v.382c.361-.346 1-.485 1.47-.485 1.452 0 2.477 1.082 2.457 2.448v3.792h-1.27V6.492c0-.408-.214-1.339-1.315-1.339-.969 0-1.342.756-1.342 1.339v3.681h-1.254zm-30.383-.021V1.824h1.084l4.215 5.777V1.824h1.32v8.328h-1.094l-4.207-5.796v5.796h-1.319zM5.24 10.149H4V2.377h1.014l2.664 3.597 2.654-3.592h1.03v7.766h-1.256V4.762L7.678 8.068 5.24 4.742v5.407z" transform="translate(776, 650)" fill="#ababab88" stroke="none"></path></svg>