<?xml version="1.0" encoding="utf-8" standalone="yes"?>
<!DOCTYPE svg PUBLIC "-//W3C//DTD SVG 1.1//EN" "http://www.w3.org/Graphics/SVG/1.1/DTD/svg11.dtd">
<svg width="785" height="912" viewBox="0 0 785 912" style="fill:none;stroke:none;fill-rule:evenodd;clip-rule:evenodd;stroke-linecap:round;stroke-linejoin:round;stroke-miterlimit:1.5;" version="1.1" xmlns="http://www.w3.org/2000/svg" xmlns:xlink="http://www.w3.org/1999/xlink"><style class="text-font-style fontImports" data-font-family="Roboto">@import url(https://fonts.googleapis.com/css2?family=Roboto:wght@400;700&amp;amp;display=block);</style><g id="items" style="isolation: isolate"><g id="blend" style="mix-blend-mode: normal"><g id="g-root-cp_2_g-2_zpo316zuovt4-fill" data-item-order="-601382" transform="translate(246.13555908203125, 294.7548828125)"><g id="cp_2_g-2_zpo316zuovt4-fill" stroke="none" fill="#3b5649"><g><path d="M 179.868902 210.9336C 183.589702 212.3036 186.987002 214.4682 189.814502 217.2958C 193.661202 221.1424 196.280802 226.0434 197.342102 231.3789C 197.660302 232.9787 197.834202 234.596 197.865502 236.212L 197.865502 235.712C 197.870502 235.973 197.871902 236.2339 197.869502 236.4948C 197.871902 236.7557 197.870502 237.0166 197.865502 237.2774L 197.865502 455.2448C 197.865502 458.5585 200.551802 461.2448 203.865502 461.2448L 215.865502 461.2448C 219.179202 461.2448 221.865502 458.5585 221.865502 455.2448L 221.865502 236.6957C 221.862302 233.3547 221.534002 230.0062 220.875902 226.6977C 219.637202 220.4702 217.264702 214.5589 213.908602 209.2449C 211.880902 206.0342 209.494102 203.0415 206.781502 200.3289C 204.068802 197.6162 201.076202 195.2295 197.865502 193.2018C 192.551402 189.8457 186.640102 187.4731 180.412602 186.2344C 180.232402 186.1986 180.051202 186.1637 179.868902 186.1296L 179.868902 210.9336ZM 105.814502 73.2958C 109.661202 77.1424 112.280802 82.0434 113.342102 87.3789C 113.660302 88.9787 113.834202 90.596 113.865502 92.212C 113.872402 92.5672 113.872302 92.9224 113.865502 93.2773L 113.865502 157.7651C 113.868602 161.1061 114.196902 164.4546 114.855002 167.7631C 116.093802 173.9906 118.466302 179.9019 121.822402 185.216L 121.840602 185.2449C 123.864402 188.4446 126.245002 191.4275 128.949502 194.132C 131.662102 196.8446 134.654802 199.2314 137.865502 201.2591C 143.179602 204.6152 149.090902 206.9877 155.318302 208.2264C 155.499602 208.2625 155.682302 208.2976 155.866302 208.332L 155.866302 183.5287C 152.143902 182.1589 148.745102 179.9937 145.916402 177.165C 142.069702 173.3184 139.450102 168.4174 138.388802 163.082C 138.070602 161.4821 137.896802 159.8648 137.865502 158.2488C 137.858602 157.8936 137.858602 157.5384 137.865502 157.1835L 137.865502 92.6957C 137.862302 89.3547 137.534002 86.0062 136.875902 82.6977C 135.637202 76.4702 133.264702 70.5589 129.908602 65.2448C 127.880902 62.0342 125.494102 59.0415 122.781502 56.3288C 120.068802 53.6162 117.076202 51.2295 113.865502 49.2017C 108.551402 45.8457 102.640102 43.4731 96.412602 42.2344C 92.473202 41.4508 88.026002 41.1041 84.053402 41.2477L 83.865502 41.2448L 49.475002 41.2448C 48.599402 41.2448 48.146602 40.1991 48.745802 39.5606L 58.308802 29.3691C 62.654802 24.7375 62.423202 17.4598 57.791702 13.1138C 53.160102 8.7679 45.882402 8.9994 41.536402 13.631L 13.084402 45.2129C 8.971902 49.7779 8.971802 56.7119 13.084502 61.2769L 41.536402 92.8586C 45.882402 97.4902 53.160102 97.7217 57.791702 93.3758C 62.423202 89.0298 62.654802 81.7521 58.308802 77.1205L 48.141802 66.2853C 47.771602 65.8909 48.051302 65.2449 48.592302 65.2449L 85.833002 65.2448C 86.187902 65.238 86.543102 65.238 86.898302 65.2448C 88.514302 65.2761 90.131602 65.45 91.731502 65.7682C 97.066902 66.8295 101.967902 69.4491 105.814502 73.2958ZM 197.865502 236.212L 197.866502 236.2665L 197.868202 236.3749L 197.869502 236.4948C 197.868702 236.589 197.867302 236.6832 197.865502 236.7774M 197.865502 235.712L 197.865502 236.7774M 197.865502 455.2448L 197.865502 236.7774M 221.865502 455.2448L 221.865502 236.1957M 113.865502 92.212L 113.865502 93.2773M 137.865502 158.2488L 137.865502 157.1835M 85.833002 65.2448L 86.898302 65.2448"></path></g></g></g><g id="g-root-cp_1_g-1_me7knuzuoxe2-fill" data-item-order="-601378" transform="translate(246.14755249023438, 486.755859375)"><g id="cp_1_g-1_me7knuzuoxe2-fill" stroke="none" fill="#3e4e69"><g><path d="M 116.50092 89.707494C 115.00982 89.905694 113.62132 88.854194 113.32792 87.378894C 112.26662 82.043394 109.64692 77.142394 105.80032 73.295794C 101.95362 69.449094 97.05272 66.829494 91.71722 65.768194C 90.11742 65.449994 88.50002 65.276094 86.88402 65.244794L 48.85212 65.244594C 48.20722 65.244694 47.87382 66.014894 48.31512 66.485194L 58.29462 77.120494C 62.64052 81.752094 62.40902 89.029794 57.77742 93.375794C 53.14592 97.721694 45.86822 97.490194 41.52222 92.858594L 13.08242 61.274394C 8.97252 56.710094 8.97252 49.779194 13.08252 45.214894L 41.52222 13.630994C 45.86822 8.999394 53.14592 8.767894 57.77742 13.113794C 62.40902 17.459794 62.64052 24.737494 58.29462 29.369094L 48.73152 39.560594C 48.13242 40.199094 48.58512 41.244794 49.46082 41.244794L 83.85122 41.244794L 84.03912 41.247694C 88.01172 41.104094 92.45892 41.450794 96.39842 42.234394C 102.62582 43.473094 108.53712 45.845694 113.85122 49.201694C 117.06192 51.229494 120.05462 53.616194 122.76722 56.328794C 125.47992 59.041494 127.86662 62.034194 129.89432 65.244794C 133.25042 70.558894 135.62292 76.470194 136.86172 82.697694C 136.92372 83.009494 136.98282 83.321694 137.03902 83.634194C 137.45742 85.962394 136.03802 88.230894 133.71802 88.692394C 132.11822 89.010594 130.50092 89.184394 128.88492 89.215694L 127.81962 89.215694L 126.85212 89.244594L 125.66412 89.247494C 122.73642 89.141594 119.55092 89.302094 116.50092 89.707494ZM 117.98612 113.767894C 115.45222 114.271994 113.85122 116.648994 113.85122 119.232494L 113.85122 263.244794C 113.85122 266.558494 116.53752 269.244794 119.85122 269.244794L 131.85122 269.244794C 135.16492 269.244794 137.85122 266.558494 137.85122 263.244794L 137.85122 112.331694C 134.40262 112.974994 130.60762 113.289194 127.10312 113.239394C 127.01982 113.242894 126.93612 113.244594 126.85212 113.244594L 122.81922 113.244594C 121.20322 113.275894 119.58592 113.449694 117.98612 113.767894ZM 127.81962 89.215694L 125.85202 89.215694M 137.85122 112.331694C 134.05072 113.040694 129.82942 113.349894 126.04002 113.212794L 125.85202 113.215694"></path></g></g></g><g id="g-root-cp_3_g-3_93djdmzuovt8-fill" data-item-order="-601374" transform="translate(360.75701904296875, 210.150146484375)"><g id="cp_3_g-3_93djdmzuovt8-fill" stroke="none" fill="#5c4938"><g><path d="M 41.2448 248.828243L 41.2448 49.473243C 41.2448 48.597643 40.1991 48.144843 39.5605 48.744043L 29.3691 58.307043C 24.7375 62.652943 17.4598 62.421443 13.1138 57.789843C 8.7679 53.158343 8.9994 45.880543 13.631 41.534643L 45.2107 13.084443C 49.7755 8.971943 56.7091 8.971743 61.2742 13.083843L 92.8586 41.534643C 97.4902 45.880543 97.7217 53.158343 93.3758 57.789843C 89.0298 62.421443 81.7521 62.652943 77.1205 58.307043L 66.9291 48.744043C 66.2905 48.144843 65.2448 48.597643 65.2448 49.473243L 65.2448 205.805343L 65.2422 205.806943C 62.0315 207.834643 59.0388 210.221443 56.3262 212.934043C 53.6135 215.646743 51.2268 218.639343 49.1991 221.850043C 45.843 227.164143 43.4705 233.075443 42.2317 239.302943C 41.6047 242.455443 41.277 245.644243 41.2448 248.828243ZM 59.2448 545.850043L 47.2448 545.850043C 43.9311 545.850043 41.2448 543.163743 41.2448 539.850043L 41.2448 381.862643C 44.4545 379.835343 47.4463 377.449143 50.1582 374.737143C 52.8708 372.024543 55.2576 369.031843 57.2853 365.821143C 60.6414 360.507143 63.0139 354.595843 64.2526 348.368343C 64.9107 345.059843 65.2426 341.670943 65.2458 338.329943L 65.2448 539.850043C 65.2448 543.163743 62.5585 545.850043 59.2448 545.850043Z"></path></g></g></g><g id="g-root-cp_4_g-4_4nk196zuowli-fill" data-item-order="-601370" transform="translate(308, 366.7548828125)"><g id="cp_4_g-4_4nk196zuowli-fill" stroke="none" fill="#4b533a"><g><path d="M 42.0509 241.2958C 38.2043 245.1424 35.5847 250.0434 34.5234 255.3788C 34.2051 256.9786 34.0313 258.596 34 260.212L 34 261.2773C 33.9931 260.9224 33.9931 260.5672 34 260.212C 34.0313 258.596 34.2051 256.9786 34.5234 255.3788C 35.5847 250.0434 38.2043 245.1424 42.0509 241.2958C 45.8976 237.4491 50.7985 234.8295 56.134 233.7682C 57.7338 233.45 59.3512 233.2761 60.9672 233.2448C 61.3224 233.238 61.6776 233.238 62.0325 233.2448L 60.9672 233.2448C 59.3512 233.2761 57.7338 233.45 56.134 233.7682C 50.7985 234.8295 45.8976 237.4491 42.0509 241.2958ZM 126.0509 73.2958C 122.2043 77.1424 119.5847 82.0434 118.5234 87.3789C 118.2051 88.9787 118.0313 90.596 118 92.212L 118 93.2773C 117.9931 92.9224 117.9931 92.5672 118 92.212C 118.0313 90.596 118.2051 88.9787 118.5234 87.3789C 119.5847 82.0434 122.2043 77.1424 126.0509 73.2958C 129.8976 69.4491 134.7985 66.8295 140.134 65.7682C 141.7338 65.45 143.3512 65.2761 144.9672 65.2448C 145.3224 65.238 145.6776 65.238 146.0325 65.2448L 144.9672 65.2448C 143.3512 65.2761 141.7338 65.45 140.134 65.7682C 134.7985 66.8295 129.8976 69.4491 126.0509 73.2958ZM 85.9491 201.165C 89.7957 197.3184 92.4153 192.4174 93.4766 187.0819C 93.7949 185.4821 93.9687 183.8648 94 182.2488L 94 181.1835C 94.0069 181.5384 94.0069 181.8936 94 182.2488C 93.9687 183.8648 93.7949 185.4821 93.4766 187.0819C 92.4153 192.4174 89.7957 197.3184 85.9491 201.165C 82.1024 205.0117 77.2015 207.6313 71.866 208.6926C 70.2662 209.0108 68.6488 209.1846 67.0328 209.2159C 66.6776 209.2228 66.3224 209.2228 65.9675 209.2159L 67.0328 209.2159C 68.6488 209.1846 70.2662 209.0108 71.866 208.6926C 77.2015 207.6313 82.1024 205.0117 85.9491 201.165ZM 126.0509 73.2958C 122.2043 77.1424 119.5847 82.0434 118.5234 87.3789C 118.2051 88.9787 118.0313 90.596 118 92.212L 118 93.2773C 117.9931 92.9224 117.9931 92.5672 118 92.212C 118.0313 90.596 118.2051 88.9787 118.5234 87.3789C 119.5847 82.0434 122.2043 77.1424 126.0509 73.2958C 129.8976 69.4491 134.7985 66.8295 140.134 65.7682C 141.7338 65.45 143.3512 65.2761 144.9672 65.2448C 145.3224 65.238 145.6776 65.238 146.0325 65.2448L 144.9672 65.2448C 143.3512 65.2761 141.7338 65.45 140.134 65.7682C 134.7985 66.8295 129.8976 69.4491 126.0509 73.2958ZM 16 389.2448L 28 389.2448C 31.3137 389.2448 34 386.5585 34 383.2448L 34 261.2773C 33.9931 260.9224 33.9931 260.5672 34 260.212C 34.0313 258.596 34.2051 256.9786 34.5234 255.3788C 35.5847 250.0434 38.2043 245.1424 42.0509 241.2958C 45.8976 237.4491 50.7985 234.8295 56.134 233.7682C 57.7338 233.45 59.3512 233.2761 60.9672 233.2448C 61.3224 233.238 61.6776 233.238 62.0325 233.2448L 65 233.2448C 65.0841 233.2448 65.1678 233.2431 65.251 233.2397C 68.9422 233.2921 72.9557 232.9408 76.5471 232.2264C 82.7746 230.9877 88.6859 228.6151 94 225.259C 97.2107 223.2313 100.2034 220.8446 102.916 218.1319C 105.6286 215.4193 108.0154 212.4266 110.0431 209.2159C 113.3992 203.9019 115.7717 197.9906 117.0104 191.7631C 117.6685 188.4546 117.9968 185.1061 118 181.7651L 118 93.2773C 117.9931 92.9224 117.9931 92.5672 118 92.212C 118.0313 90.596 118.2051 88.9787 118.5234 87.3789C 119.5847 82.0434 122.2043 77.1424 126.0509 73.2958C 129.8976 69.4491 134.7985 66.8295 140.134 65.7682C 141.7338 65.45 143.3512 65.2761 144.9672 65.2448C 145.3224 65.238 145.6776 65.238 146.0325 65.2448L 148 65.2448L 159.0549 65.2448L 181 65.2448L 182.3904 65.2448C 183.266 65.2448 183.7188 66.2906 183.1196 66.9291L 173.5567 77.1205C 169.2107 81.7521 169.4422 89.0298 174.0738 93.3758C 178.7054 97.7217 185.9831 97.4902 190.329 92.8586L 218.7795 61.2766C 222.8918 56.7117 222.8918 49.7781 218.7795 45.2131L 190.329 13.631C 185.9831 8.9994 178.7054 8.7679 174.0738 13.1138C 169.4422 17.4598 169.2107 24.7375 173.5567 29.3691L 183.1197 39.5606C 183.7189 40.1991 183.2661 41.2448 182.3905 41.2448L 148 41.2448L 147.8121 41.2477C 143.8395 41.1041 139.3923 41.4508 135.4529 42.2344C 129.2254 43.4731 123.3141 45.8457 118 49.2017C 114.7893 51.2295 111.7966 53.6162 109.084 56.3288C 106.3714 59.0415 103.9846 62.0342 101.9569 65.2448C 98.6008 70.5589 96.2283 76.4702 94.9896 82.6977C 94.3315 86.0062 94.0032 89.3547 94 92.6957L 94 181.1835C 94.0069 181.5384 94.0069 181.8936 94 182.2488C 93.9687 183.8648 93.7949 185.4821 93.4766 187.0819C 92.4153 192.4174 89.7957 197.3184 85.9491 201.165C 82.1024 205.0117 77.2015 207.6313 71.866 208.6926C 70.2662 209.0108 68.6488 209.1846 67.0328 209.2159C 66.6776 209.2228 66.3224 209.2228 65.9675 209.2159L 65 209.2448L 63.8121 209.2477C 59.8395 209.1041 55.3923 209.4508 51.4529 210.2344C 45.2254 211.4731 39.3141 213.8456 34 217.2017C 30.7893 219.2294 27.7966 221.6162 25.084 224.3288C 22.3714 227.0415 19.9846 230.0342 17.9569 233.2448C 14.6008 238.5589 12.2283 244.4702 10.9896 250.6977C 10.3315 254.0062 10.0032 257.3547 10 260.6957L 10 383.2448C 10 386.5585 12.6863 389.2448 16 389.2448ZM 94 182.2488L 94 92.6957M 65.9675 209.2159L 64 209.2159M 76.5471 232.2264C 72.6077 233.01 68.1605 233.3567 64.1879 233.2131L 64 233.2159M 146.0325 65.2448L 159.0549 65.2448M 148 65.2448L 181 65.2448"></path></g></g></g><g id="g-root-tx_whichtyp_1ly0jtmzuovls-fill" data-item-order="0" transform="translate(154.5, 38)"><g id="tx_whichtyp_1ly0jtmzuovls-fill" stroke="none" fill="#f4f4f4"><g><text style="font: bold 25px Roboto, sans-serif; white-space: pre;" font-weight="bold" font-size="25px" font-family="Roboto, sans-serif"><tspan x="16.13" y="43" dominant-baseline="ideographic">Which type of operator should be used?</tspan></text></g></g></g><g id="g-root-tx_logicalo_qn5uu2zuqcct-fill" data-item-order="0" transform="translate(320, 122)"><g id="tx_logicalo_qn5uu2zuqcct-fill" stroke="none" fill="#f79438"><g><text style="font: 20px Roboto, sans-serif; white-space: pre;" font-size="20px" font-family="Roboto, sans-serif"><tspan x="15.41" y="34" dominant-baseline="ideographic">Logical Operators</tspan></text></g></g></g><g id="g-root-tx_usedforc_8wibfezuqbk6-fill" data-item-order="0" transform="translate(302, 158)"><g id="tx_usedforc_8wibfezuqbk6-fill" stroke="none" fill="#f4f4f4"><g><text style="font: 15px Roboto, sans-serif; white-space: pre;" font-size="15px" font-family="Roboto, sans-serif"><tspan x="38.09" y="28" dominant-baseline="ideographic">Used for combining or </tspan><tspan x="15.08" y="46" dominant-baseline="ideographic">negating logical expressions.</tspan></text></g></g></g><g id="g-root-tx_comparis_1uuwi8qzuow7f-fill" data-item-order="0" transform="translate(110, 278)"><g id="tx_comparis_1uuwi8qzuow7f-fill" stroke="none" fill="#43dd93"><g><text style="font: 20px Roboto, sans-serif; white-space: pre;" font-size="20px" font-family="Roboto, sans-serif"><tspan x="19.5" y="34" dominant-baseline="ideographic">Comparison </tspan><tspan x="40.28" y="58" dominant-baseline="ideographic">Operators</tspan></text></g></g></g><g id="g-root-tx_usedfore_1d3mhqyzuoykk-fill" data-item-order="0" transform="translate(50, 338)"><g id="tx_usedfore_1d3mhqyzuoykk-fill" stroke="none" fill="#f4f4f4"><g><text style="font: 15px Roboto, sans-serif; white-space: pre;" font-size="15px" font-family="Roboto, sans-serif"><tspan x="59.31" y="31" dominant-baseline="ideographic">Used for evaluating </tspan><tspan x="14.14" y="49" dominant-baseline="ideographic">conditions and comparing </tspan><tspan x="141.11" y="67" dominant-baseline="ideographic">values.</tspan></text></g></g></g><g id="g-root-tx_membersh_1lr5bvezuqakv-fill" data-item-order="0" transform="translate(536, 350)"><g id="tx_membersh_1lr5bvezuqakv-fill" stroke="none" fill="#a6da37"><g><text style="font: 20px Roboto, sans-serif; white-space: pre;" font-size="20px" font-family="Roboto, sans-serif"><tspan x="12" y="34" dominant-baseline="ideographic">Membership </tspan><tspan x="12" y="58" dominant-baseline="ideographic">Operators</tspan></text></g></g></g><g id="g-root-tx_usedforc_13zvbdmzuqcy0-fill" data-item-order="0" transform="translate(536, 410)"><g id="tx_usedforc_13zvbdmzuqcy0-fill" stroke="none" fill="#f4f4f4"><g><text style="font: 15px Roboto, sans-serif; white-space: pre;" font-size="15px" font-family="Roboto, sans-serif"><tspan x="12" y="31" dominant-baseline="ideographic">Used for checking if a </tspan><tspan x="12" y="49" dominant-baseline="ideographic">value is present in a </tspan><tspan x="12" y="67" dominant-baseline="ideographic">sequence.</tspan></text></g></g></g><g id="g-root-tx_arithmet_zqx17ezuoxzd-fill" data-item-order="0" transform="translate(134, 470)"><g id="tx_arithmet_zqx17ezuoxzd-fill" stroke="none" fill="#4f91fc"><g><text style="font: 20px Roboto, sans-serif; white-space: pre;" font-size="20px" font-family="Roboto, sans-serif"><tspan x="11.73" y="34" dominant-baseline="ideographic">Arithmetic </tspan><tspan x="16.28" y="58" dominant-baseline="ideographic">Operators</tspan></text></g></g></g><g id="g-root-tx_usedforp_i09hsqzuox6q-fill" data-item-order="0" transform="translate(86, 530)"><g id="tx_usedforp_i09hsqzuox6q-fill" stroke="none" fill="#f4f4f4"><g><text style="font: 15px Roboto, sans-serif; white-space: pre;" font-size="15px" font-family="Roboto, sans-serif"><tspan x="17.89" y="31" dominant-baseline="ideographic">Used for performing </tspan><tspan x="60.03" y="49" dominant-baseline="ideographic">mathematical </tspan><tspan x="67.31" y="67" dominant-baseline="ideographic">calculations.</tspan></text></g></g></g><g id="g-root-cp_2_g-2_zpo316zuovt4-stroke" data-item-order="-601382" transform="translate(246.13555908203125, 294.7548828125)"><g id="cp_2_g-2_zpo316zuovt4-stroke" fill="none" stroke-linecap="round" stroke-linejoin="round" stroke-miterlimit="4" stroke="#43dd93" stroke-width="2"><g><path d="M 179.868902 210.9336C 183.589702 212.3036 186.987002 214.4682 189.814502 217.2958C 193.661202 221.1424 196.280802 226.0434 197.342102 231.3789C 197.660302 232.9787 197.834202 234.596 197.865502 236.212L 197.865502 235.712C 197.870502 235.973 197.871902 236.2339 197.869502 236.4948C 197.871902 236.7557 197.870502 237.0166 197.865502 237.2774L 197.865502 455.2448C 197.865502 458.5585 200.551802 461.2448 203.865502 461.2448L 215.865502 461.2448C 219.179202 461.2448 221.865502 458.5585 221.865502 455.2448L 221.865502 236.6957C 221.862302 233.3547 221.534002 230.0062 220.875902 226.6977C 219.637202 220.4702 217.264702 214.5589 213.908602 209.2449C 211.880902 206.0342 209.494102 203.0415 206.781502 200.3289C 204.068802 197.6162 201.076202 195.2295 197.865502 193.2018C 192.551402 189.8457 186.640102 187.4731 180.412602 186.2344C 180.232402 186.1986 180.051202 186.1637 179.868902 186.1296L 179.868902 210.9336ZM 105.814502 73.2958C 109.661202 77.1424 112.280802 82.0434 113.342102 87.3789C 113.660302 88.9787 113.834202 90.596 113.865502 92.212C 113.872402 92.5672 113.872302 92.9224 113.865502 93.2773L 113.865502 157.7651C 113.868602 161.1061 114.196902 164.4546 114.855002 167.7631C 116.093802 173.9906 118.466302 179.9019 121.822402 185.216L 121.840602 185.2449C 123.864402 188.4446 126.245002 191.4275 128.949502 194.132C 131.662102 196.8446 134.654802 199.2314 137.865502 201.2591C 143.179602 204.6152 149.090902 206.9877 155.318302 208.2264C 155.499602 208.2625 155.682302 208.2976 155.866302 208.332L 155.866302 183.5287C 152.143902 182.1589 148.745102 179.9937 145.916402 177.165C 142.069702 173.3184 139.450102 168.4174 138.388802 163.082C 138.070602 161.4821 137.896802 159.8648 137.865502 158.2488C 137.858602 157.8936 137.858602 157.5384 137.865502 157.1835L 137.865502 92.6957C 137.862302 89.3547 137.534002 86.0062 136.875902 82.6977C 135.637202 76.4702 133.264702 70.5589 129.908602 65.2448C 127.880902 62.0342 125.494102 59.0415 122.781502 56.3288C 120.068802 53.6162 117.076202 51.2295 113.865502 49.2017C 108.551402 45.8457 102.640102 43.4731 96.412602 42.2344C 92.473202 41.4508 88.026002 41.1041 84.053402 41.2477L 83.865502 41.2448L 49.475002 41.2448C 48.599402 41.2448 48.146602 40.1991 48.745802 39.5606L 58.308802 29.3691C 62.654802 24.7375 62.423202 17.4598 57.791702 13.1138C 53.160102 8.7679 45.882402 8.9994 41.536402 13.631L 13.084402 45.2129C 8.971902 49.7779 8.971802 56.7119 13.084502 61.2769L 41.536402 92.8586C 45.882402 97.4902 53.160102 97.7217 57.791702 93.3758C 62.423202 89.0298 62.654802 81.7521 58.308802 77.1205L 48.141802 66.2853C 47.771602 65.8909 48.051302 65.2449 48.592302 65.2449L 85.833002 65.2448C 86.187902 65.238 86.543102 65.238 86.898302 65.2448C 88.514302 65.2761 90.131602 65.45 91.731502 65.7682C 97.066902 66.8295 101.967902 69.4491 105.814502 73.2958ZM 197.865502 236.212L 197.866502 236.2665L 197.868202 236.3749L 197.869502 236.4948C 197.868702 236.589 197.867302 236.6832 197.865502 236.7774M 197.865502 235.712L 197.865502 236.7774M 197.865502 455.2448L 197.865502 236.7774M 221.865502 455.2448L 221.865502 236.1957M 113.865502 92.212L 113.865502 93.2773M 137.865502 158.2488L 137.865502 157.1835M 85.833002 65.2448L 86.898302 65.2448"></path></g></g></g><g id="g-root-cp_1_g-1_me7knuzuoxe2-stroke" data-item-order="-601378" transform="translate(246.14755249023438, 486.755859375)"><g id="cp_1_g-1_me7knuzuoxe2-stroke" fill="none" stroke-linecap="round" stroke-linejoin="round" stroke-miterlimit="4" stroke="#4f91fc" stroke-width="2"><g><path d="M 116.50092 89.707494C 115.00982 89.905694 113.62132 88.854194 113.32792 87.378894C 112.26662 82.043394 109.64692 77.142394 105.80032 73.295794C 101.95362 69.449094 97.05272 66.829494 91.71722 65.768194C 90.11742 65.449994 88.50002 65.276094 86.88402 65.244794L 48.85212 65.244594C 48.20722 65.244694 47.87382 66.014894 48.31512 66.485194L 58.29462 77.120494C 62.64052 81.752094 62.40902 89.029794 57.77742 93.375794C 53.14592 97.721694 45.86822 97.490194 41.52222 92.858594L 13.08242 61.274394C 8.97252 56.710094 8.97252 49.779194 13.08252 45.214894L 41.52222 13.630994C 45.86822 8.999394 53.14592 8.767894 57.77742 13.113794C 62.40902 17.459794 62.64052 24.737494 58.29462 29.369094L 48.73152 39.560594C 48.13242 40.199094 48.58512 41.244794 49.46082 41.244794L 83.85122 41.244794L 84.03912 41.247694C 88.01172 41.104094 92.45892 41.450794 96.39842 42.234394C 102.62582 43.473094 108.53712 45.845694 113.85122 49.201694C 117.06192 51.229494 120.05462 53.616194 122.76722 56.328794C 125.47992 59.041494 127.86662 62.034194 129.89432 65.244794C 133.25042 70.558894 135.62292 76.470194 136.86172 82.697694C 136.92372 83.009494 136.98282 83.321694 137.03902 83.634194C 137.45742 85.962394 136.03802 88.230894 133.71802 88.692394C 132.11822 89.010594 130.50092 89.184394 128.88492 89.215694L 127.81962 89.215694L 126.85212 89.244594L 125.66412 89.247494C 122.73642 89.141594 119.55092 89.302094 116.50092 89.707494ZM 117.98612 113.767894C 115.45222 114.271994 113.85122 116.648994 113.85122 119.232494L 113.85122 263.244794C 113.85122 266.558494 116.53752 269.244794 119.85122 269.244794L 131.85122 269.244794C 135.16492 269.244794 137.85122 266.558494 137.85122 263.244794L 137.85122 112.331694C 134.40262 112.974994 130.60762 113.289194 127.10312 113.239394C 127.01982 113.242894 126.93612 113.244594 126.85212 113.244594L 122.81922 113.244594C 121.20322 113.275894 119.58592 113.449694 117.98612 113.767894ZM 127.81962 89.215694L 125.85202 89.215694M 137.85122 112.331694C 134.05072 113.040694 129.82942 113.349894 126.04002 113.212794L 125.85202 113.215694"></path></g></g></g><g id="g-root-cp_3_g-3_93djdmzuovt8-stroke" data-item-order="-601374" transform="translate(360.75701904296875, 210.150146484375)"><g id="cp_3_g-3_93djdmzuovt8-stroke" fill="none" stroke-linecap="round" stroke-linejoin="round" stroke-miterlimit="4" stroke="#f79438" stroke-width="2"><g><path d="M 41.2448 248.828243L 41.2448 49.473243C 41.2448 48.597643 40.1991 48.144843 39.5605 48.744043L 29.3691 58.307043C 24.7375 62.652943 17.4598 62.421443 13.1138 57.789843C 8.7679 53.158343 8.9994 45.880543 13.631 41.534643L 45.2107 13.084443C 49.7755 8.971943 56.7091 8.971743 61.2742 13.083843L 92.8586 41.534643C 97.4902 45.880543 97.7217 53.158343 93.3758 57.789843C 89.0298 62.421443 81.7521 62.652943 77.1205 58.307043L 66.9291 48.744043C 66.2905 48.144843 65.2448 48.597643 65.2448 49.473243L 65.2448 205.805343L 65.2422 205.806943C 62.0315 207.834643 59.0388 210.221443 56.3262 212.934043C 53.6135 215.646743 51.2268 218.639343 49.1991 221.850043C 45.843 227.164143 43.4705 233.075443 42.2317 239.302943C 41.6047 242.455443 41.277 245.644243 41.2448 248.828243ZM 59.2448 545.850043L 47.2448 545.850043C 43.9311 545.850043 41.2448 543.163743 41.2448 539.850043L 41.2448 381.862643C 44.4545 379.835343 47.4463 377.449143 50.1582 374.737143C 52.8708 372.024543 55.2576 369.031843 57.2853 365.821143C 60.6414 360.507143 63.0139 354.595843 64.2526 348.368343C 64.9107 345.059843 65.2426 341.670943 65.2458 338.329943L 65.2448 539.850043C 65.2448 543.163743 62.5585 545.850043 59.2448 545.850043Z"></path></g></g></g><g id="g-root-cp_4_g-4_4nk196zuowli-stroke" data-item-order="-601370" transform="translate(308, 366.7548828125)"><g id="cp_4_g-4_4nk196zuowli-stroke" fill="none" stroke-linecap="round" stroke-linejoin="round" stroke-miterlimit="4" stroke="#a6da37" stroke-width="2"><g><path d="M 42.0509 241.2958C 38.2043 245.1424 35.5847 250.0434 34.5234 255.3788C 34.2051 256.9786 34.0313 258.596 34 260.212L 34 261.2773C 33.9931 260.9224 33.9931 260.5672 34 260.212C 34.0313 258.596 34.2051 256.9786 34.5234 255.3788C 35.5847 250.0434 38.2043 245.1424 42.0509 241.2958C 45.8976 237.4491 50.7985 234.8295 56.134 233.7682C 57.7338 233.45 59.3512 233.2761 60.9672 233.2448C 61.3224 233.238 61.6776 233.238 62.0325 233.2448L 60.9672 233.2448C 59.3512 233.2761 57.7338 233.45 56.134 233.7682C 50.7985 234.8295 45.8976 237.4491 42.0509 241.2958ZM 126.0509 73.2958C 122.2043 77.1424 119.5847 82.0434 118.5234 87.3789C 118.2051 88.9787 118.0313 90.596 118 92.212L 118 93.2773C 117.9931 92.9224 117.9931 92.5672 118 92.212C 118.0313 90.596 118.2051 88.9787 118.5234 87.3789C 119.5847 82.0434 122.2043 77.1424 126.0509 73.2958C 129.8976 69.4491 134.7985 66.8295 140.134 65.7682C 141.7338 65.45 143.3512 65.2761 144.9672 65.2448C 145.3224 65.238 145.6776 65.238 146.0325 65.2448L 144.9672 65.2448C 143.3512 65.2761 141.7338 65.45 140.134 65.7682C 134.7985 66.8295 129.8976 69.4491 126.0509 73.2958ZM 85.9491 201.165C 89.7957 197.3184 92.4153 192.4174 93.4766 187.0819C 93.7949 185.4821 93.9687 183.8648 94 182.2488L 94 181.1835C 94.0069 181.5384 94.0069 181.8936 94 182.2488C 93.9687 183.8648 93.7949 185.4821 93.4766 187.0819C 92.4153 192.4174 89.7957 197.3184 85.9491 201.165C 82.1024 205.0117 77.2015 207.6313 71.866 208.6926C 70.2662 209.0108 68.6488 209.1846 67.0328 209.2159C 66.6776 209.2228 66.3224 209.2228 65.9675 209.2159L 67.0328 209.2159C 68.6488 209.1846 70.2662 209.0108 71.866 208.6926C 77.2015 207.6313 82.1024 205.0117 85.9491 201.165ZM 126.0509 73.2958C 122.2043 77.1424 119.5847 82.0434 118.5234 87.3789C 118.2051 88.9787 118.0313 90.596 118 92.212L 118 93.2773C 117.9931 92.9224 117.9931 92.5672 118 92.212C 118.0313 90.596 118.2051 88.9787 118.5234 87.3789C 119.5847 82.0434 122.2043 77.1424 126.0509 73.2958C 129.8976 69.4491 134.7985 66.8295 140.134 65.7682C 141.7338 65.45 143.3512 65.2761 144.9672 65.2448C 145.3224 65.238 145.6776 65.238 146.0325 65.2448L 144.9672 65.2448C 143.3512 65.2761 141.7338 65.45 140.134 65.7682C 134.7985 66.8295 129.8976 69.4491 126.0509 73.2958ZM 16 389.2448L 28 389.2448C 31.3137 389.2448 34 386.5585 34 383.2448L 34 261.2773C 33.9931 260.9224 33.9931 260.5672 34 260.212C 34.0313 258.596 34.2051 256.9786 34.5234 255.3788C 35.5847 250.0434 38.2043 245.1424 42.0509 241.2958C 45.8976 237.4491 50.7985 234.8295 56.134 233.7682C 57.7338 233.45 59.3512 233.2761 60.9672 233.2448C 61.3224 233.238 61.6776 233.238 62.0325 233.2448L 65 233.2448C 65.0841 233.2448 65.1678 233.2431 65.251 233.2397C 68.9422 233.2921 72.9557 232.9408 76.5471 232.2264C 82.7746 230.9877 88.6859 228.6151 94 225.259C 97.2107 223.2313 100.2034 220.8446 102.916 218.1319C 105.6286 215.4193 108.0154 212.4266 110.0431 209.2159C 113.3992 203.9019 115.7717 197.9906 117.0104 191.7631C 117.6685 188.4546 117.9968 185.1061 118 181.7651L 118 93.2773C 117.9931 92.9224 117.9931 92.5672 118 92.212C 118.0313 90.596 118.2051 88.9787 118.5234 87.3789C 119.5847 82.0434 122.2043 77.1424 126.0509 73.2958C 129.8976 69.4491 134.7985 66.8295 140.134 65.7682C 141.7338 65.45 143.3512 65.2761 144.9672 65.2448C 145.3224 65.238 145.6776 65.238 146.0325 65.2448L 148 65.2448L 159.0549 65.2448L 181 65.2448L 182.3904 65.2448C 183.266 65.2448 183.7188 66.2906 183.1196 66.9291L 173.5567 77.1205C 169.2107 81.7521 169.4422 89.0298 174.0738 93.3758C 178.7054 97.7217 185.9831 97.4902 190.329 92.8586L 218.7795 61.2766C 222.8918 56.7117 222.8918 49.7781 218.7795 45.2131L 190.329 13.631C 185.9831 8.9994 178.7054 8.7679 174.0738 13.1138C 169.4422 17.4598 169.2107 24.7375 173.5567 29.3691L 183.1197 39.5606C 183.7189 40.1991 183.2661 41.2448 182.3905 41.2448L 148 41.2448L 147.8121 41.2477C 143.8395 41.1041 139.3923 41.4508 135.4529 42.2344C 129.2254 43.4731 123.3141 45.8457 118 49.2017C 114.7893 51.2295 111.7966 53.6162 109.084 56.3288C 106.3714 59.0415 103.9846 62.0342 101.9569 65.2448C 98.6008 70.5589 96.2283 76.4702 94.9896 82.6977C 94.3315 86.0062 94.0032 89.3547 94 92.6957L 94 181.1835C 94.0069 181.5384 94.0069 181.8936 94 182.2488C 93.9687 183.8648 93.7949 185.4821 93.4766 187.0819C 92.4153 192.4174 89.7957 197.3184 85.9491 201.165C 82.1024 205.0117 77.2015 207.6313 71.866 208.6926C 70.2662 209.0108 68.6488 209.1846 67.0328 209.2159C 66.6776 209.2228 66.3224 209.2228 65.9675 209.2159L 65 209.2448L 63.8121 209.2477C 59.8395 209.1041 55.3923 209.4508 51.4529 210.2344C 45.2254 211.4731 39.3141 213.8456 34 217.2017C 30.7893 219.2294 27.7966 221.6162 25.084 224.3288C 22.3714 227.0415 19.9846 230.0342 17.9569 233.2448C 14.6008 238.5589 12.2283 244.4702 10.9896 250.6977C 10.3315 254.0062 10.0032 257.3547 10 260.6957L 10 383.2448C 10 386.5585 12.6863 389.2448 16 389.2448ZM 94 182.2488L 94 92.6957M 65.9675 209.2159L 64 209.2159M 76.5471 232.2264C 72.6077 233.01 68.1605 233.3567 64.1879 233.2131L 64 233.2159M 146.0325 65.2448L 159.0549 65.2448M 148 65.2448L 181 65.2448"></path></g></g></g><g id="g-root-tx_whichtyp_1ly0jtmzuovls-stroke" data-item-order="0" transform="translate(154.5, 38)"></g><g id="g-root-tx_logicalo_qn5uu2zuqcct-stroke" data-item-order="0" transform="translate(320, 122)"></g><g id="g-root-tx_usedforc_8wibfezuqbk6-stroke" data-item-order="0" transform="translate(302, 158)"></g><g id="g-root-tx_comparis_1uuwi8qzuow7f-stroke" data-item-order="0" transform="translate(110, 278)"></g><g id="g-root-tx_usedfore_1d3mhqyzuoykk-stroke" data-item-order="0" transform="translate(50, 338)"></g><g id="g-root-tx_membersh_1lr5bvezuqakv-stroke" data-item-order="0" transform="translate(536, 350)"></g><g id="g-root-tx_usedforc_13zvbdmzuqcy0-stroke" data-item-order="0" transform="translate(536, 410)"></g><g id="g-root-tx_arithmet_zqx17ezuoxzd-stroke" data-item-order="0" transform="translate(134, 470)"></g><g id="g-root-tx_usedforp_i09hsqzuox6q-stroke" data-item-order="0" transform="translate(86, 530)"></g></g></g><path id="wi0wxpm10ezb45" d="M65.283 12.757a.35.35 0 0 0 .584.157l5.203-5.141-6.183 3.523.396 1.461zm-2.216-11.7a.35.35 0 0 0-.522.305v3.111l3.276-1.868-2.754-1.548zm3.728 2.105l-4.25 2.421v2.445l6.391-3.644-2.141-1.222zm4.708 3.303a.35.35 0 0 0 0-.609l-1.592-.9-7.365 4.199v1.782a.35.35 0 0 0 .523.305l8.435-4.777z M44.542 2.513c0-.433.355-.783.792-.783s.792.35.792.783-.355.783-.792.783-.792-.35-.792-.783zm59.171 0c0-.433.355-.783.792-.783s.792.35.792.783-.355.783-.792.783-.792-.35-.792-.783zm-85.951 7.636h-1.27v-.487c-.276.201-.864.609-1.881.609-1.202 0-2.274-.794-2.137-2.078.118-1.106 1.153-1.584 1.848-1.727l2.17-.345c0-.539-.29-.956-1.064-1.006s-1.21.305-1.571 1.017l-1.124-.605c1.218-2.631 5.029-1.764 5.029.414v4.207zm-1.27-2.86c.006.396-.062 1.112-.819 1.59-.587.37-1.841.299-1.903-.395-.049-.555.461-.791.906-.898l1.816-.297zm72.662 2.86h-1.27v-.487c-.276.201-.864.609-1.881.609-1.202 0-2.274-.794-2.137-2.078.118-1.106 1.153-1.584 1.848-1.727l2.17-.345c0-.539-.29-.956-1.064-1.006s-1.21.305-1.571 1.017l-1.124-.605c1.218-2.631 5.029-1.764 5.029.414v4.207zm-1.27-2.86c.006.396-.062 1.112-.82 1.59-.587.37-1.841.299-1.903-.395-.049-.555.461-.791.906-.898l1.816-.297zM99.096 10.149H97.85v-8.45h1.246v4.895l2.68-2.559h1.738l-2.633 2.535 2.715 3.578h-1.556l-2.077-2.707-.867.844v1.863zm6.053-6.114h-1.255v6.113h1.255V4.035zm-59.2 0h-1.255v6.113h1.255V4.035zm5.584 6.113V1.697h1.255v2.695c.361-.346 1-.485 1.47-.485 1.452 0 2.477 1.082 2.457 2.448v3.792h-1.27v-3.68c0-.408-.214-1.339-1.315-1.339-.968 0-1.342.756-1.342 1.339v3.681h-1.255zm-4.76-4.894V4.039h.621a.45.45 0 0 0 .45-.45v-.855h1.251v1.305h1.309v1.215h-1.309v3.109c0 .293.105.664.648.664.365 0 .531-.035.736-.07v1.137s-.361.113-.857.113c-1.398 0-1.777-1.051-1.777-1.788V5.254h-1.071zM36.528 4.039h-1.394l2.191 6.106h1.125l1.234-3.918 1.238 3.918h1.129l2.188-6.106h-1.383l-1.359 3.93-1.256-3.93h-1.124l-1.242 3.957-1.348-3.957zM26.212 7.141c-.02 1.566 1.187 3.129 3.223 3.129 1.566 0 2.383-.918 2.734-1.719L31.172 8c-.315.399-.801 1.094-1.738 1.094-1.145 0-1.825-.781-1.891-1.52h4.625c.074-.284.148-.995-.03-1.559-.336-1.064-1.221-2.102-2.839-2.102s-3.088 1.152-3.088 3.227zm1.363-.75h3.348c-.055-.43-.566-1.301-1.623-1.301a1.79 1.79 0 0 0-1.725 1.301zm-8.758.75c.038 1.758 1.277 3.133 3.145 3.133 1.074 0 1.723-.477 1.961-.672v.547h1.242V1.703h-1.258v2.888c-.414-.36-1.062-.68-1.93-.68-1.91 0-3.198 1.473-3.16 3.23zm1.309-.08c0 1.119.723 1.978 1.836 1.978a1.88 1.88 0 0 0 1.94-1.904c0-1.371-1.011-1.99-1.972-1.99s-1.805.798-1.805 1.916zm76.683-.028C96.771 5.275 95.532 3.9 93.664 3.9c-1.074 0-1.723.477-1.961.672v-.547h-1.242v8.22h1.258V9.583c.414.36 1.063.68 1.93.68 1.91 0 3.198-1.473 3.16-3.23zm-1.309.08c0-1.119-.723-1.978-1.836-1.978a1.88 1.88 0 0 0-1.94 1.904c0 1.371 1.011 1.99 1.972 1.99S95.5 8.231 95.5 7.113zM106.441 10.173V4.036h1.254v.382c.361-.346 1-.485 1.47-.485 1.452 0 2.477 1.082 2.457 2.448v3.792h-1.27V6.492c0-.408-.214-1.339-1.315-1.339-.969 0-1.342.756-1.342 1.339v3.681h-1.254zm-30.383-.021V1.824h1.084l4.215 5.777V1.824h1.32v8.328h-1.094l-4.207-5.796v5.796h-1.319zM5.24 10.149H4V2.377h1.014l2.664 3.597 2.654-3.592h1.03v7.766h-1.256V4.762L7.678 8.068 5.24 4.742v5.407z" transform="translate(649, 878)" fill="#ababab88" stroke="none"></path></svg>