<?xml version="1.0" encoding="utf-8" standalone="yes"?>
<!DOCTYPE svg PUBLIC "-//W3C//DTD SVG 1.1//EN" "http://www.w3.org/Graphics/SVG/1.1/DTD/svg11.dtd">
<svg width="720" height="324" viewBox="0 0 720 324" style="fill:none;stroke:none;fill-rule:evenodd;clip-rule:evenodd;stroke-linecap:round;stroke-linejoin:round;stroke-miterlimit:1.5;" version="1.1" xmlns="http://www.w3.org/2000/svg" xmlns:xlink="http://www.w3.org/1999/xlink"><style class="text-font-style fontImports" data-font-family="Roboto">@import url(https://fonts.googleapis.com/css2?family=Roboto:wght@400;700&amp;amp;display=block);</style><g id="items" style="isolation: isolate"><g id="blend" style="mix-blend-mode: normal"><g id="g-root-cp_1_bubble-1_htf8lm11sxbeo-fill" data-item-order="-153206" transform="translate(38, 122)"><g id="cp_1_bubble-1_htf8lm11sxbeo-fill" stroke="none" fill="#54502f"><g><path d="M 202 58L 10 58C 10.000001 31.4903 10 10 10 10L 202 10.000046L 202 58ZM 202 70L 202 58L 10 58.000001L 10.000004 70L 202 70ZM 10 70L 10 118L 117.068 118C 142.719 118 170 118 195 112C 195 112 202 103 202 70L 10 70Z"></path></g></g></g><g id="g-root-cp_2_bubble-2_1uo291m11sxafe-fill" data-item-order="-153180" transform="translate(254, 134)"><g id="cp_2_bubble-2_1uo291m11sxafe-fill" stroke="none" fill="#5c4938"><g><path d="M 202 58L 10 58C 10.000001 31.4903 10 10 10 10L 202 10.000046L 202 58ZM 202 70L 202 58L 10 58.000001L 10.000004 70L 202 70ZM 202 70L 202 118L 64.5 118C 54.2659 118 36.3634 117.3677 29 112L 17.5 102.5C 14 99 10.7851 94.9087 10.451 87.8146C 10.2146 82.7946 10 77.0268 10 72.6307L 10 70L 202 70Z"></path></g></g></g><g id="g-root-cp_3_bubble-3_1hclqoa11sxc0c-fill" data-item-order="-153152" transform="translate(470, 122)"><g id="cp_3_bubble-3_1hclqoa11sxc0c-fill" stroke="none" fill="#68403f"><g><path d="M 10.000004 70L 202 70.000063C 202 96.5097 202 118 202 118L 10 118L 10.000004 70ZM 202 70L 202 58L 10 58.000001L 10.000004 70L 202 70ZM 202 58L 202 10.000009L 94.9317 10C 70.4032 9.999998 45.9672 13.0082 22.171 18.9572L 19.0896 19.7276C 13.7476 21.0631 10.000003 25.8629 10.000002 31.3693L 10 58L 202 58Z"></path></g></g></g><g id="g-root-tx_pythonsy_141rpe211sxafi-fill" data-item-order="0" transform="translate(224, 38)"><g id="tx_pythonsy_141rpe211sxafi-fill" stroke="none" fill="#f4f4f4"><g><text style="font: bold 25px Roboto, sans-serif; white-space: pre;" font-weight="bold" font-size="25px" font-family="Roboto, sans-serif"><tspan x="15.08" y="43" dominant-baseline="ideographic">Python Syntax Topics</tspan></text></g></g></g><g id="g-root-tx_printfun_mahowa11sxcsn-fill" data-item-order="0" transform="translate(68, 164)"><g id="tx_printfun_mahowa11sxcsn-fill" stroke="none" fill="#ffe711"><g><text style="font: 20px Roboto, sans-serif; white-space: pre;" font-size="20px" font-family="Roboto, sans-serif"><tspan x="13.98" y="34" dominant-baseline="ideographic">Print Function</tspan></text></g></g></g><g id="g-root-tx_variable_4ju5hm11sxc00-fill" data-item-order="0" transform="translate(290, 164)"><g id="tx_variable_4ju5hm11sxc00-fill" stroke="none" fill="#f79438"><g><text style="font: 20px Roboto, sans-serif; white-space: pre;" font-size="20px" font-family="Roboto, sans-serif"><tspan x="33.8" y="34" dominant-baseline="ideographic">Variable </tspan><tspan x="16.72" y="58" dominant-baseline="ideographic">Assignment</tspan></text></g></g></g><g id="g-root-tx_comments_1heh5xm11sxb0p-fill" data-item-order="0" transform="translate(512, 164)"><g id="tx_comments_1heh5xm11sxb0p-fill" stroke="none" fill="#fb6762"><g><text style="font: 20px Roboto, sans-serif; white-space: pre;" font-size="20px" font-family="Roboto, sans-serif"><tspan x="14.98" y="34" dominant-baseline="ideographic">Comments</tspan></text></g></g></g><g id="g-root-cp_1_bubble-1_htf8lm11sxbeo-stroke" data-item-order="-153206" transform="translate(38, 122)"><g id="cp_1_bubble-1_htf8lm11sxbeo-stroke" fill="none" stroke-linecap="round" stroke-linejoin="round" stroke-miterlimit="4" stroke="#ffe711" stroke-width="2"><g><path d="M 202 58L 202 10.0001L 10.0001 10L 10 57.9999M 202 70L 202 58M 10 70L 10 58M 10 70L 10 118L 117.0683 118C 142.7191 118 170 118 195 112C 195 112 202 103 202 70"></path></g></g></g><g id="g-root-cp_2_bubble-2_1uo291m11sxafe-stroke" data-item-order="-153180" transform="translate(254, 134)"><g id="cp_2_bubble-2_1uo291m11sxafe-stroke" fill="none" stroke-linecap="round" stroke-linejoin="round" stroke-miterlimit="4" stroke="#f79438" stroke-width="2"><g><path d="M 202 58L 202 10.0001L 10.0001 10L 10 57.9999M 202 70L 202 58M 10 70L 10 58M 202 70L 202 118L 64.5 118C 54.2659 118 36.3634 117.3677 29 112L 17.5 102.5C 14 99 10.7851 94.9087 10.451 87.8146C 10.2146 82.7946 10 77.0268 10 72.6307L 10 70M 46.5 117C 33.5 115 31 109.5 27.5 100.5C 27.5 100.5 12 102 10.5 89"></path></g></g></g><g id="g-root-cp_3_bubble-3_1hclqoa11sxc0c-stroke" data-item-order="-153152" transform="translate(470, 122)"><g id="cp_3_bubble-3_1hclqoa11sxc0c-stroke" fill="none" stroke-linecap="round" stroke-linejoin="round" stroke-miterlimit="4" stroke="#fb6762" stroke-width="2"><g><path d="M 10 70L 10 118L 202 118L 202 70.0001M 202 70L 202 58M 10 70L 10 58M 202 58L 202 10L 94.9317 10C 70.4032 10 45.9672 13.0082 22.171 18.9572L 19.0896 19.7276C 13.7476 21.0631 10 25.8629 10 31.3693L 10 58M 91 10.000116C 74.0247 12.559216 48.9444 14.935516 29.5 27.000016C 29.5 27.000016 26.5 17.000016 17 20.500016"></path></g></g></g><g id="g-root-tx_pythonsy_141rpe211sxafi-stroke" data-item-order="0" transform="translate(224, 38)"></g><g id="g-root-tx_printfun_mahowa11sxcsn-stroke" data-item-order="0" transform="translate(68, 164)"></g><g id="g-root-tx_variable_4ju5hm11sxc00-stroke" data-item-order="0" transform="translate(290, 164)"></g><g id="g-root-tx_comments_1heh5xm11sxb0p-stroke" data-item-order="0" transform="translate(512, 164)"></g></g></g><path id="wdgpkzu11iiayr" d="M65.283 12.757a.35.35 0 0 0 .584.157l5.203-5.141-6.183 3.523.396 1.461zm-2.216-11.7a.35.35 0 0 0-.522.305v3.111l3.276-1.868-2.754-1.548zm3.728 2.105l-4.25 2.421v2.445l6.391-3.644-2.141-1.222zm4.708 3.303a.35.35 0 0 0 0-.609l-1.592-.9-7.365 4.199v1.782a.35.35 0 0 0 .523.305l8.435-4.777z M44.542 2.513c0-.433.355-.783.792-.783s.792.35.792.783-.355.783-.792.783-.792-.35-.792-.783zm59.171 0c0-.433.355-.783.792-.783s.792.35.792.783-.355.783-.792.783-.792-.35-.792-.783zm-85.951 7.636h-1.27v-.487c-.276.201-.864.609-1.881.609-1.202 0-2.274-.794-2.137-2.078.118-1.106 1.153-1.584 1.848-1.727l2.17-.345c0-.539-.29-.956-1.064-1.006s-1.21.305-1.571 1.017l-1.124-.605c1.218-2.631 5.029-1.764 5.029.414v4.207zm-1.27-2.86c.006.396-.062 1.112-.819 1.59-.587.37-1.841.299-1.903-.395-.049-.555.461-.791.906-.898l1.816-.297zm72.662 2.86h-1.27v-.487c-.276.201-.864.609-1.881.609-1.202 0-2.274-.794-2.137-2.078.118-1.106 1.153-1.584 1.848-1.727l2.17-.345c0-.539-.29-.956-1.064-1.006s-1.21.305-1.571 1.017l-1.124-.605c1.218-2.631 5.029-1.764 5.029.414v4.207zm-1.27-2.86c.006.396-.062 1.112-.82 1.59-.587.37-1.841.299-1.903-.395-.049-.555.461-.791.906-.898l1.816-.297zM99.096 10.149H97.85v-8.45h1.246v4.895l2.68-2.559h1.738l-2.633 2.535 2.715 3.578h-1.556l-2.077-2.707-.867.844v1.863zm6.053-6.114h-1.255v6.113h1.255V4.035zm-59.2 0h-1.255v6.113h1.255V4.035zm5.584 6.113V1.697h1.255v2.695c.361-.346 1-.485 1.47-.485 1.452 0 2.477 1.082 2.457 2.448v3.792h-1.27v-3.68c0-.408-.214-1.339-1.315-1.339-.968 0-1.342.756-1.342 1.339v3.681h-1.255zm-4.76-4.894V4.039h.621a.45.45 0 0 0 .45-.45v-.855h1.251v1.305h1.309v1.215h-1.309v3.109c0 .293.105.664.648.664.365 0 .531-.035.736-.07v1.137s-.361.113-.857.113c-1.398 0-1.777-1.051-1.777-1.788V5.254h-1.071zM36.528 4.039h-1.394l2.191 6.106h1.125l1.234-3.918 1.238 3.918h1.129l2.188-6.106h-1.383l-1.359 3.93-1.256-3.93h-1.124l-1.242 3.957-1.348-3.957zM26.212 7.141c-.02 1.566 1.187 3.129 3.223 3.129 1.566 0 2.383-.918 2.734-1.719L31.172 8c-.315.399-.801 1.094-1.738 1.094-1.145 0-1.825-.781-1.891-1.52h4.625c.074-.284.148-.995-.03-1.559-.336-1.064-1.221-2.102-2.839-2.102s-3.088 1.152-3.088 3.227zm1.363-.75h3.348c-.055-.43-.566-1.301-1.623-1.301a1.79 1.79 0 0 0-1.725 1.301zm-8.758.75c.038 1.758 1.277 3.133 3.145 3.133 1.074 0 1.723-.477 1.961-.672v.547h1.242V1.703h-1.258v2.888c-.414-.36-1.062-.68-1.93-.68-1.91 0-3.198 1.473-3.16 3.23zm1.309-.08c0 1.119.723 1.978 1.836 1.978a1.88 1.88 0 0 0 1.94-1.904c0-1.371-1.011-1.99-1.972-1.99s-1.805.798-1.805 1.916zm76.683-.028C96.771 5.275 95.532 3.9 93.664 3.9c-1.074 0-1.723.477-1.961.672v-.547h-1.242v8.22h1.258V9.583c.414.36 1.063.68 1.93.68 1.91 0 3.198-1.473 3.16-3.23zm-1.309.08c0-1.119-.723-1.978-1.836-1.978a1.88 1.88 0 0 0-1.94 1.904c0 1.371 1.011 1.99 1.972 1.99S95.5 8.231 95.5 7.113zM106.441 10.173V4.036h1.254v.382c.361-.346 1-.485 1.47-.485 1.452 0 2.477 1.082 2.457 2.448v3.792h-1.27V6.492c0-.408-.214-1.339-1.315-1.339-.969 0-1.342.756-1.342 1.339v3.681h-1.254zm-30.383-.021V1.824h1.084l4.215 5.777V1.824h1.32v8.328h-1.094l-4.207-5.796v5.796h-1.319zM5.24 10.149H4V2.377h1.014l2.664 3.597 2.654-3.592h1.03v7.766h-1.256V4.762L7.678 8.068 5.24 4.742v5.407z" transform="translate(584, 290)" fill="#ababab88" stroke="none"></path></svg>