<?xml version="1.0" encoding="utf-8" standalone="yes"?>
<!DOCTYPE svg PUBLIC "-//W3C//DTD SVG 1.1//EN" "http://www.w3.org/Graphics/SVG/1.1/DTD/svg11.dtd">
<svg width="528" height="468" viewBox="0 0 528 468" style="fill:none;stroke:none;fill-rule:evenodd;clip-rule:evenodd;stroke-linecap:round;stroke-linejoin:round;stroke-miterlimit:1.5;" version="1.1" xmlns="http://www.w3.org/2000/svg" xmlns:xlink="http://www.w3.org/1999/xlink"><style class="text-font-style fontImports" data-font-family="Roboto">@import url(https://fonts.googleapis.com/css2?family=Roboto:wght@400;700&amp;amp;display=block);</style><g id="items" style="isolation: isolate"><g id="blend" style="mix-blend-mode: normal"><g id="g-root-sy_1_cu_mdljd610ewidd-fill" data-item-order="-120950" transform="translate(134, 158)"><g id="sy_1_cu_mdljd610ewidd-fill" stroke="none" fill="#4b533a"><g><path d="M 10 46L 190 46L 190 118L 10 118L 10 46ZM 190 46L 250 16L 250 88L 237.7607 94.1197C 236.8743 94.0414 235.9501 94 235 94C 228.3726 94 223 96.0147 223 98.5C 223 99.3074 223.567 100.065 224.5597 100.7201L 190 118L 190 46ZM 10 46L 190 46L 250 16L 217 16L 217 23.5C 217 25.9853 211.6274 28 205 28C 198.3726 28 193 25.9853 193 23.5L 193 16L 177 16L 177 22.0622C 182.6754 22.4193 187 24.2703 187 26.5L 187 35.5C 187 37.9853 181.6274 40 175 40C 168.3726 40 163 37.9853 163 35.5L 163 27.9378C 157.3246 27.5807 153 25.7297 153 23.5L 153 16L 137 16L 137 22.0622C 142.6754 22.4193 147 24.2703 147 26.5L 147 35.5C 147 37.9853 141.6274 40 135 40C 128.3726 40 123 37.9853 123 35.5L 123 27.9378C 117.3246 27.5807 113 25.7297 113 23.5L 113 16L 97 16L 97 22.0622C 102.6754 22.4193 107 24.2703 107 26.5L 107 35.5C 107 37.9853 101.6274 40 95 40C 88.3726 40 83 37.9853 83 35.5L 83 27.9378C 77.3246 27.5807 73 25.7297 73 23.5L 73 16L 70 16L 57.7607 22.1197C 63.0574 22.5873 67 24.371 67 26.5L 67 35.5C 67 37.9853 61.6274 40 55 40C 48.3726 40 43 37.9853 43 35.5L 43 29.5L 10 46ZM 67 35.5C 67 37.9853 61.6274 40 55 40C 48.3726 40 43 37.9853 43 35.5L 43 26.5C 43 28.9853 48.3726 31 55 31C 61.6274 31 67 28.9853 67 26.5L 67 35.5ZM 97 14.5C 97 16.9853 91.6274 19 85 19C 78.3726 19 73 16.9853 73 14.5C 73 12.0147 78.3726 10 85 10C 91.6274 10 97 12.0147 97 14.5ZM 67 26.5C 67 28.9853 61.6274 31 55 31C 48.3726 31 43 28.9853 43 26.5C 43 24.0147 48.3726 22 55 22C 61.6274 22 67 24.0147 67 26.5ZM 107 35.5C 107 37.9853 101.6274 40 95 40C 88.3726 40 83 37.9853 83 35.5L 83 26.5C 83 28.9853 88.3726 31 95 31C 101.6274 31 107 28.9853 107 26.5L 107 35.5ZM 137 14.5C 137 16.9853 131.6274 19 125 19C 118.3726 19 113 16.9853 113 14.5C 113 12.0147 118.3726 10 125 10C 131.6274 10 137 12.0147 137 14.5ZM 107 26.5C 107 28.9853 101.6274 31 95 31C 88.3726 31 83 28.9853 83 26.5C 83 24.0147 88.3726 22 95 22C 101.6274 22 107 24.0147 107 26.5ZM 147 35.5C 147 37.9853 141.6274 40 135 40C 128.3726 40 123 37.9853 123 35.5L 123 26.5C 123 28.9853 128.3726 31 135 31C 141.6274 31 147 28.9853 147 26.5L 147 35.5ZM 177 14.5C 177 16.9853 171.6274 19 165 19C 158.3726 19 153 16.9853 153 14.5C 153 12.0147 158.3726 10 165 10C 171.6274 10 177 12.0147 177 14.5ZM 147 26.5C 147 28.9853 141.6274 31 135 31C 128.3726 31 123 28.9853 123 26.5C 123 24.0147 128.3726 22 135 22C 141.6274 22 147 24.0147 147 26.5ZM 217 23.5C 217 25.9853 211.6274 28 205 28C 198.3726 28 193 25.9853 193 23.5L 193 14.5C 193 16.9853 198.3726 19 205 19C 211.6274 19 217 16.9853 217 14.5L 217 23.5ZM 187 35.5C 187 37.9853 181.6274 40 175 40C 168.3726 40 163 37.9853 163 35.5L 163 26.5C 163 28.9853 168.3726 31 175 31C 181.6274 31 187 28.9853 187 26.5L 187 35.5ZM 217 14.5C 217 16.9853 211.6274 19 205 19C 198.3726 19 193 16.9853 193 14.5C 193 12.0147 198.3726 10 205 10C 211.6274 10 217 12.0147 217 14.5ZM 187 26.5C 187 28.9853 181.6274 31 175 31C 168.3726 31 163 28.9853 163 26.5C 163 24.0147 168.3726 22 175 22C 181.6274 22 187 24.0147 187 26.5ZM 83.6568 27.9721C 83.2312 27.5109 83 27.0156 83 26.5C 83 24.0147 88.3726 22 95 22C 95.6814 22 96.3496 22.0213 97 22.0622L 97 14.5C 97 16.9853 91.6274 19 85 19C 78.3726 19 73 16.9853 73 14.5L 73 23.5C 73 25.815 77.6616 27.7217 83.6568 27.9721ZM 123.6568 27.9721C 123.2312 27.5109 123 27.0156 123 26.5C 123 24.0147 128.3726 22 135 22C 135.6814 22 136.3496 22.0213 137 22.0622L 137 14.5C 137 16.9853 131.6274 19 125 19C 118.3726 19 113 16.9853 113 14.5L 113 23.5C 113 25.815 117.6616 27.7217 123.6568 27.9721ZM 163.6568 27.9721C 163.2312 27.5109 163 27.0156 163 26.5C 163 24.0147 168.3726 22 175 22C 175.6814 22 176.3496 22.0213 177 22.0622L 177 14.5C 177 16.9853 171.6274 19 165 19C 158.3726 19 153 16.9853 153 14.5L 153 23.5C 153 25.815 157.6616 27.7217 163.6568 27.9721Z"></path></g></g></g><g id="g-root-sy_2_cu_1lws1fu10ewiyy-fill" data-item-order="-120946" transform="translate(74, 230)"><g id="sy_2_cu_1lws1fu10ewiyy-fill" stroke="none" fill="#3b5649"><g><path d="M 10 46L 310 46L 310 118L 10 118L 10 46ZM 10 46L 70 46L 70 16L 57.1363 22.4319C 61.194 23.1536 64 24.7039 64 26.5L 64 35.5C 64 37.9853 58.6274 40 52 40C 45.3726 40 40 37.9853 40 35.5L 40 31L 10 46ZM 64 35.5C 64 37.9853 58.6274 40 52 40C 45.3726 40 40 37.9853 40 35.5L 40 26.5C 40 28.9853 45.3726 31 52 31C 58.6274 31 64 28.9853 64 26.5L 64 35.5ZM 310 46L 370 16L 337 16L 337 23.5C 337 25.9853 331.6274 28 325 28C 318.3726 28 313 25.9853 313 23.5L 313 16L 310 16L 297.7607 22.1197C 303.0574 22.5873 307 24.371 307 26.5L 307 35.5C 307 37.9853 301.6274 40 295 40C 288.3726 40 283 37.9853 283 35.5L 283 29.5L 250 46L 310 46ZM 310 46L 370 16L 370 88L 357.7607 94.1197C 356.8743 94.0414 355.9501 94 355 94C 348.3726 94 343 96.0147 343 98.5C 343 99.3074 343.567 100.065 344.5597 100.7201L 310 118L 310 46ZM 337 23.5C 337 25.9853 331.6274 28 325 28C 318.3726 28 313 25.9853 313 23.5L 313 14.5C 313 16.9853 318.3726 19 325 19C 331.6274 19 337 16.9853 337 14.5L 337 23.5ZM 307 35.5C 307 37.9853 301.6274 40 295 40C 288.3726 40 283 37.9853 283 35.5L 283 26.5C 283 28.9853 288.3726 31 295 31C 301.6274 31 307 28.9853 307 26.5L 307 35.5ZM 337 14.5C 337 16.9853 331.6274 19 325 19C 318.3726 19 313 16.9853 313 14.5C 313 12.0147 318.3726 10 325 10C 331.6274 10 337 12.0147 337 14.5ZM 307 26.5C 307 28.9853 301.6274 31 295 31C 288.3726 31 283 28.9853 283 26.5C 283 24.0147 288.3726 22 295 22C 301.6274 22 307 24.0147 307 26.5ZM 64 26.5C 64 28.9853 58.6274 31 52 31C 45.3726 31 40 28.9853 40 26.5C 40 24.0147 45.3726 22 52 22C 58.6274 22 64 24.0147 64 26.5Z"></path></g></g></g><g id="g-root-sy_3_cu_qunznu10ewjr7-fill" data-item-order="-120942" transform="translate(14, 302)"><g id="sy_3_cu_qunznu10ewjr7-fill" stroke="none" fill="#3e4e69"><g><path d="M 10 46L 430 46L 430 118L 10 118L 10 46ZM 10 46L 70 46L 70 16L 57.1363 22.4319C 61.194 23.1536 64 24.7039 64 26.5L 64 35.5C 64 37.9853 58.6274 40 52 40C 45.3726 40 40 37.9853 40 35.5L 40 31L 10 46ZM 64 35.5C 64 37.9853 58.6274 40 52 40C 45.3726 40 40 37.9853 40 35.5L 40 26.5C 40 28.9853 45.3726 31 52 31C 58.6274 31 64 28.9853 64 26.5L 64 35.5ZM 430 46L 490 16L 457 16L 457 23.5C 457 25.9853 451.6274 28 445 28C 438.3726 28 433 25.9853 433 23.5L 433 16L 430 16L 417.7607 22.1197C 423.0574 22.5873 427 24.371 427 26.5L 427 35.5C 427 37.9853 421.6274 40 415 40C 408.3726 40 403 37.9853 403 35.5L 403 29.5L 370 46L 430 46ZM 490 16L 430 46L 430 118L 490 88L 490 16ZM 457 23.5C 457 25.9853 451.6274 28 445 28C 438.3726 28 433 25.9853 433 23.5L 433 14.5C 433 16.9853 438.3726 19 445 19C 451.6274 19 457 16.9853 457 14.5L 457 23.5ZM 427 35.5C 427 37.9853 421.6274 40 415 40C 408.3726 40 403 37.9853 403 35.5L 403 26.5C 403 28.9853 408.3726 31 415 31C 421.6274 31 427 28.9853 427 26.5L 427 35.5ZM 457 14.5C 457 16.9853 451.6274 19 445 19C 438.3726 19 433 16.9853 433 14.5C 433 12.0147 438.3726 10 445 10C 451.6274 10 457 12.0147 457 14.5ZM 427 26.5C 427 28.9853 421.6274 31 415 31C 408.3726 31 403 28.9853 403 26.5C 403 24.0147 408.3726 22 415 22C 421.6274 22 427 24.0147 427 26.5ZM 64 26.5C 64 28.9853 58.6274 31 52 31C 45.3726 31 40 28.9853 40 26.5C 40 24.0147 45.3726 22 52 22C 58.6274 22 64 24.0147 64 26.5Z"></path></g></g></g><g id="g-root-tx_pythonpr_djtydm10ewi6c-fill" data-item-order="0" transform="translate(80, 38)"><g id="tx_pythonpr_djtydm10ewi6c-fill" stroke="none" fill="#f4f4f4"><g><text style="font: bold 25px Roboto, sans-serif; white-space: pre;" font-weight="bold" font-size="25px" font-family="Roboto, sans-serif"><tspan x="15.3" y="43" dominant-baseline="ideographic">Python Project Setup Pyramid</tspan></text></g></g></g><g id="g-root-tx_projects_mgpwsq10ewirz-fill" data-item-order="0" transform="translate(146, 218)"><g id="tx_projects_mgpwsq10ewirz-fill" stroke="none" fill="#a6da37"><g><text style="font: 20px Roboto, sans-serif; white-space: pre;" font-size="20px" font-family="Roboto, sans-serif"><tspan x="13.28" y="34" dominant-baseline="ideographic">Project Structure</tspan></text></g></g></g><g id="g-root-tx_packagei_18n6ybu10ewjk6-fill" data-item-order="0" transform="translate(128, 290)"><g id="tx_packagei_18n6ybu10ewjk6-fill" stroke="none" fill="#43dd93"><g><text style="font: 20px Roboto, sans-serif; white-space: pre;" font-size="20px" font-family="Roboto, sans-serif"><tspan x="15.81" y="34" dominant-baseline="ideographic">Package Installation</tspan></text></g></g></g><g id="g-root-tx_virtuale_1qduhqi10ewkct-fill" data-item-order="0" transform="translate(134, 362)"><g id="tx_virtuale_1qduhqi10ewkct-fill" stroke="none" fill="#4f91fc"><g><text style="font: 20px Roboto, sans-serif; white-space: pre;" font-size="20px" font-family="Roboto, sans-serif"><tspan x="12.56" y="34" dominant-baseline="ideographic">Virtual Environment</tspan></text></g></g></g><g id="g-root-sy_1_cu_mdljd610ewidd-stroke" data-item-order="-120950" transform="translate(134, 158)"><g id="sy_1_cu_mdljd610ewidd-stroke" fill="none" stroke-linecap="round" stroke-linejoin="round" stroke-miterlimit="4" stroke="#a6da37" stroke-width="2"><g><path d="M 10 46L 190 46L 190 118L 10 118L 10 46ZM 190 46L 250 16L 250 88L 237.7607 94.1197C 236.8743 94.0414 235.9501 94 235 94C 228.3726 94 223 96.0147 223 98.5C 223 99.3074 223.567 100.065 224.5597 100.7201L 190 118L 190 46ZM 10 46L 190 46L 250 16L 217 16L 217 23.5C 217 25.9853 211.6274 28 205 28C 198.3726 28 193 25.9853 193 23.5L 193 16L 177 16L 177 22.0622C 182.6754 22.4193 187 24.2703 187 26.5L 187 35.5C 187 37.9853 181.6274 40 175 40C 168.3726 40 163 37.9853 163 35.5L 163 27.9378C 157.3246 27.5807 153 25.7297 153 23.5L 153 16L 137 16L 137 22.0622C 142.6754 22.4193 147 24.2703 147 26.5L 147 35.5C 147 37.9853 141.6274 40 135 40C 128.3726 40 123 37.9853 123 35.5L 123 27.9378C 117.3246 27.5807 113 25.7297 113 23.5L 113 16L 97 16L 97 22.0622C 102.6754 22.4193 107 24.2703 107 26.5L 107 35.5C 107 37.9853 101.6274 40 95 40C 88.3726 40 83 37.9853 83 35.5L 83 27.9378C 77.3246 27.5807 73 25.7297 73 23.5L 73 16L 70 16L 57.7607 22.1197C 63.0574 22.5873 67 24.371 67 26.5L 67 35.5C 67 37.9853 61.6274 40 55 40C 48.3726 40 43 37.9853 43 35.5L 43 29.5L 10 46ZM 67 35.5C 67 37.9853 61.6274 40 55 40C 48.3726 40 43 37.9853 43 35.5L 43 26.5C 43 28.9853 48.3726 31 55 31C 61.6274 31 67 28.9853 67 26.5L 67 35.5ZM 97 14.5C 97 16.9853 91.6274 19 85 19C 78.3726 19 73 16.9853 73 14.5C 73 12.0147 78.3726 10 85 10C 91.6274 10 97 12.0147 97 14.5ZM 67 26.5C 67 28.9853 61.6274 31 55 31C 48.3726 31 43 28.9853 43 26.5C 43 24.0147 48.3726 22 55 22C 61.6274 22 67 24.0147 67 26.5ZM 107 35.5C 107 37.9853 101.6274 40 95 40C 88.3726 40 83 37.9853 83 35.5L 83 26.5C 83 28.9853 88.3726 31 95 31C 101.6274 31 107 28.9853 107 26.5L 107 35.5ZM 137 14.5C 137 16.9853 131.6274 19 125 19C 118.3726 19 113 16.9853 113 14.5C 113 12.0147 118.3726 10 125 10C 131.6274 10 137 12.0147 137 14.5ZM 107 26.5C 107 28.9853 101.6274 31 95 31C 88.3726 31 83 28.9853 83 26.5C 83 24.0147 88.3726 22 95 22C 101.6274 22 107 24.0147 107 26.5ZM 147 35.5C 147 37.9853 141.6274 40 135 40C 128.3726 40 123 37.9853 123 35.5L 123 26.5C 123 28.9853 128.3726 31 135 31C 141.6274 31 147 28.9853 147 26.5L 147 35.5ZM 177 14.5C 177 16.9853 171.6274 19 165 19C 158.3726 19 153 16.9853 153 14.5C 153 12.0147 158.3726 10 165 10C 171.6274 10 177 12.0147 177 14.5ZM 147 26.5C 147 28.9853 141.6274 31 135 31C 128.3726 31 123 28.9853 123 26.5C 123 24.0147 128.3726 22 135 22C 141.6274 22 147 24.0147 147 26.5ZM 217 23.5C 217 25.9853 211.6274 28 205 28C 198.3726 28 193 25.9853 193 23.5L 193 14.5C 193 16.9853 198.3726 19 205 19C 211.6274 19 217 16.9853 217 14.5L 217 23.5ZM 187 35.5C 187 37.9853 181.6274 40 175 40C 168.3726 40 163 37.9853 163 35.5L 163 26.5C 163 28.9853 168.3726 31 175 31C 181.6274 31 187 28.9853 187 26.5L 187 35.5ZM 217 14.5C 217 16.9853 211.6274 19 205 19C 198.3726 19 193 16.9853 193 14.5C 193 12.0147 198.3726 10 205 10C 211.6274 10 217 12.0147 217 14.5ZM 187 26.5C 187 28.9853 181.6274 31 175 31C 168.3726 31 163 28.9853 163 26.5C 163 24.0147 168.3726 22 175 22C 181.6274 22 187 24.0147 187 26.5ZM 83.6568 27.9721C 83.2312 27.5109 83 27.0156 83 26.5C 83 24.0147 88.3726 22 95 22C 95.6814 22 96.3496 22.0213 97 22.0622L 97 14.5C 97 16.9853 91.6274 19 85 19C 78.3726 19 73 16.9853 73 14.5L 73 23.5C 73 25.815 77.6616 27.7217 83.6568 27.9721ZM 123.6568 27.9721C 123.2312 27.5109 123 27.0156 123 26.5C 123 24.0147 128.3726 22 135 22C 135.6814 22 136.3496 22.0213 137 22.0622L 137 14.5C 137 16.9853 131.6274 19 125 19C 118.3726 19 113 16.9853 113 14.5L 113 23.5C 113 25.815 117.6616 27.7217 123.6568 27.9721ZM 163.6568 27.9721C 163.2312 27.5109 163 27.0156 163 26.5C 163 24.0147 168.3726 22 175 22C 175.6814 22 176.3496 22.0213 177 22.0622L 177 14.5C 177 16.9853 171.6274 19 165 19C 158.3726 19 153 16.9853 153 14.5L 153 23.5C 153 25.815 157.6616 27.7217 163.6568 27.9721Z"></path></g></g></g><g id="g-root-sy_2_cu_1lws1fu10ewiyy-stroke" data-item-order="-120946" transform="translate(74, 230)"><g id="sy_2_cu_1lws1fu10ewiyy-stroke" fill="none" stroke-linecap="round" stroke-linejoin="round" stroke-miterlimit="4" stroke="#43dd93" stroke-width="2"><g><path d="M 10 46L 310 46L 310 118L 10 118L 10 46ZM 10 46L 70 46L 70 16L 57.1363 22.4319C 61.194 23.1536 64 24.7039 64 26.5L 64 35.5C 64 37.9853 58.6274 40 52 40C 45.3726 40 40 37.9853 40 35.5L 40 31L 10 46ZM 64 35.5C 64 37.9853 58.6274 40 52 40C 45.3726 40 40 37.9853 40 35.5L 40 26.5C 40 28.9853 45.3726 31 52 31C 58.6274 31 64 28.9853 64 26.5L 64 35.5ZM 310 46L 370 16L 337 16L 337 23.5C 337 25.9853 331.6274 28 325 28C 318.3726 28 313 25.9853 313 23.5L 313 16L 310 16L 297.7607 22.1197C 303.0574 22.5873 307 24.371 307 26.5L 307 35.5C 307 37.9853 301.6274 40 295 40C 288.3726 40 283 37.9853 283 35.5L 283 29.5L 250 46L 310 46ZM 310 46L 370 16L 370 88L 357.7607 94.1197C 356.8743 94.0414 355.9501 94 355 94C 348.3726 94 343 96.0147 343 98.5C 343 99.3074 343.567 100.065 344.5597 100.7201L 310 118L 310 46ZM 337 23.5C 337 25.9853 331.6274 28 325 28C 318.3726 28 313 25.9853 313 23.5L 313 14.5C 313 16.9853 318.3726 19 325 19C 331.6274 19 337 16.9853 337 14.5L 337 23.5ZM 307 35.5C 307 37.9853 301.6274 40 295 40C 288.3726 40 283 37.9853 283 35.5L 283 26.5C 283 28.9853 288.3726 31 295 31C 301.6274 31 307 28.9853 307 26.5L 307 35.5ZM 337 14.5C 337 16.9853 331.6274 19 325 19C 318.3726 19 313 16.9853 313 14.5C 313 12.0147 318.3726 10 325 10C 331.6274 10 337 12.0147 337 14.5ZM 307 26.5C 307 28.9853 301.6274 31 295 31C 288.3726 31 283 28.9853 283 26.5C 283 24.0147 288.3726 22 295 22C 301.6274 22 307 24.0147 307 26.5ZM 64 26.5C 64 28.9853 58.6274 31 52 31C 45.3726 31 40 28.9853 40 26.5C 40 24.0147 45.3726 22 52 22C 58.6274 22 64 24.0147 64 26.5Z"></path></g></g></g><g id="g-root-sy_3_cu_qunznu10ewjr7-stroke" data-item-order="-120942" transform="translate(14, 302)"><g id="sy_3_cu_qunznu10ewjr7-stroke" fill="none" stroke-linecap="round" stroke-linejoin="round" stroke-miterlimit="4" stroke="#4f91fc" stroke-width="2"><g><path d="M 10 46L 430 46L 430 118L 10 118L 10 46ZM 10 46L 70 46L 70 16L 57.1363 22.4319C 61.194 23.1536 64 24.7039 64 26.5L 64 35.5C 64 37.9853 58.6274 40 52 40C 45.3726 40 40 37.9853 40 35.5L 40 31L 10 46ZM 64 35.5C 64 37.9853 58.6274 40 52 40C 45.3726 40 40 37.9853 40 35.5L 40 26.5C 40 28.9853 45.3726 31 52 31C 58.6274 31 64 28.9853 64 26.5L 64 35.5ZM 430 46L 490 16L 457 16L 457 23.5C 457 25.9853 451.6274 28 445 28C 438.3726 28 433 25.9853 433 23.5L 433 16L 430 16L 417.7607 22.1197C 423.0574 22.5873 427 24.371 427 26.5L 427 35.5C 427 37.9853 421.6274 40 415 40C 408.3726 40 403 37.9853 403 35.5L 403 29.5L 370 46L 430 46ZM 490 16L 430 46L 430 118L 490 88L 490 16ZM 457 23.5C 457 25.9853 451.6274 28 445 28C 438.3726 28 433 25.9853 433 23.5L 433 14.5C 433 16.9853 438.3726 19 445 19C 451.6274 19 457 16.9853 457 14.5L 457 23.5ZM 427 35.5C 427 37.9853 421.6274 40 415 40C 408.3726 40 403 37.9853 403 35.5L 403 26.5C 403 28.9853 408.3726 31 415 31C 421.6274 31 427 28.9853 427 26.5L 427 35.5ZM 457 14.5C 457 16.9853 451.6274 19 445 19C 438.3726 19 433 16.9853 433 14.5C 433 12.0147 438.3726 10 445 10C 451.6274 10 457 12.0147 457 14.5ZM 427 26.5C 427 28.9853 421.6274 31 415 31C 408.3726 31 403 28.9853 403 26.5C 403 24.0147 408.3726 22 415 22C 421.6274 22 427 24.0147 427 26.5ZM 64 26.5C 64 28.9853 58.6274 31 52 31C 45.3726 31 40 28.9853 40 26.5C 40 24.0147 45.3726 22 52 22C 58.6274 22 64 24.0147 64 26.5Z"></path></g></g></g><g id="g-root-tx_pythonpr_djtydm10ewi6c-stroke" data-item-order="0" transform="translate(80, 38)"></g><g id="g-root-tx_projects_mgpwsq10ewirz-stroke" data-item-order="0" transform="translate(146, 218)"></g><g id="g-root-tx_packagei_18n6ybu10ewjk6-stroke" data-item-order="0" transform="translate(128, 290)"></g><g id="g-root-tx_virtuale_1qduhqi10ewkct-stroke" data-item-order="0" transform="translate(134, 362)"></g></g></g><path id="wdjuhd6136o7wi" d="M65.283 12.757a.35.35 0 0 0 .584.157l5.203-5.141-6.183 3.523.396 1.461zm-2.216-11.7a.35.35 0 0 0-.522.305v3.111l3.276-1.868-2.754-1.548zm3.728 2.105l-4.25 2.421v2.445l6.391-3.644-2.141-1.222zm4.708 3.303a.35.35 0 0 0 0-.609l-1.592-.9-7.365 4.199v1.782a.35.35 0 0 0 .523.305l8.435-4.777z M44.542 2.513c0-.433.355-.783.792-.783s.792.35.792.783-.355.783-.792.783-.792-.35-.792-.783zm59.171 0c0-.433.355-.783.792-.783s.792.35.792.783-.355.783-.792.783-.792-.35-.792-.783zm-85.951 7.636h-1.27v-.487c-.276.201-.864.609-1.881.609-1.202 0-2.274-.794-2.137-2.078.118-1.106 1.153-1.584 1.848-1.727l2.17-.345c0-.539-.29-.956-1.064-1.006s-1.21.305-1.571 1.017l-1.124-.605c1.218-2.631 5.029-1.764 5.029.414v4.207zm-1.27-2.86c.006.396-.062 1.112-.819 1.59-.587.37-1.841.299-1.903-.395-.049-.555.461-.791.906-.898l1.816-.297zm72.662 2.86h-1.27v-.487c-.276.201-.864.609-1.881.609-1.202 0-2.274-.794-2.137-2.078.118-1.106 1.153-1.584 1.848-1.727l2.17-.345c0-.539-.29-.956-1.064-1.006s-1.21.305-1.571 1.017l-1.124-.605c1.218-2.631 5.029-1.764 5.029.414v4.207zm-1.27-2.86c.006.396-.062 1.112-.82 1.59-.587.37-1.841.299-1.903-.395-.049-.555.461-.791.906-.898l1.816-.297zM99.096 10.149H97.85v-8.45h1.246v4.895l2.68-2.559h1.738l-2.633 2.535 2.715 3.578h-1.556l-2.077-2.707-.867.844v1.863zm6.053-6.114h-1.255v6.113h1.255V4.035zm-59.2 0h-1.255v6.113h1.255V4.035zm5.584 6.113V1.697h1.255v2.695c.361-.346 1-.485 1.47-.485 1.452 0 2.477 1.082 2.457 2.448v3.792h-1.27v-3.68c0-.408-.214-1.339-1.315-1.339-.968 0-1.342.756-1.342 1.339v3.681h-1.255zm-4.76-4.894V4.039h.621a.45.45 0 0 0 .45-.45v-.855h1.251v1.305h1.309v1.215h-1.309v3.109c0 .293.105.664.648.664.365 0 .531-.035.736-.07v1.137s-.361.113-.857.113c-1.398 0-1.777-1.051-1.777-1.788V5.254h-1.071zM36.528 4.039h-1.394l2.191 6.106h1.125l1.234-3.918 1.238 3.918h1.129l2.188-6.106h-1.383l-1.359 3.93-1.256-3.93h-1.124l-1.242 3.957-1.348-3.957zM26.212 7.141c-.02 1.566 1.187 3.129 3.223 3.129 1.566 0 2.383-.918 2.734-1.719L31.172 8c-.315.399-.801 1.094-1.738 1.094-1.145 0-1.825-.781-1.891-1.52h4.625c.074-.284.148-.995-.03-1.559-.336-1.064-1.221-2.102-2.839-2.102s-3.088 1.152-3.088 3.227zm1.363-.75h3.348c-.055-.43-.566-1.301-1.623-1.301a1.79 1.79 0 0 0-1.725 1.301zm-8.758.75c.038 1.758 1.277 3.133 3.145 3.133 1.074 0 1.723-.477 1.961-.672v.547h1.242V1.703h-1.258v2.888c-.414-.36-1.062-.68-1.93-.68-1.91 0-3.198 1.473-3.16 3.23zm1.309-.08c0 1.119.723 1.978 1.836 1.978a1.88 1.88 0 0 0 1.94-1.904c0-1.371-1.011-1.99-1.972-1.99s-1.805.798-1.805 1.916zm76.683-.028C96.771 5.275 95.532 3.9 93.664 3.9c-1.074 0-1.723.477-1.961.672v-.547h-1.242v8.22h1.258V9.583c.414.36 1.063.68 1.93.68 1.91 0 3.198-1.473 3.16-3.23zm-1.309.08c0-1.119-.723-1.978-1.836-1.978a1.88 1.88 0 0 0-1.94 1.904c0 1.371 1.011 1.99 1.972 1.99S95.5 8.231 95.5 7.113zM106.441 10.173V4.036h1.254v.382c.361-.346 1-.485 1.47-.485 1.452 0 2.477 1.082 2.457 2.448v3.792h-1.27V6.492c0-.408-.214-1.339-1.315-1.339-.969 0-1.342.756-1.342 1.339v3.681h-1.254zm-30.383-.021V1.824h1.084l4.215 5.777V1.824h1.32v8.328h-1.094l-4.207-5.796v5.796h-1.319zM5.24 10.149H4V2.377h1.014l2.664 3.597 2.654-3.592h1.03v7.766h-1.256V4.762L7.678 8.068 5.24 4.742v5.407z" transform="translate(395, 437)" fill="#ababab88" stroke="none"></path></svg>