<?xml version="1.0" encoding="utf-8" standalone="yes"?>
<!DOCTYPE svg PUBLIC "-//W3C//DTD SVG 1.1//EN" "http://www.w3.org/Graphics/SVG/1.1/DTD/svg11.dtd">
<svg width="732" height="582" viewBox="0 0 732 582" style="fill:none;stroke:none;fill-rule:evenodd;clip-rule:evenodd;stroke-linecap:round;stroke-linejoin:round;stroke-miterlimit:1.5;" version="1.1" xmlns="http://www.w3.org/2000/svg" xmlns:xlink="http://www.w3.org/1999/xlink"><style class="text-font-style fontImports" data-font-family="Roboto">@import url(https://fonts.googleapis.com/css2?family=Roboto:wght@400;700&amp;amp;display=block);</style><rect id="" x="0" y="0" width="732" height="582" style="fill: #2c2c2c;"></rect><g id="items" style="isolation: isolate"><g id="blend" style="mix-blend-mode: normal"><g id="g-root-tf_91igpn154r2m8-fill" data-item-order="-639036"><g id="tf_91igpn154r2m8-fill" stroke="none" fill="#2c2c2c"><g><path d="M 0 0L 732 0L 732 582L 0 582Z"></path></g></g></g><g id="g-root-sy_4_cu_vector_1lt16vv154pm2r-fill" data-item-order="-164978" transform="translate(35.734375, 440)"><g id="sy_4_cu_vector_1lt16vv154pm2r-fill" stroke="none" fill="#3e4e69"><g><path d="M 397.9794 10L 446.4768 94L 10 94L 58.4974 10L 397.9794 10Z"></path></g></g></g><g id="g-root-sy_3_cu_vector_1cxe6mz154pmvg-fill" data-item-order="-164974" transform="translate(84.232421875, 356)"><g id="sy_3_cu_vector_1cxe6mz154pmvg-fill" stroke="none" fill="#3b5649"><g><path d="M 300.9846 10L 349.482 94L 10 94L 58.4974 10L 300.9846 10Z"></path></g></g></g><g id="g-root-sy_2_cu_vector_zmk5cr154plal-fill" data-item-order="-164970" transform="translate(132.728515625, 272)"><g id="sy_2_cu_vector_zmk5cr154plal-fill" stroke="none" fill="#4b533a"><g><path d="M 203.9897 10L 252.4871 94L 10 94L 58.4974 10L 203.9897 10Z"></path></g></g></g><g id="g-root-sy_1_cu_vector_v6qn8b154pm2u-fill" data-item-order="-164966" transform="translate(181.2265625, 146)"><g id="sy_1_cu_vector_v6qn8b154pm2u-fill" stroke="none" fill="#344e57"><g><path d="M 82.746101 10L 155.492301 136L 10 136L 82.746101 10Z"></path></g></g></g><g id="g-root-tx_pythoncl_4mlgb154pmv7-fill" data-item-order="0" transform="translate(236, 38)"><g id="tx_pythoncl_4mlgb154pmv7-fill" stroke="none" fill="#f4f4f4"><g><text style="font: bold 25px Roboto, sans-serif; white-space: pre;" font-weight="bold" font-size="25px" font-family="Roboto, sans-serif"><tspan x="12.57" y="43" dominant-baseline="ideographic">Python Class Structure</tspan></text></g></g></g><g id="g-root-ic_shar_zkp2qj154cyry-fill" data-item-order="0" transform="translate(230, 206)"></g><g id="g-root-tx_objectme_1urskkb154plov-fill" data-item-order="0" transform="translate(398, 218)"><g id="tx_objectme_1urskkb154plov-fill" stroke="none" fill="#f4f4f4"><g><text style="font: 20px Roboto, sans-serif; white-space: pre;" font-size="20px" font-family="Roboto, sans-serif"><tspan x="23" y="34" dominant-baseline="ideographic">Object Methods</tspan></text></g></g></g><g id="g-root-ic_keys_5vw9n154bmkv-fill" data-item-order="0" transform="translate(230, 290)"></g><g id="g-root-tx_selfkeyw_91ijvf154pngu-fill" data-item-order="0" transform="translate(482, 302)"><g id="tx_selfkeyw_91ijvf154pngu-fill" stroke="none" fill="#f4f4f4"><g><text style="font: 20px Roboto, sans-serif; white-space: pre;" font-size="20px" font-family="Roboto, sans-serif"><tspan x="12.19" y="34" dominant-baseline="ideographic">Self Keyword</tspan></text></g></g></g><g id="g-root-ic_penc_1hapyqj154po95-fill" data-item-order="0" transform="translate(230, 374)"></g><g id="g-root-tx_construc_v7zlej154po91-fill" data-item-order="0" transform="translate(530, 386)"><g id="tx_construc_v7zlej154po91-fill" stroke="none" fill="#f4f4f4"><g><text style="font: 20px Roboto, sans-serif; white-space: pre;" font-size="20px" font-family="Roboto, sans-serif"><tspan x="22.86" y="34" dominant-baseline="ideographic">Constructor</tspan></text></g></g></g><g id="g-root-ic_2_1d0ik2j154po20-fill" data-item-order="0" transform="translate(230, 458)"></g><g id="g-root-tx_classdef_1cz9lwb154plvw-fill" data-item-order="0" transform="translate(554, 470)"><g id="tx_classdef_1cz9lwb154plvw-fill" stroke="none" fill="#f4f4f4"><g><text style="font: 20px Roboto, sans-serif; white-space: pre;" font-size="20px" font-family="Roboto, sans-serif"><tspan x="13.05" y="34" dominant-baseline="ideographic">Class Definition</tspan></text></g></g></g><g id="g-root-tf_91igpn154r2m8-stroke" data-item-order="-639036"></g><g id="g-root-sy_4_cu_vector_1lt16vv154pm2r-stroke" data-item-order="-164978" transform="translate(35.734375, 440)"><g id="sy_4_cu_vector_1lt16vv154pm2r-stroke" fill="none" stroke-linecap="round" stroke-linejoin="round" stroke-miterlimit="4" stroke="#4f91fc" stroke-width="2"><g><path d="M 397.9794 10L 446.4768 94L 10 94L 58.4974 10L 397.9794 10Z"></path></g></g></g><g id="g-root-sy_3_cu_vector_1cxe6mz154pmvg-stroke" data-item-order="-164974" transform="translate(84.232421875, 356)"><g id="sy_3_cu_vector_1cxe6mz154pmvg-stroke" fill="none" stroke-linecap="round" stroke-linejoin="round" stroke-miterlimit="4" stroke="#43dd93" stroke-width="2"><g><path d="M 300.9846 10L 349.482 94L 10 94L 58.4974 10L 300.9846 10Z"></path></g></g></g><g id="g-root-sy_2_cu_vector_zmk5cr154plal-stroke" data-item-order="-164970" transform="translate(132.728515625, 272)"><g id="sy_2_cu_vector_zmk5cr154plal-stroke" fill="none" stroke-linecap="round" stroke-linejoin="round" stroke-miterlimit="4" stroke="#a6da37" stroke-width="2"><g><path d="M 203.9897 10L 252.4871 94L 10 94L 58.4974 10L 203.9897 10Z"></path></g></g></g><g id="g-root-sy_1_cu_vector_v6qn8b154pm2u-stroke" data-item-order="-164966" transform="translate(181.2265625, 146)"><g id="sy_1_cu_vector_v6qn8b154pm2u-stroke" fill="none" stroke-linecap="round" stroke-linejoin="round" stroke-miterlimit="4" stroke="#1ac3fb" stroke-width="2"><g><path d="M 82.746101 10L 155.492301 136L 10 136L 82.746101 10Z"></path></g></g></g><g id="g-root-tx_pythoncl_4mlgb154pmv7-stroke" data-item-order="0" transform="translate(236, 38)"></g><g id="g-root-ic_shar_zkp2qj154cyry-stroke" data-item-order="0" transform="translate(230, 206)"><g id="ic_shar_zkp2qj154cyry-stroke" fill="none" stroke-linecap="round" stroke-linejoin="round" stroke-miterlimit="4" stroke="#1ac3fb" stroke-width="2"><g><path d="M 37.578003 11L 54.956001 11C 54.956001 11 57 11 57 13.044L 57 29.4C 57 29.4 57 31.444 54.956001 31.444L 37.578003 31.444C 37.578003 31.444 35.534 31.444 35.534 29.4L 35.534 13.044C 35.534 13.044 35.534 11 37.578003 11M 35.534 17.962L 57 17.962M 35.534 24.704L 57 24.704M 45.242001 17.962L 45.242001 31.444M 50.998001 17.962L 50.998001 31.444M 20.200001 23.6L 15.6 28L 15.6 23.6C 15.665619 20.278273 18.4123 17.639059 21.734001 17.706001L 29.4 17.705999M 11 23.6L 15.6 28.01M 24.799999 13.29L 29.4 17.705999L 24.799999 22.122M 13.044 33.487999L 24.290001 33.487999C 24.290001 33.487999 26.334 33.487999 26.334 35.532001L 26.334 54.956001C 26.334 54.956001 26.334 57 24.290001 57L 13.044 57C 13.044 57 11 57 11 54.956001L 11 35.532001C 11 35.532001 11 33.487999 13.044 33.487999M 11 50.866001L 26.334 50.866001"></path></g></g></g><g id="g-root-tx_objectme_1urskkb154plov-stroke" data-item-order="0" transform="translate(398, 218)"></g><g id="g-root-ic_keys_5vw9n154bmkv-stroke" data-item-order="0" transform="translate(230, 290)"><g id="ic_keys_5vw9n154bmkv-stroke" fill="none" stroke-linecap="round" stroke-linejoin="round" stroke-miterlimit="4" stroke="#a6da37" stroke-width="2"><g><path d="M 27.10004 25.1C 35.715599 25.1 42.700001 22.05554 42.700001 18.299999C 42.700001 14.54446 35.715599 11.5 27.10004 11.5C 18.4844 11.5 11.5 14.54446 11.5 18.299999C 11.5 22.05554 18.4844 25.1 27.10004 25.1ZM 11.5 18.300041L 11.5 28.700041C 11.5 32.5 18.50004 35.5 27.10004 35.5C 35.700001 35.5 42.700001 32.5 42.700001 28.700041L 42.700001 18.300041M 11.5 28.5L 11.5 38.900002C 11.5 42.700001 18.50004 45.700001 27.10004 45.700001L 29.10004 45.700001M 10 10M 56.5 27.5L 47.900002 32.700001M 10 10M 56.5 32.700001L 47.900002 27.5M 52.099998 24.5L 52.099998 35.5M 47.900002 42.156399C 47.321602 40.519798 45.760601 39.347198 43.9258 39.347198L 41.1166 39.347198C 38.7892 39.347198 36.902599 41.233803 36.902599 43.561199L 36.902599 51.988998C 36.902599 54.316399 38.7892 56.202999 41.1166 56.202999L 43.9258 56.202999C 45.760601 56.202999 47.321602 55.030399 47.900002 53.3936"></path></g></g></g><g id="g-root-tx_selfkeyw_91ijvf154pngu-stroke" data-item-order="0" transform="translate(482, 302)"></g><g id="g-root-ic_penc_1hapyqj154po95-stroke" data-item-order="0" transform="translate(230, 374)"><g id="ic_penc_1hapyqj154po95-stroke" fill="none" stroke-linecap="round" stroke-linejoin="round" stroke-miterlimit="4" stroke="#43dd93" stroke-width="2"><g><path d="M 10 10M 48 33.200001L 56.400002 35.599998L 54 27.200001L 39.599998 12.79998C 38 11.199976 35.200001 11.199976 33.599998 12.79998C 32 14.399981 32 17.19998 33.599998 18.79998L 48 33.200001ZM 10 10M 41.400002 14.60004L 35.400002 20.60004M 25.550041 50.450001L 25.550041 34.450001C 25.550041 33.25 26.35004 32.450001 27.550039 32.450001L 29.550039 32.450001C 30.75 32.450001 31.549999 33.25 31.549999 34.450001L 31.549999 50.450001M 31.549999 35.650002C 37.349998 37.049999 41.549999 42.25 41.549999 48.25L 41.549999 50.450001M 25.550041 35.650002C 19.75004 37.049999 15.550039 42.25 15.550039 48.25L 15.550039 50.450001M 45.549999 54.450001C 45.549999 55.650002 44.75 56.450001 43.549999 56.450001L 13.55004 56.450001C 12.35004 56.450001 11.550048 55.650002 11.550048 54.450001L 11.550048 52.450001C 11.550048 51.25 12.35004 50.450001 13.55004 50.450001L 43.549999 50.450001C 44.75 50.450001 45.549999 51.25 45.549999 52.450001L 45.549999 54.450001Z"></path></g></g></g><g id="g-root-tx_construc_v7zlej154po91-stroke" data-item-order="0" transform="translate(530, 386)"></g><g id="g-root-ic_2_1d0ik2j154po20-stroke" data-item-order="0" transform="translate(230, 458)"><g id="ic_2_1d0ik2j154po20-stroke" fill="none" stroke-linecap="round" stroke-linejoin="round" stroke-miterlimit="4" stroke="#4f91fc" stroke-width="2"><g><path d="M 34 39.299999L 34 48.299999M 52.5 48.299999L 52.5 44.700001C 52.5 43.5 51.700001 42.700001 50.5 42.700001L 17.5 42.700001C 16.299999 42.700001 15.5 43.5 15.5 44.700001L 15.5 48.299999M 31 28.30002L 31 13.70002C 31 12.50002 31.799999 11.700012 33 11.700012L 35 11.700012C 36.200001 11.700012 37 12.50002 37 13.70002L 37 28.100019M 49 32.299999C 49 33.5 48.200001 34.299999 47 34.299999L 21 34.299999C 19.799999 34.299999 19 33.5 19 32.299999L 19 30.299999C 19 29.099979 19.799999 28.29998 21 28.29998L 47 28.29998C 48.200001 28.29998 49 29.099979 49 30.299999L 49 32.299999ZM 37 15.70002C 42.200001 17.100019 46 21.70002 46 27.30002L 46 28.30002M 31 15.70002C 25.799999 17.100019 22 21.70002 22 27.30002L 22 28.30002M 15.5 56.299999C 17.709141 56.299999 19.5 54.509201 19.5 52.299999C 19.5 50.090801 17.709141 48.299999 15.5 48.299999C 13.29086 48.299999 11.5 50.090801 11.5 52.299999C 11.5 54.509201 13.29086 56.299999 15.5 56.299999ZM 34 56.299999C 36.209198 56.299999 38 54.509201 38 52.299999C 38 50.090801 36.209198 48.299999 34 48.299999C 31.7908 48.299999 30 50.090801 30 52.299999C 30 54.509201 31.7908 56.299999 34 56.299999ZM 52.5 56.299999C 54.709202 56.299999 56.5 54.509201 56.5 52.299999C 56.5 50.090801 54.709202 48.299999 52.5 48.299999C 50.290798 48.299999 48.5 50.090801 48.5 52.299999C 48.5 54.509201 50.290798 56.299999 52.5 56.299999Z"></path></g></g></g><g id="g-root-tx_classdef_1cz9lwb154plvw-stroke" data-item-order="0" transform="translate(554, 470)"></g></g></g><path id="w8wi1xn186nyfc" d="M65.283 12.757a.35.35 0 0 0 .584.157l5.203-5.141-6.183 3.523.396 1.461zm-2.216-11.7a.35.35 0 0 0-.522.305v3.111l3.276-1.868-2.754-1.548zm3.728 2.105l-4.25 2.421v2.445l6.391-3.644-2.141-1.222zm4.708 3.303a.35.35 0 0 0 0-.609l-1.592-.9-7.365 4.199v1.782a.35.35 0 0 0 .523.305l8.435-4.777z M44.542 2.513c0-.433.355-.783.792-.783s.792.35.792.783-.355.783-.792.783-.792-.35-.792-.783zm59.171 0c0-.433.355-.783.792-.783s.792.35.792.783-.355.783-.792.783-.792-.35-.792-.783zm-85.951 7.636h-1.27v-.487c-.276.201-.864.609-1.881.609-1.202 0-2.274-.794-2.137-2.078.118-1.106 1.153-1.584 1.848-1.727l2.17-.345c0-.539-.29-.956-1.064-1.006s-1.21.305-1.571 1.017l-1.124-.605c1.218-2.631 5.029-1.764 5.029.414v4.207zm-1.27-2.86c.006.396-.062 1.112-.819 1.59-.587.37-1.841.299-1.903-.395-.049-.555.461-.791.906-.898l1.816-.297zm72.662 2.86h-1.27v-.487c-.276.201-.864.609-1.881.609-1.202 0-2.274-.794-2.137-2.078.118-1.106 1.153-1.584 1.848-1.727l2.17-.345c0-.539-.29-.956-1.064-1.006s-1.21.305-1.571 1.017l-1.124-.605c1.218-2.631 5.029-1.764 5.029.414v4.207zm-1.27-2.86c.006.396-.062 1.112-.82 1.59-.587.37-1.841.299-1.903-.395-.049-.555.461-.791.906-.898l1.816-.297zM99.096 10.149H97.85v-8.45h1.246v4.895l2.68-2.559h1.738l-2.633 2.535 2.715 3.578h-1.556l-2.077-2.707-.867.844v1.863zm6.053-6.114h-1.255v6.113h1.255V4.035zm-59.2 0h-1.255v6.113h1.255V4.035zm5.584 6.113V1.697h1.255v2.695c.361-.346 1-.485 1.47-.485 1.452 0 2.477 1.082 2.457 2.448v3.792h-1.27v-3.68c0-.408-.214-1.339-1.315-1.339-.968 0-1.342.756-1.342 1.339v3.681h-1.255zm-4.76-4.894V4.039h.621a.45.45 0 0 0 .45-.45v-.855h1.251v1.305h1.309v1.215h-1.309v3.109c0 .293.105.664.648.664.365 0 .531-.035.736-.07v1.137s-.361.113-.857.113c-1.398 0-1.777-1.051-1.777-1.788V5.254h-1.071zM36.528 4.039h-1.394l2.191 6.106h1.125l1.234-3.918 1.238 3.918h1.129l2.188-6.106h-1.383l-1.359 3.93-1.256-3.93h-1.124l-1.242 3.957-1.348-3.957zM26.212 7.141c-.02 1.566 1.187 3.129 3.223 3.129 1.566 0 2.383-.918 2.734-1.719L31.172 8c-.315.399-.801 1.094-1.738 1.094-1.145 0-1.825-.781-1.891-1.52h4.625c.074-.284.148-.995-.03-1.559-.336-1.064-1.221-2.102-2.839-2.102s-3.088 1.152-3.088 3.227zm1.363-.75h3.348c-.055-.43-.566-1.301-1.623-1.301a1.79 1.79 0 0 0-1.725 1.301zm-8.758.75c.038 1.758 1.277 3.133 3.145 3.133 1.074 0 1.723-.477 1.961-.672v.547h1.242V1.703h-1.258v2.888c-.414-.36-1.062-.68-1.93-.68-1.91 0-3.198 1.473-3.16 3.23zm1.309-.08c0 1.119.723 1.978 1.836 1.978a1.88 1.88 0 0 0 1.94-1.904c0-1.371-1.011-1.99-1.972-1.99s-1.805.798-1.805 1.916zm76.683-.028C96.771 5.275 95.532 3.9 93.664 3.9c-1.074 0-1.723.477-1.961.672v-.547h-1.242v8.22h1.258V9.583c.414.36 1.063.68 1.93.68 1.91 0 3.198-1.473 3.16-3.23zm-1.309.08c0-1.119-.723-1.978-1.836-1.978a1.88 1.88 0 0 0-1.94 1.904c0 1.371 1.011 1.99 1.972 1.99S95.5 8.231 95.5 7.113zM106.441 10.173V4.036h1.254v.382c.361-.346 1-.485 1.47-.485 1.452 0 2.477 1.082 2.457 2.448v3.792h-1.27V6.492c0-.408-.214-1.339-1.315-1.339-.969 0-1.342.756-1.342 1.339v3.681h-1.254zm-30.383-.021V1.824h1.084l4.215 5.777V1.824h1.32v8.328h-1.094l-4.207-5.796v5.796h-1.319zM5.24 10.149H4V2.377h1.014l2.664 3.597 2.654-3.592h1.03v7.766h-1.256V4.762L7.678 8.068 5.24 4.742v5.407z" transform="translate(596, 548)" fill="#acacac88" stroke="none"></path></svg>