<?xml version="1.0" encoding="utf-8" standalone="yes"?>
<!DOCTYPE svg PUBLIC "-//W3C//DTD SVG 1.1//EN" "http://www.w3.org/Graphics/SVG/1.1/DTD/svg11.dtd">
<svg width="594" height="384" viewBox="0 0 594 384" style="fill:none;stroke:none;fill-rule:evenodd;clip-rule:evenodd;stroke-linecap:round;stroke-linejoin:round;stroke-miterlimit:1.5;" version="1.1" xmlns="http://www.w3.org/2000/svg" xmlns:xlink="http://www.w3.org/1999/xlink"><style class="text-font-style fontImports" data-font-family="Roboto">@import url(https://fonts.googleapis.com/css2?family=Roboto:wght@400;700&amp;amp;display=block);</style><rect id="" x="0" y="0" width="594" height="384" style="fill: #2c2c2c;"></rect><g id="items" style="isolation: isolate"><g id="blend" style="mix-blend-mode: normal"><g id="g-root-tf_4j75ej16sdbt6-fill" data-item-order="-342144"><g id="tf_4j75ej16sdbt6-fill" stroke="none" fill="#2c2c2c"><g><path d="M 0 0L 594 0L 594 384L 0 384Z"></path></g></g></g><g id="g-root-cr_2_cr-2_mahc7v16ske15-fill" data-item-order="-46650" transform="translate(391.99993896484375, 134)"><g id="cr_2_cr-2_mahc7v16ske15-fill" stroke="none" fill="#3b5649"><g><path d="M 10 64C 10 93.823377 34.176624 118 64 118C 93.823377 118 118 93.823377 118 64C 118 34.176624 93.823377 10 64 10C 34.176624 10 10 34.176624 10 64"></path></g></g></g><g id="g-root-cr_1_cr-1_hunu3f16skete-fill" data-item-order="-46646" transform="translate(67.99996948242188, 134)"><g id="cr_1_cr-1_hunu3f16skete-fill" stroke="none" fill="#3e4e69"><g><path d="M 10 64C 10 93.823377 34.176624 118 64 118C 93.823377 118 118 93.823377 118 64C 118 34.176624 93.823377 10 64 10C 34.176624 10 10 34.176624 10 64"></path></g></g></g><g id="g-root-tx_chooseth_1uo290b16sok5i-fill" data-item-order="0" transform="translate(20, 38)"><g id="tx_chooseth_1uo290b16sok5i-fill" stroke="none" fill="#f4f4f4"><g><text style="font: bold 25px Roboto, sans-serif; white-space: pre;" font-weight="bold" font-size="25px" font-family="Roboto, sans-serif"><tspan x="14.35" y="40" dominant-baseline="ideographic">Choose the appropriate method type for class </tspan><tspan x="200.46" y="70" dominant-baseline="ideographic">functionality</tspan></text></g></g></g><g id="g-root-ic_play_1ur69sr16skcuf-fill" data-item-order="0" transform="translate(86, 152)"></g><g id="g-root-ic_ligh_zrkh0b16s7pqa-fill" data-item-order="0" transform="translate(248, 152)"></g><g id="g-root-ic_deco_hwjiu316slssp-fill" data-item-order="0" transform="translate(410, 152)"></g><g id="g-root-tx_instance_dgpr8b16skdu6-fill" data-item-order="0" transform="translate(38, 254)"><g id="tx_instance_dgpr8b16skdu6-fill" stroke="none" fill="#4f91fc"><g><text style="font: 20px Roboto, sans-serif; white-space: pre;" font-size="20px" font-family="Roboto, sans-serif"><tspan x="14.02" y="34" dominant-baseline="ideographic">Instance Methods</tspan></text></g></g></g><g id="g-root-tx_staticcl_1hduc6316skff0-fill" data-item-order="0" transform="translate(344, 254)"><g id="tx_staticcl_1hduc6316skff0-fill" stroke="none" fill="#43dd93"><g><text style="font: 20px Roboto, sans-serif; white-space: pre;" font-size="20px" font-family="Roboto, sans-serif"><tspan x="15.79" y="34" dominant-baseline="ideographic">Static/Class Methods</tspan></text></g></g></g><g id="g-root-tx_accessan_zn6srf16skemd-fill" data-item-order="0" transform="translate(14, 290)"><g id="tx_accessan_zn6srf16skemd-fill" stroke="none" fill="#f4f4f4"><g><text style="font: 15px Roboto, sans-serif; white-space: pre;" font-size="15px" font-family="Roboto, sans-serif"><tspan x="13.1" y="31" dominant-baseline="ideographic">Access and modify object state</tspan></text></g></g></g><g id="g-root-tx_operatei_4jtst716skd8j-fill" data-item-order="0" transform="translate(332, 290)"><g id="tx_operatei_4jtst716skd8j-fill" stroke="none" fill="#f4f4f4"><g><text style="font: 15px Roboto, sans-serif; white-space: pre;" font-size="15px" font-family="Roboto, sans-serif"><tspan x="16.09" y="28" dominant-baseline="ideographic">Operate independently of object </tspan><tspan x="105.3" y="46" dominant-baseline="ideographic">state</tspan></text></g></g></g><g id="g-root-tf_4j75ej16sdbt6-stroke" data-item-order="-342144"></g><g id="g-root-cr_2_cr-2_mahc7v16ske15-stroke" data-item-order="-46650" transform="translate(391.99993896484375, 134)"><g id="cr_2_cr-2_mahc7v16ske15-stroke" fill="none" stroke-linecap="round" stroke-linejoin="round" stroke-miterlimit="4" stroke="#43dd93" stroke-width="2"><g><path d="M 10 64C 10 93.823377 34.176624 118 64 118C 93.823377 118 118 93.823377 118 64C 118 34.176624 93.823377 10 64 10C 34.176624 10 10 34.176624 10 64"></path></g></g></g><g id="g-root-cr_1_cr-1_hunu3f16skete-stroke" data-item-order="-46646" transform="translate(67.99996948242188, 134)"><g id="cr_1_cr-1_hunu3f16skete-stroke" fill="none" stroke-linecap="round" stroke-linejoin="round" stroke-miterlimit="4" stroke="#4f91fc" stroke-width="2"><g><path d="M 10 64C 10 93.823377 34.176624 118 64 118C 93.823377 118 118 93.823377 118 64C 118 34.176624 93.823377 10 64 10C 34.176624 10 10 34.176624 10 64"></path></g></g></g><g id="g-root-tx_chooseth_1uo290b16sok5i-stroke" data-item-order="0" transform="translate(20, 38)"></g><g id="g-root-ic_play_1ur69sr16skcuf-stroke" data-item-order="0" transform="translate(86, 152)"><g id="ic_play_1ur69sr16skcuf-stroke" fill="none" stroke-linecap="round" stroke-linejoin="round" stroke-miterlimit="4" stroke="#4f91fc" stroke-width="2"><g><path d="M 47.5 19L 32.5 11.5L 17.5 19L 32.5 26.5L 47.5 19ZM 17.5 32.688999L 17.5 19M 47.5 19L 47.5 35.875L 32.5 43.375M 32.5 26.5L 32.5 43.375M 67.272995 29.941C 71.139221 27.272182 75.823357 26.053606 80.5 26.5M 71.5 80.5L 71.5 74.5L 68.778999 74.5C 65.311203 74.5 62.5 71.688797 62.5 68.221001L 62.5 62.5L 54.400002 62.5C 55.146999 60.264999 55.84 57.982002 56.554001 55.729M 80.5 46.177002C 80.502861 47.766033 79.266174 49.081657 77.68 49.177002L 55.666 50.506001C 54.67281 47.588203 54.67281 44.423798 55.666 41.506004C 56.147255 39.256683 57.152493 37.152672 58.600002 35.365002C 59.393879 34.471622 60.647369 34.143749 61.777 34.534L 78.553001 40.774002C 79.727112 41.211258 80.505844 42.332111 80.506004 43.584999ZM 38.5 62.5C 38.5 57.529438 34.470566 53.5 29.5 53.5L 26.5 53.5L 26.5 41.5C 26.5 39.843143 25.156855 38.5 23.5 38.5C 21.843145 38.5 20.5 39.843143 20.5 41.5L 20.5 58.258003L 16.621 54.379002C 15.443863 53.242085 13.572745 53.258343 12.415545 54.415543C 11.258343 55.572746 11.242084 57.443863 12.379 58.621002L 16.257999 62.5"></path></g></g></g><g id="g-root-ic_ligh_zrkh0b16s7pqa-stroke" data-item-order="0" transform="translate(248, 152)"><g id="ic_ligh_zrkh0b16s7pqa-stroke" fill="none" stroke-linecap="round" stroke-linejoin="round" stroke-miterlimit="4" stroke="#f4f4f4" stroke-width="2"><g><path d="M 43.7155 60.25L 41.78965 75.448456C 41.6017 76.932404 43.444153 77.732651 44.395 76.57795C 47.01955 73.3909 50.811699 68.769402 54.856899 63.833954M 69.831848 45.546398C 71.379852 43.654751 72.706451 42.033249 73.705299 40.812103C 74.506447 39.832748 73.809097 38.36335 72.543854 38.36335L 69.158348 38.36335M 25.079649 52.911999L 19.49548 52.911999C 18.223511 52.911999 17.52829 51.428951 18.342926 50.452148L 22.779266 45.132549M 35.112999 30.346449C 39.87685 24.636566 44.504349 19.091724 47.564949 15.428576C 48.525852 14.278646 50.384201 15.095304 50.190849 16.581249L 48.589302 28.888599M 40.897453 54.801849L 46.692249 35.308601C 46.978149 34.346951 46.257702 33.3811 45.254501 33.3811L 42.439301 33.3811C 41.771049 33.3811 41.18335 33.823151 40.9981 34.465149L 36.3946 50.412849C 36.289299 50.77795 35.77 50.772701 35.67205 50.405647L 31.4233 34.494099C 31.2481 33.8377 30.6535 33.3811 29.97415 33.3811L 26.994999 33.3811C 25.99645 33.3811 25.276749 34.338249 25.553949 35.297501L 31.17985 54.7687C 31.7362 56.694099 33.498852 58.019501 35.503002 58.019501L 36.584049 58.019501C 38.575451 58.019501 40.329998 56.710602 40.897453 54.801849ZM 55.995251 52.8979C 54.671501 52.8979 53.315948 52.649349 52.157799 52.296249C 51.212952 52.008099 50.137451 52.530552 49.935249 53.497299L 49.494553 55.60405C 49.356548 56.263451 49.675148 56.93755 50.312199 57.156551C 51.677353 57.6259 53.664398 58.020248 55.7164 58.020248C 62.197296 58.020248 65.500153 54.6562 65.500153 50.398453C 65.500153 47.324951 63.797348 44.9491 59.738503 43.285149C 56.776901 42.0355 55.727348 41.490551 55.727348 40.328049C 55.727348 39.259899 56.758598 38.467899 58.703651 38.467899C 59.83075 38.467899 60.802898 38.636799 61.608551 38.862099C 62.52655 39.118752 63.545498 38.638149 63.765404 37.710701L 64.243744 35.694248C 64.408752 34.998253 64.061646 34.273598 63.381096 34.053402C 62.162048 33.658901 60.618248 33.381851 58.743996 33.381851C 52.776852 33.381851 49.470402 36.687851 49.470402 40.843899C 49.470402 43.873749 51.5695 46.227848 55.602547 47.924351C 58.15675 48.945248 59.221001 49.66465 59.221001 50.874397C 59.221001 52.084152 58.112801 52.8979 55.995251 52.8979Z"></path></g></g></g><g id="g-root-ic_deco_hwjiu316slssp-stroke" data-item-order="0" transform="translate(410, 152)"><g id="ic_deco_hwjiu316slssp-stroke" fill="none" stroke-linecap="round" stroke-linejoin="round" stroke-miterlimit="4" stroke="#43dd93" stroke-width="2"><g><path d="M 11.5 46C 11.500001 65.053825 26.946177 80.5 46 80.5C 65.053825 80.5 80.5 65.053825 80.5 46C 80.5 26.946177 65.053825 11.500001 46 11.500001C 26.946177 11.500001 11.500001 26.946177 11.500001 46M 51.310001 64L 50.529999 66.610001C 49.887829 68.550529 48.074028 69.86084 46.029999 69.86084C 43.985973 69.86084 42.172169 68.550529 41.529999 66.610001L 40 61.449997C 39.463154 59.671135 37.642326 58.610077 35.829998 59.02L 30.58 60.25C 28.53911 60.723404 26.429518 59.800804 25.39156 57.980919C 24.353601 56.161034 24.633518 53.875599 26.08 52.360001L 29.74 48.43C 30.998474 47.054405 30.998474 44.945595 29.74 43.57L 25.99 39.639999C 24.982203 38.566727 24.526495 37.088219 24.755209 35.633823C 24.983925 34.179432 25.871431 32.912151 27.16 32.200001M 46 22C 48.094414 21.971893 49.9491 23.347557 50.529999 25.360001L 52 30.549999C 52.536846 32.328865 54.357674 33.389923 56.169998 32.98L 61.419998 31.75C 63.460892 31.2766 65.57048 32.199196 66.608444 34.019081C 67.646393 35.83897 67.366486 38.124405 65.919998 39.639999L 62.260002 43.57C 61.001526 44.945595 61.001526 47.054405 62.260002 48.43L 64 50.290001M 49.420002 48.880001L 60.879997 58.600002M 41.529999 46C 41.529999 48.468712 43.531288 50.470001 46.000004 50.470001C 48.468712 50.470001 50.470001 48.468712 50.470001 46.000004C 50.470001 43.531288 48.468712 41.529999 46.000004 41.529999C 43.531288 41.529999 41.529999 43.531288 41.529999 46.000004M 43.93 42.040001L 39.010002 30.49M 41.290001 24.549999C 41.98439 26.02504 41.826672 27.76029 40.87772 29.085964C 39.928764 30.411636 38.337021 31.120373 36.716869 30.938604C 35.096722 30.756836 33.701599 29.712999 33.07 28.210001C 32.681057 25.888529 32.876961 23.50672 33.639999 21.280001C 33.751202 20.837528 34.061543 20.471767 34.48 20.290001C 34.888042 20.095657 35.361958 20.095657 35.77 20.290001C 37.93697 21.226589 39.834751 22.691179 41.289997 24.549999ZM 61 64C 60.511555 63.97464 60.046169 63.784256 59.68 63.459999C 58.821602 62.683342 58.704071 61.377449 59.410004 60.459999L 62.409996 57.010002C 63.227463 56.084538 64.628204 55.965607 65.589996 56.739998C 65.955734 57.067142 66.21666 57.495056 66.340004 57.970001L 67.389999 62.590004C 67.483322 63.057213 67.362213 63.541664 67.059998 63.909996C 66.754913 64.266586 66.297905 64.456085 65.830002 64.419998Z"></path></g></g></g><g id="g-root-tx_instance_dgpr8b16skdu6-stroke" data-item-order="0" transform="translate(38, 254)"></g><g id="g-root-tx_staticcl_1hduc6316skff0-stroke" data-item-order="0" transform="translate(344, 254)"></g><g id="g-root-tx_accessan_zn6srf16skemd-stroke" data-item-order="0" transform="translate(14, 290)"></g><g id="g-root-tx_operatei_4jtst716skd8j-stroke" data-item-order="0" transform="translate(332, 290)"></g></g></g><path id="w1hi7ebv186cp3f" d="M65.283 12.757a.35.35 0 0 0 .584.157l5.203-5.141-6.183 3.523.396 1.461zm-2.216-11.7a.35.35 0 0 0-.522.305v3.111l3.276-1.868-2.754-1.548zm3.728 2.105l-4.25 2.421v2.445l6.391-3.644-2.141-1.222zm4.708 3.303a.35.35 0 0 0 0-.609l-1.592-.9-7.365 4.199v1.782a.35.35 0 0 0 .523.305l8.435-4.777z M44.542 2.513c0-.433.355-.783.792-.783s.792.35.792.783-.355.783-.792.783-.792-.35-.792-.783zm59.171 0c0-.433.355-.783.792-.783s.792.35.792.783-.355.783-.792.783-.792-.35-.792-.783zm-85.951 7.636h-1.27v-.487c-.276.201-.864.609-1.881.609-1.202 0-2.274-.794-2.137-2.078.118-1.106 1.153-1.584 1.848-1.727l2.17-.345c0-.539-.29-.956-1.064-1.006s-1.21.305-1.571 1.017l-1.124-.605c1.218-2.631 5.029-1.764 5.029.414v4.207zm-1.27-2.86c.006.396-.062 1.112-.819 1.59-.587.37-1.841.299-1.903-.395-.049-.555.461-.791.906-.898l1.816-.297zm72.662 2.86h-1.27v-.487c-.276.201-.864.609-1.881.609-1.202 0-2.274-.794-2.137-2.078.118-1.106 1.153-1.584 1.848-1.727l2.17-.345c0-.539-.29-.956-1.064-1.006s-1.21.305-1.571 1.017l-1.124-.605c1.218-2.631 5.029-1.764 5.029.414v4.207zm-1.27-2.86c.006.396-.062 1.112-.82 1.59-.587.37-1.841.299-1.903-.395-.049-.555.461-.791.906-.898l1.816-.297zM99.096 10.149H97.85v-8.45h1.246v4.895l2.68-2.559h1.738l-2.633 2.535 2.715 3.578h-1.556l-2.077-2.707-.867.844v1.863zm6.053-6.114h-1.255v6.113h1.255V4.035zm-59.2 0h-1.255v6.113h1.255V4.035zm5.584 6.113V1.697h1.255v2.695c.361-.346 1-.485 1.47-.485 1.452 0 2.477 1.082 2.457 2.448v3.792h-1.27v-3.68c0-.408-.214-1.339-1.315-1.339-.968 0-1.342.756-1.342 1.339v3.681h-1.255zm-4.76-4.894V4.039h.621a.45.45 0 0 0 .45-.45v-.855h1.251v1.305h1.309v1.215h-1.309v3.109c0 .293.105.664.648.664.365 0 .531-.035.736-.07v1.137s-.361.113-.857.113c-1.398 0-1.777-1.051-1.777-1.788V5.254h-1.071zM36.528 4.039h-1.394l2.191 6.106h1.125l1.234-3.918 1.238 3.918h1.129l2.188-6.106h-1.383l-1.359 3.93-1.256-3.93h-1.124l-1.242 3.957-1.348-3.957zM26.212 7.141c-.02 1.566 1.187 3.129 3.223 3.129 1.566 0 2.383-.918 2.734-1.719L31.172 8c-.315.399-.801 1.094-1.738 1.094-1.145 0-1.825-.781-1.891-1.52h4.625c.074-.284.148-.995-.03-1.559-.336-1.064-1.221-2.102-2.839-2.102s-3.088 1.152-3.088 3.227zm1.363-.75h3.348c-.055-.43-.566-1.301-1.623-1.301a1.79 1.79 0 0 0-1.725 1.301zm-8.758.75c.038 1.758 1.277 3.133 3.145 3.133 1.074 0 1.723-.477 1.961-.672v.547h1.242V1.703h-1.258v2.888c-.414-.36-1.062-.68-1.93-.68-1.91 0-3.198 1.473-3.16 3.23zm1.309-.08c0 1.119.723 1.978 1.836 1.978a1.88 1.88 0 0 0 1.94-1.904c0-1.371-1.011-1.99-1.972-1.99s-1.805.798-1.805 1.916zm76.683-.028C96.771 5.275 95.532 3.9 93.664 3.9c-1.074 0-1.723.477-1.961.672v-.547h-1.242v8.22h1.258V9.583c.414.36 1.063.68 1.93.68 1.91 0 3.198-1.473 3.16-3.23zm-1.309.08c0-1.119-.723-1.978-1.836-1.978a1.88 1.88 0 0 0-1.94 1.904c0 1.371 1.011 1.99 1.972 1.99S95.5 8.231 95.5 7.113zM106.441 10.173V4.036h1.254v.382c.361-.346 1-.485 1.47-.485 1.452 0 2.477 1.082 2.457 2.448v3.792h-1.27V6.492c0-.408-.214-1.339-1.315-1.339-.969 0-1.342.756-1.342 1.339v3.681h-1.254zm-30.383-.021V1.824h1.084l4.215 5.777V1.824h1.32v8.328h-1.094l-4.207-5.796v5.796h-1.319zM5.24 10.149H4V2.377h1.014l2.664 3.597 2.654-3.592h1.03v7.766h-1.256V4.762L7.678 8.068 5.24 4.742v5.407z" transform="translate(11, 359)" fill="#acacac88" stroke="none"></path></svg>