<?xml version="1.0" encoding="utf-8" standalone="yes"?>
<!DOCTYPE svg PUBLIC "-//W3C//DTD SVG 1.1//EN" "http://www.w3.org/Graphics/SVG/1.1/DTD/svg11.dtd">
<svg width="711" height="582" viewBox="0 0 711 582" style="fill:none;stroke:none;fill-rule:evenodd;clip-rule:evenodd;stroke-linecap:round;stroke-linejoin:round;stroke-miterlimit:1.5;" version="1.1" xmlns="http://www.w3.org/2000/svg" xmlns:xlink="http://www.w3.org/1999/xlink"><style class="text-font-style fontImports" data-font-family="Roboto">@import url(https://fonts.googleapis.com/css2?family=Roboto:wght@400;700&amp;amp;display=block);</style><rect id="" x="0" y="0" width="710.242" height="582" style="fill: #2c2c2c;"></rect><g id="items" style="isolation: isolate"><g id="blend" style="mix-blend-mode: normal"><g id="g-root-tf_zs6y3f17c5hj9-fill" data-item-order="-620042"><g id="tf_zs6y3f17c5hj9-fill" stroke="none" fill="#2c2c2c"><g><path d="M 0.001216 0L 710.241216 0L 710.241216 582L 0.001216 582Z"></path></g></g></g><g id="g-root-sy_4_line_dkgye317ci5u4-fill" data-item-order="-202866" transform="translate(206, 482)"></g><g id="g-root-sy_4_cu_vector_94ng9n17ci6md-fill" data-item-order="-202865" transform="translate(239.765625, 440)"><g id="sy_4_cu_vector_94ng9n17ci6md-fill" stroke="none" fill="#3e4e69"><g><path d="M 397.9794 10L 446.4768 94L 10 94L 58.4974 10L 397.9794 10Z"></path></g></g></g><g id="g-root-sy_3_line_90g0r17ci7f2-fill" data-item-order="-202858" transform="translate(206, 398)"></g><g id="g-root-sy_3_cu_vector_1lzagpn17ci5n3-fill" data-item-order="-202857" transform="translate(288.265625, 356)"><g id="sy_3_cu_vector_1lzagpn17ci5n3-fill" stroke="none" fill="#3b5649"><g><path d="M 300.9846 10L 349.482 94L 10 94L 58.4974 10L 300.9846 10Z"></path></g></g></g><g id="g-root-sy_2_line_1hjgyl717ci6fc-fill" data-item-order="-202850" transform="translate(206, 314)"></g><g id="g-root-sy_2_cu_vector_13ynbx717cjjex-fill" data-item-order="-202849" transform="translate(336.7578125, 272)"><g id="sy_2_cu_vector_13ynbx717cjjex-fill" stroke="none" fill="#4b533a"><g><path d="M 203.989701 10L 252.487101 94L 10 94L 58.497401 10L 203.989701 10Z"></path></g></g></g><g id="g-root-sy_1_line_zittsr17cjk76-fill" data-item-order="-202842" transform="translate(206, 230)"></g><g id="g-root-sy_1_cu_vector_qn6tjv17cjkzv-fill" data-item-order="-202841" transform="translate(385.2578125, 146)"><g id="sy_1_cu_vector_qn6tjv17cjkzv-fill" stroke="none" fill="#344e57"><g><path d="M 82.746101 10L 155.492301 136L 10 136L 82.746101 10Z"></path></g></g></g><g id="g-root-tx_encapsul_dccs9n17cjjf0-fill" data-item-order="0" transform="translate(188, 38)"><g id="tx_encapsul_dccs9n17cjjf0-fill" stroke="none" fill="#f4f4f4"><g><text style="font: bold 25px Roboto, sans-serif; white-space: pre;" font-weight="bold" font-size="25px" font-family="Roboto, sans-serif"><tspan x="17.38" y="43" dominant-baseline="ideographic">Encapsulation Hierarchy</tspan></text></g></g></g><g id="g-root-tx_internal_8yepej17cjj7k-fill" data-item-order="0" transform="translate(62, 206)"><g id="tx_internal_8yepej17cjj7k-fill" stroke="none" fill="#f4f4f4"><g><text style="font: 20px Roboto, sans-serif; white-space: pre;" font-size="20px" font-family="Roboto, sans-serif"><tspan x="21.39" y="34" dominant-baseline="ideographic">Internal State </tspan><tspan x="47.91" y="58" dominant-baseline="ideographic">Protection</tspan></text></g></g></g><g id="g-root-tx_getterse_qp28t717cjk07-fill" data-item-order="0" transform="translate(-10, 302)"><g id="tx_getterse_qp28t717cjk07-fill" stroke="none" fill="#f4f4f4"><g><text style="font: 20px Roboto, sans-serif; white-space: pre;" font-size="20px" font-family="Roboto, sans-serif"><tspan x="12.5" y="34" dominant-baseline="ideographic">Getter/Setter Methods</tspan></text></g></g></g><g id="g-root-tx_privatea_18fps7v17cjksu-fill" data-item-order="0" transform="translate(26, 386)"><g id="tx_privatea_18fps7v17cjksu-fill" stroke="none" fill="#f4f4f4"><g><text style="font: 20px Roboto, sans-serif; white-space: pre;" font-size="20px" font-family="Roboto, sans-serif"><tspan x="21.88" y="34" dominant-baseline="ideographic">Private Attributes</tspan></text></g></g></g><g id="g-root-tx_publicat_1um6tqz17cjll1-fill" data-item-order="0" transform="translate(38, 470)"><g id="tx_publicat_1um6tqz17cjll1-fill" stroke="none" fill="#f4f4f4"><g><text style="font: 20px Roboto, sans-serif; white-space: pre;" font-size="20px" font-family="Roboto, sans-serif"><tspan x="16.63" y="34" dominant-baseline="ideographic">Public Attributes</tspan></text></g></g></g><g id="g-root-tf_zs6y3f17c5hj9-stroke" data-item-order="-620042"></g><g id="g-root-sy_4_line_dkgye317ci5u4-stroke" data-item-order="-202866" transform="translate(206, 482)"><g id="sy_4_line_dkgye317ci5u4-stroke" fill="none" stroke-linecap="round" stroke-linejoin="round" stroke-miterlimit="4" stroke="#b7b7b7" stroke-width="2"><style>.fillAsStrokeColor-mk-1uo1t7v14ki0ht { fill:#b7b7b7; }</style><g><path d="M 10 10C 118.3 10 -52.73 10 49.57 10"></path><path d="M 51 10L 44 14L 44 6Z" stroke-dasharray="none" class="fillAsStrokeColor-mk-1uo1t7v14ki0ht"></path></g></g></g><g id="g-root-sy_4_cu_vector_94ng9n17ci6md-stroke" data-item-order="-202865" transform="translate(239.765625, 440)"><g id="sy_4_cu_vector_94ng9n17ci6md-stroke" fill="none" stroke-linecap="round" stroke-linejoin="round" stroke-miterlimit="4" stroke="#4f91fc" stroke-width="2"><g><path d="M 397.9794 10L 446.4768 94L 10 94L 58.4974 10L 397.9794 10Z"></path></g></g></g><g id="g-root-sy_3_line_90g0r17ci7f2-stroke" data-item-order="-202858" transform="translate(206, 398)"><g id="sy_3_line_90g0r17ci7f2-stroke" fill="none" stroke-linecap="round" stroke-linejoin="round" stroke-miterlimit="4" stroke="#b7b7b7" stroke-width="2"><style>.fillAsStrokeColor-mk-1lsesyz14ki1ai { fill:#b7b7b7; }</style><g><path d="M 10 10C 118.14 10 -5.39 10 97.1 10"></path><path d="M 99 10L 92 14L 92 6Z" stroke-dasharray="none" class="fillAsStrokeColor-mk-1lsesyz14ki1ai"></path></g></g></g><g id="g-root-sy_3_cu_vector_1lzagpn17ci5n3-stroke" data-item-order="-202857" transform="translate(288.265625, 356)"><g id="sy_3_cu_vector_1lzagpn17ci5n3-stroke" fill="none" stroke-linecap="round" stroke-linejoin="round" stroke-miterlimit="4" stroke="#43dd93" stroke-width="2"><g><path d="M 300.9846 10L 349.482 94L 10 94L 58.4974 10L 300.9846 10Z"></path></g></g></g><g id="g-root-sy_2_line_1hjgyl717ci6fc-stroke" data-item-order="-202850" transform="translate(206, 314)"><g id="sy_2_line_1hjgyl717ci6fc-stroke" fill="none" stroke-linecap="round" stroke-linejoin="round" stroke-miterlimit="4" stroke="#b7b7b7" stroke-width="2"><style>.fillAsStrokeColor-mk-18hkror14khzpn { fill:#b7b7b7; }</style><g><path d="M 10 10C 118.14 10 43.4 10 147.07 10"></path><path d="M 149 10L 142 14L 142 6Z" stroke-dasharray="none" class="fillAsStrokeColor-mk-18hkror14khzpn"></path></g></g></g><g id="g-root-sy_2_cu_vector_13ynbx717cjjex-stroke" data-item-order="-202849" transform="translate(336.7578125, 272)"><g id="sy_2_cu_vector_13ynbx717cjjex-stroke" fill="none" stroke-linecap="round" stroke-linejoin="round" stroke-miterlimit="4" stroke="#a6da37" stroke-width="2"><g><path d="M 203.989701 10L 252.487101 94L 10 94L 58.497401 10L 203.989701 10Z"></path></g></g></g><g id="g-root-sy_1_line_zittsr17cjk76-stroke" data-item-order="-202842" transform="translate(206, 230)"><g id="sy_1_line_zittsr17cjk76-stroke" fill="none" stroke-linecap="round" stroke-linejoin="round" stroke-miterlimit="4" stroke="#b7b7b7" stroke-width="2"><style>.fillAsStrokeColor-mk-141r9kb14ki0hw { fill:#b7b7b7; }</style><g><path d="M 10 10C 118.14 10 90.24 10 195.05 10"></path><path d="M 197 10L 190 14L 190 6Z" stroke-dasharray="none" class="fillAsStrokeColor-mk-141r9kb14ki0hw"></path></g></g></g><g id="g-root-sy_1_cu_vector_qn6tjv17cjkzv-stroke" data-item-order="-202841" transform="translate(385.2578125, 146)"><g id="sy_1_cu_vector_qn6tjv17cjkzv-stroke" fill="none" stroke-linecap="round" stroke-linejoin="round" stroke-miterlimit="4" stroke="#1ac3fb" stroke-width="2"><g><path d="M 82.746101 10L 155.492301 136L 10 136L 82.746101 10Z"></path></g></g></g><g id="g-root-tx_encapsul_dccs9n17cjjf0-stroke" data-item-order="0" transform="translate(188, 38)"></g><g id="g-root-tx_internal_8yepej17cjj7k-stroke" data-item-order="0" transform="translate(62, 206)"></g><g id="g-root-tx_getterse_qp28t717cjk07-stroke" data-item-order="0" transform="translate(-10, 302)"></g><g id="g-root-tx_privatea_18fps7v17cjksu-stroke" data-item-order="0" transform="translate(26, 386)"></g><g id="g-root-tx_publicat_1um6tqz17cjll1-stroke" data-item-order="0" transform="translate(38, 470)"></g></g></g><path id="wzs6lhn186jqbp" d="M65.283 12.757a.35.35 0 0 0 .584.157l5.203-5.141-6.183 3.523.396 1.461zm-2.216-11.7a.35.35 0 0 0-.522.305v3.111l3.276-1.868-2.754-1.548zm3.728 2.105l-4.25 2.421v2.445l6.391-3.644-2.141-1.222zm4.708 3.303a.35.35 0 0 0 0-.609l-1.592-.9-7.365 4.199v1.782a.35.35 0 0 0 .523.305l8.435-4.777z M44.542 2.513c0-.433.355-.783.792-.783s.792.35.792.783-.355.783-.792.783-.792-.35-.792-.783zm59.171 0c0-.433.355-.783.792-.783s.792.35.792.783-.355.783-.792.783-.792-.35-.792-.783zm-85.951 7.636h-1.27v-.487c-.276.201-.864.609-1.881.609-1.202 0-2.274-.794-2.137-2.078.118-1.106 1.153-1.584 1.848-1.727l2.17-.345c0-.539-.29-.956-1.064-1.006s-1.21.305-1.571 1.017l-1.124-.605c1.218-2.631 5.029-1.764 5.029.414v4.207zm-1.27-2.86c.006.396-.062 1.112-.819 1.59-.587.37-1.841.299-1.903-.395-.049-.555.461-.791.906-.898l1.816-.297zm72.662 2.86h-1.27v-.487c-.276.201-.864.609-1.881.609-1.202 0-2.274-.794-2.137-2.078.118-1.106 1.153-1.584 1.848-1.727l2.17-.345c0-.539-.29-.956-1.064-1.006s-1.21.305-1.571 1.017l-1.124-.605c1.218-2.631 5.029-1.764 5.029.414v4.207zm-1.27-2.86c.006.396-.062 1.112-.82 1.59-.587.37-1.841.299-1.903-.395-.049-.555.461-.791.906-.898l1.816-.297zM99.096 10.149H97.85v-8.45h1.246v4.895l2.68-2.559h1.738l-2.633 2.535 2.715 3.578h-1.556l-2.077-2.707-.867.844v1.863zm6.053-6.114h-1.255v6.113h1.255V4.035zm-59.2 0h-1.255v6.113h1.255V4.035zm5.584 6.113V1.697h1.255v2.695c.361-.346 1-.485 1.47-.485 1.452 0 2.477 1.082 2.457 2.448v3.792h-1.27v-3.68c0-.408-.214-1.339-1.315-1.339-.968 0-1.342.756-1.342 1.339v3.681h-1.255zm-4.76-4.894V4.039h.621a.45.45 0 0 0 .45-.45v-.855h1.251v1.305h1.309v1.215h-1.309v3.109c0 .293.105.664.648.664.365 0 .531-.035.736-.07v1.137s-.361.113-.857.113c-1.398 0-1.777-1.051-1.777-1.788V5.254h-1.071zM36.528 4.039h-1.394l2.191 6.106h1.125l1.234-3.918 1.238 3.918h1.129l2.188-6.106h-1.383l-1.359 3.93-1.256-3.93h-1.124l-1.242 3.957-1.348-3.957zM26.212 7.141c-.02 1.566 1.187 3.129 3.223 3.129 1.566 0 2.383-.918 2.734-1.719L31.172 8c-.315.399-.801 1.094-1.738 1.094-1.145 0-1.825-.781-1.891-1.52h4.625c.074-.284.148-.995-.03-1.559-.336-1.064-1.221-2.102-2.839-2.102s-3.088 1.152-3.088 3.227zm1.363-.75h3.348c-.055-.43-.566-1.301-1.623-1.301a1.79 1.79 0 0 0-1.725 1.301zm-8.758.75c.038 1.758 1.277 3.133 3.145 3.133 1.074 0 1.723-.477 1.961-.672v.547h1.242V1.703h-1.258v2.888c-.414-.36-1.062-.68-1.93-.68-1.91 0-3.198 1.473-3.16 3.23zm1.309-.08c0 1.119.723 1.978 1.836 1.978a1.88 1.88 0 0 0 1.94-1.904c0-1.371-1.011-1.99-1.972-1.99s-1.805.798-1.805 1.916zm76.683-.028C96.771 5.275 95.532 3.9 93.664 3.9c-1.074 0-1.723.477-1.961.672v-.547h-1.242v8.22h1.258V9.583c.414.36 1.063.68 1.93.68 1.91 0 3.198-1.473 3.16-3.23zm-1.309.08c0-1.119-.723-1.978-1.836-1.978a1.88 1.88 0 0 0-1.94 1.904c0 1.371 1.011 1.99 1.972 1.99S95.5 8.231 95.5 7.113zM106.441 10.173V4.036h1.254v.382c.361-.346 1-.485 1.47-.485 1.452 0 2.477 1.082 2.457 2.448v3.792h-1.27V6.492c0-.408-.214-1.339-1.315-1.339-.969 0-1.342.756-1.342 1.339v3.681h-1.254zm-30.383-.021V1.824h1.084l4.215 5.777V1.824h1.32v8.328h-1.094l-4.207-5.796v5.796h-1.319zM5.24 10.149H4V2.377h1.014l2.664 3.597 2.654-3.592h1.03v7.766h-1.256V4.762L7.678 8.068 5.24 4.742v5.407z" transform="translate(20, 548)" fill="#acacac88" stroke="none"></path></svg>