<?xml version="1.0" encoding="utf-8" standalone="yes"?>
<!DOCTYPE svg PUBLIC "-//W3C//DTD SVG 1.1//EN" "http://www.w3.org/Graphics/SVG/1.1/DTD/svg11.dtd">
<svg width="654" height="444" viewBox="0 0 654 444" style="fill:none;stroke:none;fill-rule:evenodd;clip-rule:evenodd;stroke-linecap:round;stroke-linejoin:round;stroke-miterlimit:1.5;" version="1.1" xmlns="http://www.w3.org/2000/svg" xmlns:xlink="http://www.w3.org/1999/xlink"><style class="text-font-style fontImports" data-font-family="Roboto">@import url(https://fonts.googleapis.com/css2?family=Roboto:wght@400;700&amp;amp;display=block);</style><rect id="" x="0" y="0" width="654" height="444" style="fill: #2c2c2c;"></rect><g id="items" style="isolation: isolate"><g id="blend" style="mix-blend-mode: normal"><g id="g-root-tf_1cu9dez14uby8a-fill" data-item-order="-435564"><g id="tf_1cu9dez14uby8a-fill" stroke="none" fill="#2c2c2c"><g><path d="M 0 0L 654 0L 654 444L 0 444Z"></path></g></g></g><g id="g-root-cp_0_g-0_18i6pt714uq1op-fill" data-item-order="-210878" transform="translate(98, 206)"><g id="cp_0_g-0_18i6pt714uq1op-fill" stroke="none" fill="#545454"><g><path d="M 70 40C 70 56.5685 56.5685 70 40 70C 23.4315 70 10 56.5685 10 40C 10 23.4315 23.4315 10 40 10C 56.5685 10 70 23.4315 70 40Z"></path></g></g></g><g id="g-root-sy_1_line_v7coiz14uq03w-fill" data-item-order="-210867" transform="translate(230, 140)"></g><g id="g-root-sy_3_line_qrj6ej14uq0w5-fill" data-item-order="-210861" transform="translate(230, 236)"></g><g id="g-root-sy_2_line_hvw65n14uq1ou-fill" data-item-order="-210855" transform="translate(230, 236)"></g><g id="g-root-tx_howtohan_dg2o1714uq2h3-fill" data-item-order="0" transform="translate(179, 38)"><g id="tx_howtohan_dg2o1714uq2h3-fill" stroke="none" fill="#f4f4f4"><g><text style="font: bold 20px Roboto, sans-serif; white-space: pre;" font-weight="bold" font-size="20px" font-family="Roboto, sans-serif"><tspan x="11.92" y="34" dominant-baseline="ideographic">How to handle runtime errors?</tspan></text></g></g></g><g id="g-root-ic_shie_144vmzv14un6rs-fill" data-item-order="0" transform="translate(350, 122)"></g><g id="g-root-tx_usetryex_hz18vf14u9631-fill" data-item-order="0" transform="translate(398, 116)"><g id="tx_usetryex_hz18vf14u9631-fill" stroke="none" fill="#4f91fc"><g><text style="font: bold 11.7px Roboto, sans-serif; white-space: pre;" font-weight="bold" font-size="11.7px" font-family="Roboto, sans-serif"><tspan x="12" y="29" dominant-baseline="ideographic">Use try-except blocks</tspan></text></g></g></g><g id="g-root-tx_protects_1qdur6z14u95vy-fill" data-item-order="0" transform="translate(398, 146)"><g id="tx_protects_1qdur6z14u95vy-fill" stroke="none" fill="#f4f4f4"><g><text style="font: 10px Roboto, sans-serif; white-space: pre;" font-size="10px" font-family="Roboto, sans-serif"><tspan x="12" y="22" dominant-baseline="ideographic">Protects code by catching and handling </tspan><tspan x="12" y="34" dominant-baseline="ideographic">errors, preventing crashes.</tspan></text></g></g></g><g id="g-root-ic_face_vx9n14ubzm4-fill" data-item-order="0" transform="translate(110, 218)"></g><g id="g-root-ic_aler_1qbcld714uhlol-fill" data-item-order="0" transform="translate(350, 218)"></g><g id="g-root-tx_handlesp_mg3p6314u97gv-fill" data-item-order="0" transform="translate(398, 212)"><g id="tx_handlesp_mg3p6314u97gv-fill" stroke="none" fill="#43dd93"><g><text style="font: bold 11.7px Roboto, sans-serif; white-space: pre;" font-weight="bold" font-size="11.7px" font-family="Roboto, sans-serif"><tspan x="12" y="29" dominant-baseline="ideographic">Handle specific errors</tspan></text></g></g></g><g id="g-root-tx_addresse_4pg5rf14u96o8-fill" data-item-order="0" transform="translate(398, 242)"><g id="tx_addresse_4pg5rf14u96o8-fill" stroke="none" fill="#f4f4f4"><g><text style="font: 10px Roboto, sans-serif; white-space: pre;" font-size="10px" font-family="Roboto, sans-serif"><tspan x="12" y="22" dominant-baseline="ideographic">Addresses known errors like ValueError and </tspan><tspan x="12" y="34" dominant-baseline="ideographic">TypeError, ensuring smooth operation.</tspan></text></g></g></g><g id="g-root-ic_dust_1luw6cr14uq2a0-fill" data-item-order="0" transform="translate(350, 314)"></g><g id="g-root-tx_useelsea_m7zj1n14ual1l-fill" data-item-order="0" transform="translate(398, 308)"><g id="tx_useelsea_m7zj1n14ual1l-fill" stroke="none" fill="#a6da37"><g><text style="font: bold 11.7px Roboto, sans-serif; white-space: pre;" font-weight="bold" font-size="11.7px" font-family="Roboto, sans-serif"><tspan x="12" y="29" dominant-baseline="ideographic">Use else and finally</tspan></text></g></g></g><g id="g-root-tx_provides_4hbzmz14uak8y-fill" data-item-order="0" transform="translate(398, 338)"><g id="tx_provides_4hbzmz14uak8y-fill" stroke="none" fill="#f4f4f4"><g><text style="font: 10px Roboto, sans-serif; white-space: pre;" font-size="10px" font-family="Roboto, sans-serif"><tspan x="12" y="22" dominant-baseline="ideographic">Provides additional control and cleanup </tspan><tspan x="12" y="34" dominant-baseline="ideographic">after error handling.</tspan></text></g></g></g><g id="g-root-tf_1cu9dez14uby8a-stroke" data-item-order="-435564"></g><g id="g-root-cp_0_g-0_18i6pt714uq1op-stroke" data-item-order="-210878" transform="translate(98, 206)"><g id="cp_0_g-0_18i6pt714uq1op-stroke" fill="none" stroke-linecap="round" stroke-linejoin="round" stroke-miterlimit="4" stroke="#ababab" stroke-width="2"><g><path d="M 142 40L 70 40"></path></g></g><g id="cp_0_g-0_18i6pt714uq1op-stroke" fill="none" stroke-linecap="round" stroke-linejoin="round" stroke-miterlimit="4" stroke="#ababab" stroke-width="2"><g><path d="M 70 40C 70 56.5685 56.5685 70 40 70C 23.4315 70 10 56.5685 10 40C 10 23.4315 23.4315 10 40 10C 56.5685 10 70 23.4315 70 40Z"></path></g></g></g><g id="g-root-sy_1_line_v7coiz14uq03w-stroke" data-item-order="-210867" transform="translate(230, 140)"><g id="sy_1_line_v7coiz14uq03w-stroke" fill="none" stroke-linecap="round" stroke-linejoin="round" stroke-miterlimit="4" stroke="#4f91fc" stroke-width="2"><g><path d="M 115.99 10L 57.94 10C 44.69 10 33.94 20.75 33.94 34L 34 82C 34 95.23 23.23 106 10 106"></path><path d="M 110 16.5L 116.5 10L 110 3.5" stroke-dasharray="none"></path></g></g></g><g id="g-root-sy_3_line_qrj6ej14uq0w5-stroke" data-item-order="-210861" transform="translate(230, 236)"><g id="sy_3_line_qrj6ej14uq0w5-stroke" fill="none" stroke-linecap="round" stroke-linejoin="round" stroke-miterlimit="4" stroke="#a6da37" stroke-width="2"><g><path d="M 116 106L 57.95 106C 44.7 106 34 95.25 34 82L 34 34C 34 20.77 23.23 10 10 10"></path><path d="M 110 112.5L 116.5 106L 110 99.5" stroke-dasharray="none"></path></g></g></g><g id="g-root-sy_2_line_hvw65n14uq1ou-stroke" data-item-order="-210855" transform="translate(230, 236)"><g id="sy_2_line_hvw65n14uq1ou-stroke" fill="none" stroke-linecap="round" stroke-linejoin="round" stroke-miterlimit="4" stroke="#43dd93" stroke-width="2"><g><path d="M 116 10L 10 10"></path><path d="M 110 16.5L 116.5 10L 110 3.5" stroke-dasharray="none"></path></g></g></g><g id="g-root-tx_howtohan_dg2o1714uq2h3-stroke" data-item-order="0" transform="translate(179, 38)"></g><g id="g-root-ic_shie_144vmzv14un6rs-stroke" data-item-order="0" transform="translate(350, 122)"><g id="ic_shie_144vmzv14un6rs-stroke" fill="none" stroke-linecap="round" stroke-linejoin="round" stroke-miterlimit="4" stroke="#4f91fc" stroke-width="2"><g><path d="M 13.75 12.25C 13.75 11.421573 14.421573 10.75 15.25 10.75L 40.75 10.75C 41.578426 10.75 42.25 11.421573 42.25 12.25L 42.25 21.646C 42.249908 31.549215 36.763351 40.63726 28 45.25C 19.235691 40.638275 13.748749 31.549587 13.75 21.646ZM 22 18.997L 34 30.997M 34 18.997L 22 30.997"></path></g></g></g><g id="g-root-tx_usetryex_hz18vf14u9631-stroke" data-item-order="0" transform="translate(398, 116)"></g><g id="g-root-tx_protects_1qdur6z14u95vy-stroke" data-item-order="0" transform="translate(398, 146)"></g><g id="g-root-ic_face_vx9n14ubzm4-stroke" data-item-order="0" transform="translate(110, 218)"><g id="ic_face_vx9n14ubzm4-stroke" fill="none" stroke-linecap="round" stroke-linejoin="round" stroke-miterlimit="4" stroke="#ababab" stroke-width="2"><g><path d="M 28.299999 24.841C 26.799999 23.341 23.799999 22.591 22.299999 24.091M 13.45 27.841C 13.3 27.241001 13.3 26.640999 13.3 25.890999C 13.3 17.791 19.9 11.191 28 11.191C 36.099998 11.191 42.699997 17.791 42.699997 25.890999C 42.699997 31.291 39.849998 35.941002 35.5 38.490997M 25.224998 43.900002C 28.224998 42.699997 27.662498 40.0555 27.0625 37.655502L 31.838501 35.806C 32.945641 35.377548 33.524639 34.158295 33.157001 33.029503L 33.156998 33.029499C 32.966873 32.445686 32.544945 31.965803 31.990271 31.702511C 31.435596 31.439217 30.797033 31.415707 30.224501 31.637501L 21.4375 35.0425C 20.6875 35.342499 19.7875 34.7425 19.7875 33.9925L 19.729 32.571999C 19.705038 31.993246 19.44207 31.450363 19.002792 31.072781C 18.563515 30.695202 17.987289 30.51676 17.411501 30.580002L 17.411499 30.58C 16.352261 30.696966 15.550443 31.591824 15.55 32.657501L 15.55 38.7925C 15.55 42.692501 19.15 45.5425 22.900002 44.642498C 22.900002 44.642498 24.474998 44.199997 25.224998 43.900002ZM 20.9125 18.841C 20.601841 18.841 20.35 18.589161 20.35 18.2785C 20.35 17.96784 20.601841 17.716 20.9125 17.716M 20.9125 18.841C 21.22316 18.841 21.475 18.589161 21.475 18.2785C 21.475 17.96784 21.22316 17.716 20.9125 17.716M 28.900002 18.841C 28.58934 18.841 28.337502 18.589161 28.337502 18.2785C 28.337502 17.96784 28.58934 17.716 28.900002 17.716M 28.900002 18.841C 29.210661 18.841 29.462502 18.589161 29.462502 18.2785C 29.462502 17.96784 29.210661 17.716 28.900002 17.716"></path></g></g></g><g id="g-root-ic_aler_1qbcld714uhlol-stroke" data-item-order="0" transform="translate(350, 218)"><g id="ic_aler_1qbcld714uhlol-stroke" fill="none" stroke-linecap="round" stroke-linejoin="round" stroke-miterlimit="4" stroke="#43dd93" stroke-width="2"><g><path d="M 25.337502 36.979L 13.921 36.979C 12.169705 36.979 10.75 35.559296 10.75 33.808002L 10.75 13.993C 10.75 12.241705 12.169705 10.822001 13.921 10.822L 37.698997 10.822C 39.449711 10.822828 40.8685 12.24229 40.8685 13.993L 40.8685 25.18M 10.75 17.014L 40.8685 17.014M 10.75 30.1705L 27.3055 30.1705M 10.75 23.601999L 40.8685 23.601999M 23.0515 17.014L 23.0515 36.979M 31.8715 17.014L 31.8715 26.0725M 36.277 40.691502C 35.967171 40.691505 35.716003 40.942669 35.716003 41.252502C 35.716003 41.562332 35.967171 41.813503 36.277 41.813503C 36.586834 41.813503 36.838005 41.562332 36.838005 41.252502C 36.838005 40.942669 36.586834 40.691505 36.277 40.691505L 36.277 40.691502M 36.277 37.327L 36.277 32.8405M 44.971001 41.336502C 45.381187 42.159485 45.336594 43.136066 44.853115 43.918243C 44.369637 44.700424 43.516041 45.176945 42.5965 45.178001L 29.9575 45.178001C 29.038227 45.176426 28.185106 44.699696 27.70199 43.917606C 27.218872 43.135521 27.174433 42.159245 27.584501 41.336502L 33.903999 28.6975C 34.353626 27.798935 35.272221 27.231407 36.277 27.231407C 37.28178 27.231407 38.200375 27.798935 38.650002 28.6975Z"></path></g></g></g><g id="g-root-tx_handlesp_mg3p6314u97gv-stroke" data-item-order="0" transform="translate(398, 212)"></g><g id="g-root-tx_addresse_4pg5rf14u96o8-stroke" data-item-order="0" transform="translate(398, 242)"></g><g id="g-root-ic_dust_1luw6cr14uq2a0-stroke" data-item-order="0" transform="translate(350, 314)"><g id="ic_dust_1luw6cr14uq2a0-stroke" fill="none" stroke-linecap="round" stroke-linejoin="round" stroke-miterlimit="4" stroke="#a6da37" stroke-width="2"><g><path d="M 10 10M 44.874851 34.375L 30.624849 44.875L 44.874851 44.875L 44.874851 34.375ZM 44.874851 34.375L 44.874851 11.875M 10 10M 11.125092 11.125L 19.37509 25.375M 16.07506 33.325001C 14.57506 30.775002 16.07506 27.325001 19.375061 25.375C 22.67506 23.574955 26.424999 24.02494 27.775002 26.575001L 16.07506 33.325001ZM 10 10M 16.075075 33.325001L 19.375074 39.175003M 10 10M 19.975136 31.075001L 23.275135 36.925003M 10 10M 23.87509 28.825001L 27.17515 34.675003M 10 10M 27.775002 26.575001L 31.075001 32.424999M 12.92509 44.875149C 12.7594 44.875149 12.62509 44.740902 12.62509 44.57515C 12.62509 44.40955 12.7594 44.27515 12.92509 44.27515M 12.92503 44.875149C 13.09072 44.875149 13.22503 44.740902 13.22503 44.57515C 13.22503 44.40955 13.09072 44.27515 12.92503 44.27515M 18.175091 44.875149C 18.009399 44.875149 17.87509 44.740902 17.87509 44.57515C 17.87509 44.40955 18.009399 44.27515 18.175091 44.27515M 18.17503 44.875149C 18.340721 44.875149 18.475031 44.740902 18.475031 44.57515C 18.475031 44.40955 18.340721 44.27515 18.17503 44.27515M 23.425091 44.875149C 23.259399 44.875149 23.12509 44.740902 23.12509 44.57515C 23.12509 44.40955 23.259399 44.27515 23.425091 44.27515M 23.42503 44.875149C 23.590721 44.875149 23.725029 44.740902 23.725029 44.57515C 23.725029 44.40955 23.590721 44.27515 23.42503 44.27515"></path></g></g></g><g id="g-root-tx_useelsea_m7zj1n14ual1l-stroke" data-item-order="0" transform="translate(398, 308)"></g><g id="g-root-tx_provides_4hbzmz14uak8y-stroke" data-item-order="0" transform="translate(398, 338)"></g></g></g><path id="wmetp3v140fzt1" d="M65.283 12.757a.35.35 0 0 0 .584.157l5.203-5.141-6.183 3.523.396 1.461zm-2.216-11.7a.35.35 0 0 0-.522.305v3.111l3.276-1.868-2.754-1.548zm3.728 2.105l-4.25 2.421v2.445l6.391-3.644-2.141-1.222zm4.708 3.303a.35.35 0 0 0 0-.609l-1.592-.9-7.365 4.199v1.782a.35.35 0 0 0 .523.305l8.435-4.777z M44.542 2.513c0-.433.355-.783.792-.783s.792.35.792.783-.355.783-.792.783-.792-.35-.792-.783zm59.171 0c0-.433.355-.783.792-.783s.792.35.792.783-.355.783-.792.783-.792-.35-.792-.783zm-85.951 7.636h-1.27v-.487c-.276.201-.864.609-1.881.609-1.202 0-2.274-.794-2.137-2.078.118-1.106 1.153-1.584 1.848-1.727l2.17-.345c0-.539-.29-.956-1.064-1.006s-1.21.305-1.571 1.017l-1.124-.605c1.218-2.631 5.029-1.764 5.029.414v4.207zm-1.27-2.86c.006.396-.062 1.112-.819 1.59-.587.37-1.841.299-1.903-.395-.049-.555.461-.791.906-.898l1.816-.297zm72.662 2.86h-1.27v-.487c-.276.201-.864.609-1.881.609-1.202 0-2.274-.794-2.137-2.078.118-1.106 1.153-1.584 1.848-1.727l2.17-.345c0-.539-.29-.956-1.064-1.006s-1.21.305-1.571 1.017l-1.124-.605c1.218-2.631 5.029-1.764 5.029.414v4.207zm-1.27-2.86c.006.396-.062 1.112-.82 1.59-.587.37-1.841.299-1.903-.395-.049-.555.461-.791.906-.898l1.816-.297zM99.096 10.149H97.85v-8.45h1.246v4.895l2.68-2.559h1.738l-2.633 2.535 2.715 3.578h-1.556l-2.077-2.707-.867.844v1.863zm6.053-6.114h-1.255v6.113h1.255V4.035zm-59.2 0h-1.255v6.113h1.255V4.035zm5.584 6.113V1.697h1.255v2.695c.361-.346 1-.485 1.47-.485 1.452 0 2.477 1.082 2.457 2.448v3.792h-1.27v-3.68c0-.408-.214-1.339-1.315-1.339-.968 0-1.342.756-1.342 1.339v3.681h-1.255zm-4.76-4.894V4.039h.621a.45.45 0 0 0 .45-.45v-.855h1.251v1.305h1.309v1.215h-1.309v3.109c0 .293.105.664.648.664.365 0 .531-.035.736-.07v1.137s-.361.113-.857.113c-1.398 0-1.777-1.051-1.777-1.788V5.254h-1.071zM36.528 4.039h-1.394l2.191 6.106h1.125l1.234-3.918 1.238 3.918h1.129l2.188-6.106h-1.383l-1.359 3.93-1.256-3.93h-1.124l-1.242 3.957-1.348-3.957zM26.212 7.141c-.02 1.566 1.187 3.129 3.223 3.129 1.566 0 2.383-.918 2.734-1.719L31.172 8c-.315.399-.801 1.094-1.738 1.094-1.145 0-1.825-.781-1.891-1.52h4.625c.074-.284.148-.995-.03-1.559-.336-1.064-1.221-2.102-2.839-2.102s-3.088 1.152-3.088 3.227zm1.363-.75h3.348c-.055-.43-.566-1.301-1.623-1.301a1.79 1.79 0 0 0-1.725 1.301zm-8.758.75c.038 1.758 1.277 3.133 3.145 3.133 1.074 0 1.723-.477 1.961-.672v.547h1.242V1.703h-1.258v2.888c-.414-.36-1.062-.68-1.93-.68-1.91 0-3.198 1.473-3.16 3.23zm1.309-.08c0 1.119.723 1.978 1.836 1.978a1.88 1.88 0 0 0 1.94-1.904c0-1.371-1.011-1.99-1.972-1.99s-1.805.798-1.805 1.916zm76.683-.028C96.771 5.275 95.532 3.9 93.664 3.9c-1.074 0-1.723.477-1.961.672v-.547h-1.242v8.22h1.258V9.583c.414.36 1.063.68 1.93.68 1.91 0 3.198-1.473 3.16-3.23zm-1.309.08c0-1.119-.723-1.978-1.836-1.978a1.88 1.88 0 0 0-1.94 1.904c0 1.371 1.011 1.99 1.972 1.99S95.5 8.231 95.5 7.113zM106.441 10.173V4.036h1.254v.382c.361-.346 1-.485 1.47-.485 1.452 0 2.477 1.082 2.457 2.448v3.792h-1.27V6.492c0-.408-.214-1.339-1.315-1.339-.969 0-1.342.756-1.342 1.339v3.681h-1.254zm-30.383-.021V1.824h1.084l4.215 5.777V1.824h1.32v8.328h-1.094l-4.207-5.796v5.796h-1.319zM5.24 10.149H4V2.377h1.014l2.664 3.597 2.654-3.592h1.03v7.766h-1.256V4.762L7.678 8.068 5.24 4.742v5.407z" transform="translate(20, 410)" fill="#acacac88" stroke="none"></path></svg>