<?xml version="1.0" encoding="utf-8" standalone="yes"?>
<!DOCTYPE svg PUBLIC "-//W3C//DTD SVG 1.1//EN" "http://www.w3.org/Graphics/SVG/1.1/DTD/svg11.dtd">
<svg width="648" height="468" viewBox="0 0 648 468" style="fill:none;stroke:none;fill-rule:evenodd;clip-rule:evenodd;stroke-linecap:round;stroke-linejoin:round;stroke-miterlimit:1.5;" version="1.1" xmlns="http://www.w3.org/2000/svg" xmlns:xlink="http://www.w3.org/1999/xlink"><style class="text-font-style fontImports" data-font-family="Roboto">@import url(https://fonts.googleapis.com/css2?family=Roboto:wght@400;700&amp;amp;display=block);</style><rect id="" x="0" y="0" width="648" height="468" style="fill: #2c2c2c;"></rect><g id="items" style="isolation: isolate"><g id="blend" style="mix-blend-mode: normal"><g id="g-root-tf_1lzadkb15y8yyu-fill" data-item-order="-454896"><g id="tf_1lzadkb15y8yyu-fill" stroke="none" fill="#2c2c2c"><g><path d="M 0 0L 648 0L 648 468L 0 468Z"></path></g></g></g><g id="g-root-cp_1_g-1_1hi80ff15ymznu-fill" data-item-order="-223192" transform="translate(40, 106)"><g id="cp_1_g-1_1hi80ff15ymznu-fill" stroke="none" fill="#54502f"><g><path d="M 92.5 194C 114.3154 194 132 176.0914 132 154C 132 131.9086 114.3154 114 92.5 114C 70.6846 114 53 131.9086 53 154C 53 176.0914 70.6846 194 92.5 194Z"></path></g></g><g id="cp_1_g-1_1hi80ff15ymznu-fill" stroke="none" fill="#54502f"><g><path d="M 60 154C 60 135.7895 74.536 121 92.5 121C 110.464 121 125 135.7895 125 154C 125 172.2105 110.464 187 92.5 187C 74.536 187 60 172.2105 60 154Z"></path></g></g><g id="cp_1_g-1_1hi80ff15ymznu-fill" stroke="none" fill="#54502f"><g><path d="M 58.7695 133.174C 65.4189 122.154 77.187 114.646 90.7261 114.04L 43.7183 10L 10 25.2346L 58.7695 133.174Z"></path></g></g><g id="cp_1_g-1_1hi80ff15ymznu-fill" stroke="none" fill="#54502f"><g><path d="M 93.937988 114.026C 107.485488 114.517 119.294788 121.917 126.033788 132.851L 174.657588 25.2346L 140.939488 10L 93.937988 114.026Z"></path></g></g><g id="cp_1_g-1_1hi80ff15ymznu-fill" stroke="none" fill="#54502f"><g><path d="M 44 10L 44 10.6236L 60.4355 47L 124.2222 47L 140.9395 10L 141 10.0273L 141 10L 140.9395 10L 44 10Z"></path></g></g></g><g id="g-root-cp_2_g-2_18ml06j15yn18g-fill" data-item-order="-223188" transform="translate(231.6710205078125, 106)"><g id="cp_2_g-2_18ml06j15yn18g-fill" stroke="none" fill="#4b533a"><g><path d="M 92.5 194C 114.3154 194 132 176.0914 132 154C 132 131.9086 114.3154 114 92.5 114C 70.6846 114 53 131.9086 53 154C 53 176.0914 70.6846 194 92.5 194Z"></path></g></g><g id="cp_2_g-2_18ml06j15yn18g-fill" stroke="none" fill="#4b533a"><g><path d="M 60 154C 60 135.7895 74.536 121 92.5 121C 110.464 121 125 135.7895 125 154C 125 172.2105 110.464 187 92.5 187C 74.536 187 60 172.2105 60 154Z"></path></g></g><g id="cp_2_g-2_18ml06j15yn18g-fill" stroke="none" fill="#4b533a"><g><path d="M 58.7695 133.174C 65.4189 122.154 77.187 114.646 90.7261 114.04L 43.7183 10L 10 25.2346L 58.7695 133.174Z"></path></g></g><g id="cp_2_g-2_18ml06j15yn18g-fill" stroke="none" fill="#4b533a"><g><path d="M 93.937988 114.026C 107.485488 114.517 119.294788 121.917 126.033788 132.851L 174.657588 25.2346L 140.939488 10L 93.937988 114.026Z"></path></g></g><g id="cp_2_g-2_18ml06j15yn18g-fill" stroke="none" fill="#4b533a"><g><path d="M 44 10L 44 10.6236L 60.4355 47L 124.2222 47L 140.9395 10L 141 10.0273L 141 10L 140.9395 10L 44 10Z"></path></g></g></g><g id="g-root-cp_3_g-3_mg3ynf15yn0ge-fill" data-item-order="-223184" transform="translate(423.343017578125, 106)"><g id="cp_3_g-3_mg3ynf15yn0ge-fill" stroke="none" fill="#3b5649"><g><path d="M 92.5 194C 114.3154 194 132 176.0914 132 154C 132 131.9086 114.3154 114 92.5 114C 70.6846 114 53 131.9086 53 154C 53 176.0914 70.6846 194 92.5 194Z"></path></g></g><g id="cp_3_g-3_mg3ynf15yn0ge-fill" stroke="none" fill="#3b5649"><g><path d="M 60 154C 60 135.7895 74.536 121 92.5 121C 110.464 121 125 135.7895 125 154C 125 172.2105 110.464 187 92.5 187C 74.536 187 60 172.2105 60 154Z"></path></g></g><g id="cp_3_g-3_mg3ynf15yn0ge-fill" stroke="none" fill="#3b5649"><g><path d="M 58.7695 133.174C 65.4189 122.154 77.187 114.646 90.7261 114.04L 43.7183 10L 10 25.2346L 58.7695 133.174Z"></path></g></g><g id="cp_3_g-3_mg3ynf15yn0ge-fill" stroke="none" fill="#3b5649"><g><path d="M 93.937988 114.026C 107.485488 114.517 119.294788 121.917 126.033788 132.851L 174.657588 25.2346L 140.939488 10L 93.937988 114.026Z"></path></g></g><g id="cp_3_g-3_mg3ynf15yn0ge-fill" stroke="none" fill="#3b5649"><g><path d="M 44 10L 44 10.6236L 60.4355 47L 124.2222 47L 140.9395 10L 141 10.0273L 141 10L 140.9395 10L 44 10Z"></path></g></g></g><g id="g-root-tx_topobjec_dl3fhn15ymyv8-fill" data-item-order="0" transform="translate(110, 38)"><g id="tx_topobjec_dl3fhn15ymyv8-fill" stroke="none" fill="#f4f4f4"><g><text style="font: bold 25px Roboto, sans-serif; white-space: pre;" font-weight="bold" font-size="25px" font-family="Roboto, sans-serif"><tspan x="12.37" y="43" dominant-baseline="ideographic">Top Object Representation Methods</tspan></text></g></g></g><g id="g-root-tx_1_1lzagq315yn1tx-fill" data-item-order="0" transform="translate(110, 232)"><g id="tx_1_1lzagq315yn1tx-fill" stroke="none" fill="#ffe711"><g><text style="font: 25px Roboto, sans-serif; white-space: pre;" font-size="25px" font-family="Roboto, sans-serif"><tspan x="14.97" y="43" dominant-baseline="ideographic">1</tspan></text></g></g></g><g id="g-root-tx_2_hs6aej15yoetj-fill" data-item-order="0" transform="translate(302, 232)"><g id="tx_2_hs6aej15yoetj-fill" stroke="none" fill="#a6da37"><g><text style="font: 25px Roboto, sans-serif; white-space: pre;" font-size="25px" font-family="Roboto, sans-serif"><tspan x="14.97" y="43" dominant-baseline="ideographic">2</tspan></text></g></g></g><g id="g-root-tx_3_zittt715yofm6-fill" data-item-order="0" transform="translate(493, 232)"><g id="tx_3_zittt715yofm6-fill" stroke="none" fill="#43dd93"><g><text style="font: 25px Roboto, sans-serif; white-space: pre;" font-size="25px" font-family="Roboto, sans-serif"><tspan x="14.97" y="43" dominant-baseline="ideographic">3</tspan></text></g></g></g><g id="g-root-tx_str_1iqzv15yoe0w-fill" data-item-order="0" transform="translate(86, 302)"><g id="tx_str_1iqzv15yoe0w-fill" stroke="none" fill="#ffe711"><g><text style="font: 20px Roboto, sans-serif; white-space: pre;" font-size="20px" font-family="Roboto, sans-serif"><tspan x="16.13" y="34" dominant-baseline="ideographic">__str__</tspan></text></g></g></g><g id="g-root-tx_repr_zkp92j15yoemi-fill" data-item-order="0" transform="translate(290, 302)"><g id="tx_repr_zkp92j15yoemi-fill" stroke="none" fill="#a6da37"><g><text style="font: 20px Roboto, sans-serif; white-space: pre;" font-size="20px" font-family="Roboto, sans-serif"><tspan x="16.39" y="34" dominant-baseline="ideographic">repr</tspan></text></g></g></g><g id="g-root-tx_print_1uo290r15yog0c-fill" data-item-order="0" transform="translate(482, 302)"><g id="tx_print_1uo290r15yog0c-fill" stroke="none" fill="#43dd93"><g><text style="font: 20px Roboto, sans-serif; white-space: pre;" font-size="20px" font-family="Roboto, sans-serif"><tspan x="13.77" y="34" dominant-baseline="ideographic">print</tspan></text></g></g></g><g id="g-root-tx_userfrie_1lr6aln15yofep-fill" data-item-order="0" transform="translate(50, 338)"><g id="tx_userfrie_1lr6aln15yofep-fill" stroke="none" fill="#f4f4f4"><g><text style="font: 15px Roboto, sans-serif; white-space: pre;" font-size="15px" font-family="Roboto, sans-serif"><tspan x="15.61" y="31" dominant-baseline="ideographic">User-friendly object </tspan><tspan x="20.52" y="49" dominant-baseline="ideographic">representation for </tspan><tspan x="56.48" y="67" dominant-baseline="ideographic">output.</tspan></text></g></g></g><g id="g-root-tx_develope_hu1pnv15yodtv-fill" data-item-order="0" transform="translate(248, 338)"><g id="tx_develope_hu1pnv15yodtv-fill" stroke="none" fill="#f4f4f4"><g><text style="font: 15px Roboto, sans-serif; white-space: pre;" font-size="15px" font-family="Roboto, sans-serif"><tspan x="11.79" y="28" dominant-baseline="ideographic">Developer-focused </tspan><tspan x="53.49" y="46" dominant-baseline="ideographic">object </tspan><tspan x="14.51" y="64" dominant-baseline="ideographic">representation for </tspan><tspan x="36.99" y="82" dominant-baseline="ideographic">debugging.</tspan></text></g></g></g><g id="g-root-tx_basicobj_1cxepm315yof7p-fill" data-item-order="0" transform="translate(440, 338)"><g id="tx_basicobj_1cxepm315yof7p-fill" stroke="none" fill="#f4f4f4"><g><text style="font: 15px Roboto, sans-serif; white-space: pre;" font-size="15px" font-family="Roboto, sans-serif"><tspan x="33.27" y="31" dominant-baseline="ideographic">Basic object </tspan><tspan x="14.52" y="49" dominant-baseline="ideographic">representation for </tspan><tspan x="29.2" y="67" dominant-baseline="ideographic">quick display.</tspan></text></g></g></g><g id="g-root-tf_1lzadkb15y8yyu-stroke" data-item-order="-454896"></g><g id="g-root-cp_1_g-1_1hi80ff15ymznu-stroke" data-item-order="-223192" transform="translate(40, 106)"><g id="cp_1_g-1_1hi80ff15ymznu-stroke" fill="none" stroke-linecap="round" stroke-linejoin="round" stroke-miterlimit="4" stroke="#ffe711" stroke-width="2"><g><path d="M 92.5 194C 114.3154 194 132 176.0914 132 154C 132 131.9086 114.3154 114 92.5 114C 70.6846 114 53 131.9086 53 154C 53 176.0914 70.6846 194 92.5 194Z"></path></g></g><g id="cp_1_g-1_1hi80ff15ymznu-stroke" fill="none" stroke-linecap="round" stroke-linejoin="round" stroke-miterlimit="4" stroke="#ffe711" stroke-width="2"><g><path d="M 60 154C 60 135.7895 74.536 121 92.5 121C 110.464 121 125 135.7895 125 154C 125 172.2105 110.464 187 92.5 187C 74.536 187 60 172.2105 60 154Z"></path></g></g><g id="cp_1_g-1_1hi80ff15ymznu-stroke" fill="none" stroke-linecap="round" stroke-linejoin="round" stroke-miterlimit="4" stroke="#ffe711" stroke-width="2"><g><path d="M 58.7695 133.1737C 65.4189 122.1535 77.187 114.6456 90.7261 114.0396L 43.7183 10L 10 25.2346L 58.7695 133.1737Z"></path></g></g><g id="cp_1_g-1_1hi80ff15ymznu-stroke" fill="none" stroke-linecap="round" stroke-linejoin="round" stroke-miterlimit="4" stroke="#ffe711" stroke-width="2"><g><path d="M 93.937988 114.026C 107.485488 114.5169 119.294788 121.9167 126.033788 132.8512L 174.657588 25.2346L 140.939488 10L 93.937988 114.026Z"></path></g></g><g id="cp_1_g-1_1hi80ff15ymznu-stroke" fill="none" stroke-linecap="round" stroke-linejoin="round" stroke-miterlimit="4" stroke="#ffe711" stroke-width="2"><g><path d="M 44 10L 44 10.6236L 60.4355 47L 124.2222 47L 140.9395 10L 141 10.0273L 141 10L 140.9395 10L 44 10Z"></path></g></g></g><g id="g-root-cp_2_g-2_18ml06j15yn18g-stroke" data-item-order="-223188" transform="translate(231.6710205078125, 106)"><g id="cp_2_g-2_18ml06j15yn18g-stroke" fill="none" stroke-linecap="round" stroke-linejoin="round" stroke-miterlimit="4" stroke="#a6da37" stroke-width="2"><g><path d="M 92.5 194C 114.3154 194 132 176.0914 132 154C 132 131.9086 114.3154 114 92.5 114C 70.6846 114 53 131.9086 53 154C 53 176.0914 70.6846 194 92.5 194Z"></path></g></g><g id="cp_2_g-2_18ml06j15yn18g-stroke" fill="none" stroke-linecap="round" stroke-linejoin="round" stroke-miterlimit="4" stroke="#a6da37" stroke-width="2"><g><path d="M 60 154C 60 135.7895 74.536 121 92.5 121C 110.464 121 125 135.7895 125 154C 125 172.2105 110.464 187 92.5 187C 74.536 187 60 172.2105 60 154Z"></path></g></g><g id="cp_2_g-2_18ml06j15yn18g-stroke" fill="none" stroke-linecap="round" stroke-linejoin="round" stroke-miterlimit="4" stroke="#a6da37" stroke-width="2"><g><path d="M 58.7695 133.1737C 65.4189 122.1535 77.187 114.6456 90.7261 114.0396L 43.7183 10L 10 25.2346L 58.7695 133.1737Z"></path></g></g><g id="cp_2_g-2_18ml06j15yn18g-stroke" fill="none" stroke-linecap="round" stroke-linejoin="round" stroke-miterlimit="4" stroke="#a6da37" stroke-width="2"><g><path d="M 93.937988 114.026C 107.485488 114.5169 119.294788 121.9167 126.033788 132.8512L 174.657588 25.2346L 140.939488 10L 93.937988 114.026Z"></path></g></g><g id="cp_2_g-2_18ml06j15yn18g-stroke" fill="none" stroke-linecap="round" stroke-linejoin="round" stroke-miterlimit="4" stroke="#a6da37" stroke-width="2"><g><path d="M 44 10L 44 10.6236L 60.4355 47L 124.2222 47L 140.9395 10L 141 10.0273L 141 10L 140.9395 10L 44 10Z"></path></g></g></g><g id="g-root-cp_3_g-3_mg3ynf15yn0ge-stroke" data-item-order="-223184" transform="translate(423.343017578125, 106)"><g id="cp_3_g-3_mg3ynf15yn0ge-stroke" fill="none" stroke-linecap="round" stroke-linejoin="round" stroke-miterlimit="4" stroke="#43dd93" stroke-width="2"><g><path d="M 92.5 194C 114.3154 194 132 176.0914 132 154C 132 131.9086 114.3154 114 92.5 114C 70.6846 114 53 131.9086 53 154C 53 176.0914 70.6846 194 92.5 194Z"></path></g></g><g id="cp_3_g-3_mg3ynf15yn0ge-stroke" fill="none" stroke-linecap="round" stroke-linejoin="round" stroke-miterlimit="4" stroke="#43dd93" stroke-width="2"><g><path d="M 60 154C 60 135.7895 74.536 121 92.5 121C 110.464 121 125 135.7895 125 154C 125 172.2105 110.464 187 92.5 187C 74.536 187 60 172.2105 60 154Z"></path></g></g><g id="cp_3_g-3_mg3ynf15yn0ge-stroke" fill="none" stroke-linecap="round" stroke-linejoin="round" stroke-miterlimit="4" stroke="#43dd93" stroke-width="2"><g><path d="M 58.7695 133.1737C 65.4189 122.1535 77.187 114.6456 90.7261 114.0396L 43.7183 10L 10 25.2346L 58.7695 133.1737Z"></path></g></g><g id="cp_3_g-3_mg3ynf15yn0ge-stroke" fill="none" stroke-linecap="round" stroke-linejoin="round" stroke-miterlimit="4" stroke="#43dd93" stroke-width="2"><g><path d="M 93.937988 114.026C 107.485488 114.5169 119.294788 121.9167 126.033788 132.8512L 174.657588 25.2346L 140.939488 10L 93.937988 114.026Z"></path></g></g><g id="cp_3_g-3_mg3ynf15yn0ge-stroke" fill="none" stroke-linecap="round" stroke-linejoin="round" stroke-miterlimit="4" stroke="#43dd93" stroke-width="2"><g><path d="M 44 10L 44 10.6236L 60.4355 47L 124.2222 47L 140.9395 10L 141 10.0273L 141 10L 140.9395 10L 44 10Z"></path></g></g></g><g id="g-root-tx_topobjec_dl3fhn15ymyv8-stroke" data-item-order="0" transform="translate(110, 38)"></g><g id="g-root-tx_1_1lzagq315yn1tx-stroke" data-item-order="0" transform="translate(110, 232)"></g><g id="g-root-tx_2_hs6aej15yoetj-stroke" data-item-order="0" transform="translate(302, 232)"></g><g id="g-root-tx_3_zittt715yofm6-stroke" data-item-order="0" transform="translate(493, 232)"></g><g id="g-root-tx_str_1iqzv15yoe0w-stroke" data-item-order="0" transform="translate(86, 302)"></g><g id="g-root-tx_repr_zkp92j15yoemi-stroke" data-item-order="0" transform="translate(290, 302)"></g><g id="g-root-tx_print_1uo290r15yog0c-stroke" data-item-order="0" transform="translate(482, 302)"></g><g id="g-root-tx_userfrie_1lr6aln15yofep-stroke" data-item-order="0" transform="translate(50, 338)"></g><g id="g-root-tx_develope_hu1pnv15yodtv-stroke" data-item-order="0" transform="translate(248, 338)"></g><g id="g-root-tx_basicobj_1cxepm315yof7p-stroke" data-item-order="0" transform="translate(440, 338)"></g></g></g><path id="w1q7l7x7140sn45" d="M65.283 12.757a.35.35 0 0 0 .584.157l5.203-5.141-6.183 3.523.396 1.461zm-2.216-11.7a.35.35 0 0 0-.522.305v3.111l3.276-1.868-2.754-1.548zm3.728 2.105l-4.25 2.421v2.445l6.391-3.644-2.141-1.222zm4.708 3.303a.35.35 0 0 0 0-.609l-1.592-.9-7.365 4.199v1.782a.35.35 0 0 0 .523.305l8.435-4.777z M44.542 2.513c0-.433.355-.783.792-.783s.792.35.792.783-.355.783-.792.783-.792-.35-.792-.783zm59.171 0c0-.433.355-.783.792-.783s.792.35.792.783-.355.783-.792.783-.792-.35-.792-.783zm-85.951 7.636h-1.27v-.487c-.276.201-.864.609-1.881.609-1.202 0-2.274-.794-2.137-2.078.118-1.106 1.153-1.584 1.848-1.727l2.17-.345c0-.539-.29-.956-1.064-1.006s-1.21.305-1.571 1.017l-1.124-.605c1.218-2.631 5.029-1.764 5.029.414v4.207zm-1.27-2.86c.006.396-.062 1.112-.819 1.59-.587.37-1.841.299-1.903-.395-.049-.555.461-.791.906-.898l1.816-.297zm72.662 2.86h-1.27v-.487c-.276.201-.864.609-1.881.609-1.202 0-2.274-.794-2.137-2.078.118-1.106 1.153-1.584 1.848-1.727l2.17-.345c0-.539-.29-.956-1.064-1.006s-1.21.305-1.571 1.017l-1.124-.605c1.218-2.631 5.029-1.764 5.029.414v4.207zm-1.27-2.86c.006.396-.062 1.112-.82 1.59-.587.37-1.841.299-1.903-.395-.049-.555.461-.791.906-.898l1.816-.297zM99.096 10.149H97.85v-8.45h1.246v4.895l2.68-2.559h1.738l-2.633 2.535 2.715 3.578h-1.556l-2.077-2.707-.867.844v1.863zm6.053-6.114h-1.255v6.113h1.255V4.035zm-59.2 0h-1.255v6.113h1.255V4.035zm5.584 6.113V1.697h1.255v2.695c.361-.346 1-.485 1.47-.485 1.452 0 2.477 1.082 2.457 2.448v3.792h-1.27v-3.68c0-.408-.214-1.339-1.315-1.339-.968 0-1.342.756-1.342 1.339v3.681h-1.255zm-4.76-4.894V4.039h.621a.45.45 0 0 0 .45-.45v-.855h1.251v1.305h1.309v1.215h-1.309v3.109c0 .293.105.664.648.664.365 0 .531-.035.736-.07v1.137s-.361.113-.857.113c-1.398 0-1.777-1.051-1.777-1.788V5.254h-1.071zM36.528 4.039h-1.394l2.191 6.106h1.125l1.234-3.918 1.238 3.918h1.129l2.188-6.106h-1.383l-1.359 3.93-1.256-3.93h-1.124l-1.242 3.957-1.348-3.957zM26.212 7.141c-.02 1.566 1.187 3.129 3.223 3.129 1.566 0 2.383-.918 2.734-1.719L31.172 8c-.315.399-.801 1.094-1.738 1.094-1.145 0-1.825-.781-1.891-1.52h4.625c.074-.284.148-.995-.03-1.559-.336-1.064-1.221-2.102-2.839-2.102s-3.088 1.152-3.088 3.227zm1.363-.75h3.348c-.055-.43-.566-1.301-1.623-1.301a1.79 1.79 0 0 0-1.725 1.301zm-8.758.75c.038 1.758 1.277 3.133 3.145 3.133 1.074 0 1.723-.477 1.961-.672v.547h1.242V1.703h-1.258v2.888c-.414-.36-1.062-.68-1.93-.68-1.91 0-3.198 1.473-3.16 3.23zm1.309-.08c0 1.119.723 1.978 1.836 1.978a1.88 1.88 0 0 0 1.94-1.904c0-1.371-1.011-1.99-1.972-1.99s-1.805.798-1.805 1.916zm76.683-.028C96.771 5.275 95.532 3.9 93.664 3.9c-1.074 0-1.723.477-1.961.672v-.547h-1.242v8.22h1.258V9.583c.414.36 1.063.68 1.93.68 1.91 0 3.198-1.473 3.16-3.23zm-1.309.08c0-1.119-.723-1.978-1.836-1.978a1.88 1.88 0 0 0-1.94 1.904c0 1.371 1.011 1.99 1.972 1.99S95.5 8.231 95.5 7.113zM106.441 10.173V4.036h1.254v.382c.361-.346 1-.485 1.47-.485 1.452 0 2.477 1.082 2.457 2.448v3.792h-1.27V6.492c0-.408-.214-1.339-1.315-1.339-.969 0-1.342.756-1.342 1.339v3.681h-1.254zm-30.383-.021V1.824h1.084l4.215 5.777V1.824h1.32v8.328h-1.094l-4.207-5.796v5.796h-1.319zM5.24 10.149H4V2.377h1.014l2.664 3.597 2.654-3.592h1.03v7.766h-1.256V4.762L7.678 8.068 5.24 4.742v5.407z" transform="translate(521, 443)" fill="#acacac88" stroke="none"></path></svg>